(this.webpackJsonpfrontwidgets=this.webpackJsonpfrontwidgets||[]).push([[0],{101:function(q){q.exports=JSON.parse('{"glyphs":{"0":{"ha":774,"x_min":50,"x_max":724,"o":"m 477 51 q 387 39 437 39 q 216 85 294 39 q 94 209 138 131 q 50 376 50 286 q 96 548 50 470 q 219 670 142 625 q 387 715 297 715 q 559 668 481 715 q 680 543 636 621 q 724 376 724 465 q 692 230 724 296 q 603 117 659 163 q 477 51 547 71 m 469 675 q 387 687 432 687 q 229 644 300 687 q 118 530 158 602 q 77 376 77 458 q 118 221 77 293 q 231 106 159 149 q 387 64 302 64 q 543 106 471 64 q 656 219 614 148 q 698 376 698 291 q 667 511 698 449 q 584 615 636 573 q 469 675 532 657 m 199 584 q 286 637 237 618 q 387 656 334 656 q 487 637 439 656 q 572 584 535 618 l 199 584 m 666 376 q 650 281 666 326 q 604 197 633 235 l 231 197 l 595 564 q 666 376 666 476 m 178 189 q 126 275 144 227 q 109 376 109 323 q 171 553 109 476 l 541 553 l 178 189 m 575 167 q 487 115 535 134 q 387 96 439 96 q 288 115 335 96 q 201 167 240 134 l 575 167 z "},"1":{"ha":774,"x_min":50,"x_max":724,"o":"m 477 51 q 387 39 437 39 q 216 85 294 39 q 94 209 138 131 q 50 376 50 286 q 96 548 50 470 q 219 670 142 625 q 387 715 297 715 q 559 668 481 715 q 680 543 636 621 q 724 376 724 465 q 692 230 724 296 q 603 117 659 163 q 477 51 547 71 m 469 675 q 387 687 432 687 q 229 644 300 687 q 118 530 158 602 q 77 376 77 458 q 118 221 77 293 q 231 106 159 149 q 387 64 302 64 q 543 106 471 64 q 656 219 614 148 q 698 376 698 291 q 667 511 698 449 q 584 615 636 573 q 469 675 532 657 m 199 584 q 286 637 237 618 q 387 656 334 656 q 487 637 439 656 q 572 584 535 618 l 199 584 m 666 376 q 650 281 666 326 q 604 197 633 235 l 231 197 l 595 564 q 666 376 666 476 m 178 189 q 126 275 144 227 q 109 376 109 323 q 171 553 109 476 l 541 553 l 178 189 m 575 167 q 487 115 535 134 q 387 96 439 96 q 288 115 335 96 q 201 167 240 134 l 575 167 z "},"2":{"ha":774,"x_min":50,"x_max":724,"o":"m 477 51 q 387 39 437 39 q 216 85 294 39 q 94 209 138 131 q 50 376 50 286 q 96 548 50 470 q 219 670 142 625 q 387 715 297 715 q 559 668 481 715 q 680 543 636 621 q 724 376 724 465 q 692 230 724 296 q 603 117 659 163 q 477 51 547 71 m 469 675 q 387 687 432 687 q 229 644 300 687 q 118 530 158 602 q 77 376 77 458 q 118 221 77 293 q 231 106 159 149 q 387 64 302 64 q 543 106 471 64 q 656 219 614 148 q 698 376 698 291 q 667 511 698 449 q 584 615 636 573 q 469 675 532 657 m 199 584 q 286 637 237 618 q 387 656 334 656 q 487 637 439 656 q 572 584 535 618 l 199 584 m 666 376 q 650 281 666 326 q 604 197 633 235 l 231 197 l 595 564 q 666 376 666 476 m 178 189 q 126 275 144 227 q 109 376 109 323 q 171 553 109 476 l 541 553 l 178 189 m 575 167 q 487 115 535 134 q 387 96 439 96 q 288 115 335 96 q 201 167 240 134 l 575 167 z "},"3":{"ha":774,"x_min":50,"x_max":724,"o":"m 477 51 q 387 39 437 39 q 216 85 294 39 q 94 209 138 131 q 50 376 50 286 q 96 548 50 470 q 219 670 142 625 q 387 715 297 715 q 559 668 481 715 q 680 543 636 621 q 724 376 724 465 q 692 230 724 296 q 603 117 659 163 q 477 51 547 71 m 469 675 q 387 687 432 687 q 229 644 300 687 q 118 530 158 602 q 77 376 77 458 q 118 221 77 293 q 231 106 159 149 q 387 64 302 64 q 543 106 471 64 q 656 219 614 148 q 698 376 698 291 q 667 511 698 449 q 584 615 636 573 q 469 675 532 657 m 199 584 q 286 637 237 618 q 387 656 334 656 q 487 637 439 656 q 572 584 535 618 l 199 584 m 666 376 q 650 281 666 326 q 604 197 633 235 l 231 197 l 595 564 q 666 376 666 476 m 178 189 q 126 275 144 227 q 109 376 109 323 q 171 553 109 476 l 541 553 l 178 189 m 575 167 q 487 115 535 134 q 387 96 439 96 q 288 115 335 96 q 201 167 240 134 l 575 167 z "},"4":{"ha":774,"x_min":50,"x_max":724,"o":"m 477 51 q 387 39 437 39 q 216 85 294 39 q 94 209 138 131 q 50 376 50 286 q 96 548 50 470 q 219 670 142 625 q 387 715 297 715 q 559 668 481 715 q 680 543 636 621 q 724 376 724 465 q 692 230 724 296 q 603 117 659 163 q 477 51 547 71 m 469 675 q 387 687 432 687 q 229 644 300 687 q 118 530 158 602 q 77 376 77 458 q 118 221 77 293 q 231 106 159 149 q 387 64 302 64 q 543 106 471 64 q 656 219 614 148 q 698 376 698 291 q 667 511 698 449 q 584 615 636 573 q 469 675 532 657 m 199 584 q 286 637 237 618 q 387 656 334 656 q 487 637 439 656 q 572 584 535 618 l 199 584 m 666 376 q 650 281 666 326 q 604 197 633 235 l 231 197 l 595 564 q 666 376 666 476 m 178 189 q 126 275 144 227 q 109 376 109 323 q 171 553 109 476 l 541 553 l 178 189 m 575 167 q 487 115 535 134 q 387 96 439 96 q 288 115 335 96 q 201 167 240 134 l 575 167 z "},"5":{"ha":774,"x_min":50,"x_max":724,"o":"m 477 51 q 387 39 437 39 q 216 85 294 39 q 94 209 138 131 q 50 376 50 286 q 96 548 50 470 q 219 670 142 625 q 387 715 297 715 q 559 668 481 715 q 680 543 636 621 q 724 376 724 465 q 692 230 724 296 q 603 117 659 163 q 477 51 547 71 m 469 675 q 387 687 432 687 q 229 644 300 687 q 118 530 158 602 q 77 376 77 458 q 118 221 77 293 q 231 106 159 149 q 387 64 302 64 q 543 106 471 64 q 656 219 614 148 q 698 376 698 291 q 667 511 698 449 q 584 615 636 573 q 469 675 532 657 m 199 584 q 286 637 237 618 q 387 656 334 656 q 487 637 439 656 q 572 584 535 618 l 199 584 m 666 376 q 650 281 666 326 q 604 197 633 235 l 231 197 l 595 564 q 666 376 666 476 m 178 189 q 126 275 144 227 q 109 376 109 323 q 171 553 109 476 l 541 553 l 178 189 m 575 167 q 487 115 535 134 q 387 96 439 96 q 288 115 335 96 q 201 167 240 134 l 575 167 z "},"6":{"ha":774,"x_min":50,"x_max":724,"o":"m 477 51 q 387 39 437 39 q 216 85 294 39 q 94 209 138 131 q 50 376 50 286 q 96 548 50 470 q 219 670 142 625 q 387 715 297 715 q 559 668 481 715 q 680 543 636 621 q 724 376 724 465 q 692 230 724 296 q 603 117 659 163 q 477 51 547 71 m 469 675 q 387 687 432 687 q 229 644 300 687 q 118 530 158 602 q 77 376 77 458 q 118 221 77 293 q 231 106 159 149 q 387 64 302 64 q 543 106 471 64 q 656 219 614 148 q 698 376 698 291 q 667 511 698 449 q 584 615 636 573 q 469 675 532 657 m 199 584 q 286 637 237 618 q 387 656 334 656 q 487 637 439 656 q 572 584 535 618 l 199 584 m 666 376 q 650 281 666 326 q 604 197 633 235 l 231 197 l 595 564 q 666 376 666 476 m 178 189 q 126 275 144 227 q 109 376 109 323 q 171 553 109 476 l 541 553 l 178 189 m 575 167 q 487 115 535 134 q 387 96 439 96 q 288 115 335 96 q 201 167 240 134 l 575 167 z "},"7":{"ha":774,"x_min":50,"x_max":724,"o":"m 477 51 q 387 39 437 39 q 216 85 294 39 q 94 209 138 131 q 50 376 50 286 q 96 548 50 470 q 219 670 142 625 q 387 715 297 715 q 559 668 481 715 q 680 543 636 621 q 724 376 724 465 q 692 230 724 296 q 603 117 659 163 q 477 51 547 71 m 469 675 q 387 687 432 687 q 229 644 300 687 q 118 530 158 602 q 77 376 77 458 q 118 221 77 293 q 231 106 159 149 q 387 64 302 64 q 543 106 471 64 q 656 219 614 148 q 698 376 698 291 q 667 511 698 449 q 584 615 636 573 q 469 675 532 657 m 199 584 q 286 637 237 618 q 387 656 334 656 q 487 637 439 656 q 572 584 535 618 l 199 584 m 666 376 q 650 281 666 326 q 604 197 633 235 l 231 197 l 595 564 q 666 376 666 476 m 178 189 q 126 275 144 227 q 109 376 109 323 q 171 553 109 476 l 541 553 l 178 189 m 575 167 q 487 115 535 134 q 387 96 439 96 q 288 115 335 96 q 201 167 240 134 l 575 167 z "},"8":{"ha":774,"x_min":50,"x_max":724,"o":"m 477 51 q 387 39 437 39 q 216 85 294 39 q 94 209 138 131 q 50 376 50 286 q 96 548 50 470 q 219 670 142 625 q 387 715 297 715 q 559 668 481 715 q 680 543 636 621 q 724 376 724 465 q 692 230 724 296 q 603 117 659 163 q 477 51 547 71 m 469 675 q 387 687 432 687 q 229 644 300 687 q 118 530 158 602 q 77 376 77 458 q 118 221 77 293 q 231 106 159 149 q 387 64 302 64 q 543 106 471 64 q 656 219 614 148 q 698 376 698 291 q 667 511 698 449 q 584 615 636 573 q 469 675 532 657 m 199 584 q 286 637 237 618 q 387 656 334 656 q 487 637 439 656 q 572 584 535 618 l 199 584 m 666 376 q 650 281 666 326 q 604 197 633 235 l 231 197 l 595 564 q 666 376 666 476 m 178 189 q 126 275 144 227 q 109 376 109 323 q 171 553 109 476 l 541 553 l 178 189 m 575 167 q 487 115 535 134 q 387 96 439 96 q 288 115 335 96 q 201 167 240 134 l 575 167 z "},"9":{"ha":774,"x_min":50,"x_max":724,"o":"m 477 51 q 387 39 437 39 q 216 85 294 39 q 94 209 138 131 q 50 376 50 286 q 96 548 50 470 q 219 670 142 625 q 387 715 297 715 q 559 668 481 715 q 680 543 636 621 q 724 376 724 465 q 692 230 724 296 q 603 117 659 163 q 477 51 547 71 m 469 675 q 387 687 432 687 q 229 644 300 687 q 118 530 158 602 q 77 376 77 458 q 118 221 77 293 q 231 106 159 149 q 387 64 302 64 q 543 106 471 64 q 656 219 614 148 q 698 376 698 291 q 667 511 698 449 q 584 615 636 573 q 469 675 532 657 m 199 584 q 286 637 237 618 q 387 656 334 656 q 487 637 439 656 q 572 584 535 618 l 199 584 m 666 376 q 650 281 666 326 q 604 197 633 235 l 231 197 l 595 564 q 666 376 666 476 m 178 189 q 126 275 144 227 q 109 376 109 323 q 171 553 109 476 l 541 553 l 178 189 m 575 167 q 487 115 535 134 q 387 96 439 96 q 288 115 335 96 q 201 167 240 134 l 575 167 z "},"\\r":{"ha":416,"x_min":0,"x_max":0,"o":""}," ":{"ha":311,"x_min":0,"x_max":0,"o":""},"\uf8ff":{"ha":774,"x_min":50,"x_max":724,"o":"m 477 51 q 387 39 437 39 q 216 85 294 39 q 94 209 138 131 q 50 376 50 286 q 96 548 50 470 q 219 670 142 625 q 387 715 297 715 q 559 668 481 715 q 680 543 636 621 q 724 376 724 465 q 692 230 724 296 q 603 117 659 163 q 477 51 547 71 m 469 675 q 387 687 432 687 q 229 644 300 687 q 118 530 158 602 q 77 376 77 458 q 118 221 77 293 q 231 106 159 149 q 387 64 302 64 q 543 106 471 64 q 656 219 614 148 q 698 376 698 291 q 667 511 698 449 q 584 615 636 573 q 469 675 532 657 m 199 584 q 286 637 237 618 q 387 656 334 656 q 487 637 439 656 q 572 584 535 618 l 199 584 m 666 376 q 650 281 666 326 q 604 197 633 235 l 231 197 l 595 564 q 666 376 666 476 m 178 189 q 126 275 144 227 q 109 376 109 323 q 171 553 109 476 l 541 553 l 178 189 m 575 167 q 487 115 535 134 q 387 96 439 96 q 288 115 335 96 q 201 167 240 134 l 575 167 z "},"A":{"ha":969,"x_min":26,"x_max":940,"o":"m 937 28 q 940 17 940 20 q 934 3 940 8 q 918 -1 928 -1 l 804 -1 q 786 5 794 -1 q 775 21 779 11 l 701 215 l 264 215 l 191 22 q 179 5 188 12 q 161 -1 171 -1 l 48 -1 q 26 16 26 -1 q 29 28 26 22 l 410 968 q 423 985 414 979 q 441 991 431 991 l 526 991 q 544 985 536 991 q 556 968 553 979 l 937 28 m 652 346 l 483 790 l 314 346 l 652 346 z "},"B":{"ha":866,"x_min":110,"x_max":816,"o":"m 654 523 q 739 472 703 507 q 796 387 776 436 q 816 283 816 338 q 778 132 816 196 q 670 34 741 68 q 502 0 600 0 l 130 0 q 110 20 110 0 l 110 971 q 130 991 110 991 l 472 991 q 632 959 565 991 q 734 866 699 926 q 769 723 769 806 q 738 605 769 660 q 654 523 706 550 m 262 853 l 262 575 l 473 575 q 548 592 515 575 q 598 641 581 610 q 616 714 616 673 q 577 815 616 777 q 473 853 538 853 l 262 853 m 502 138 q 587 157 550 138 q 643 213 623 177 q 663 295 663 248 q 643 377 663 342 q 587 431 623 412 q 502 450 550 450 l 262 450 l 262 138 l 502 138 z "},"C":{"ha":951,"x_min":50,"x_max":886,"o":"m 783 209 q 804 216 793 216 q 822 208 816 216 l 882 121 q 884 112 884 117 q 881 99 884 105 q 870 87 877 92 q 729 10 812 39 q 568 -18 646 -18 q 307 50 426 -18 q 119 236 188 119 q 50 494 50 353 q 119 752 50 635 q 307 939 188 870 q 568 1007 426 1007 q 726 978 643 1007 q 873 901 809 949 q 886 878 886 890 q 883 867 886 871 l 822 781 q 805 772 817 772 q 785 780 795 772 q 678 838 735 817 q 568 859 621 859 q 384 810 467 859 q 252 678 300 762 q 203 494 203 594 q 252 311 203 394 q 384 179 300 227 q 568 130 468 130 q 678 151 621 130 q 783 209 735 172 z "},"D":{"ha":968,"x_min":110,"x_max":919,"o":"m 110 965 q 117 984 110 977 q 135 991 123 991 l 412 991 q 672 926 556 991 q 853 749 787 862 q 919 494 919 635 q 853 242 919 355 q 671 64 787 129 q 412 0 555 0 l 135 0 q 117 7 123 0 q 110 26 110 14 l 110 965 m 411 146 q 591 192 510 146 q 719 319 673 239 q 766 494 766 399 q 719 673 766 593 q 592 801 673 754 q 411 847 511 847 l 262 847 l 262 146 l 411 146 z "},"E":{"ha":858,"x_min":110,"x_max":803,"o":"m 110 966 q 136 991 110 991 l 762 991 q 782 984 774 991 q 789 966 789 978 l 789 875 q 782 856 789 863 q 762 849 774 849 l 262 849 l 262 573 l 660 573 q 682 567 674 573 q 690 548 690 560 l 690 457 q 682 439 690 446 q 660 432 673 432 l 262 432 l 262 142 l 768 142 q 793 134 784 142 q 803 111 803 126 l 802 26 q 795 7 803 14 q 775 0 787 0 l 136 0 q 110 26 110 0 l 110 966 z "},"F":{"ha":806,"x_min":110,"x_max":774,"o":"m 110 965 q 135 991 110 991 l 747 991 q 767 984 760 991 q 774 966 774 978 l 774 875 q 767 856 774 863 q 747 849 760 849 l 262 849 l 262 521 l 653 521 q 674 514 667 521 q 682 495 682 507 l 682 412 q 674 393 682 399 q 653 386 667 386 l 262 386 l 262 26 q 237 0 262 0 l 135 0 q 110 26 110 0 l 110 965 z "},"G":{"ha":973,"x_min":50,"x_max":901,"o":"m 567 134 q 664 152 609 134 q 755 195 718 170 l 755 433 q 763 453 755 445 q 781 461 770 461 l 876 461 q 894 453 886 461 q 901 433 901 445 l 901 108 q 897 92 901 100 q 888 79 893 83 q 736 10 829 39 q 567 -18 644 -18 q 306 50 425 -18 q 118 235 187 118 q 50 494 50 353 q 118 753 50 635 q 306 938 187 870 q 566 1006 424 1006 q 728 980 644 1006 q 873 903 812 953 q 884 882 884 894 q 880 867 884 873 l 821 780 q 803 770 815 770 q 786 777 793 770 q 681 835 740 816 q 567 854 621 854 q 383 806 467 854 q 251 676 300 758 q 203 494 203 593 q 251 312 203 395 q 383 182 300 230 q 567 134 467 134 z "},"H":{"ha":1046,"x_min":110,"x_max":937,"o":"m 917 991 q 931 986 926 991 q 937 972 937 981 l 937 18 q 931 4 937 9 q 917 -1 926 -1 l 804 -1 q 789 4 794 -1 q 783 18 783 9 l 783 423 l 262 423 l 262 18 q 243 -1 262 -1 l 130 -1 q 115 4 120 -1 q 110 18 110 9 l 110 972 q 115 986 110 981 q 130 991 120 991 l 243 991 q 262 972 262 991 l 262 570 l 783 570 l 783 972 q 804 991 783 991 l 917 991 z "},"I":{"ha":372,"x_min":110,"x_max":262,"o":"m 262 20 q 243 -1 262 -1 l 129 -1 q 115 5 120 -1 q 110 20 110 10 l 110 970 q 129 991 110 991 l 243 991 q 262 970 262 991 l 262 20 z "},"J":{"ha":663,"x_min":50,"x_max":569,"o":"m 416 970 q 421 986 416 981 q 438 991 427 991 l 547 991 q 563 986 557 991 q 569 970 569 981 l 569 273 q 534 119 569 185 q 436 17 500 53 q 287 -19 372 -19 q 153 13 214 -19 q 57 102 92 45 q 50 122 50 114 q 57 138 50 132 l 133 208 q 148 214 140 214 q 168 203 159 214 q 218 153 187 171 q 287 134 249 134 q 380 173 345 134 q 416 275 416 212 l 416 970 z "},"K":{"ha":991,"x_min":110,"x_max":966,"o":"m 960 31 q 966 16 966 22 q 961 4 966 8 q 947 -1 956 -1 l 812 -1 q 786 12 798 -1 l 449 465 l 262 251 l 262 20 q 243 -1 262 -1 l 130 -1 q 115 5 120 -1 q 110 20 110 10 l 110 970 q 130 991 110 991 l 243 991 q 262 970 262 991 l 262 443 l 700 972 q 718 987 709 983 q 737 991 726 991 l 868 991 q 882 986 877 991 q 887 975 887 981 q 880 958 887 965 l 549 578 l 960 31 z "},"L":{"ha":803,"x_min":110,"x_max":753,"o":"m 734 146 q 753 126 753 146 l 753 20 q 733 0 753 0 l 130 0 q 110 20 110 0 l 110 972 q 130 991 110 991 l 243 991 q 262 972 262 991 l 262 146 l 734 146 z "},"M":{"ha":1229,"x_min":59,"x_max":1170,"o":"m 1168 26 q 1143 -1 1170 -1 l 1040 -1 q 1022 5 1028 -1 q 1014 24 1015 11 l 943 724 l 694 71 q 685 55 690 60 q 668 50 679 50 l 561 50 q 545 55 550 50 q 535 71 539 60 l 286 724 l 215 24 q 207 5 214 11 q 189 -1 201 -1 l 86 -1 q 61 26 59 -1 l 162 967 q 187 991 165 991 l 320 991 q 348 969 342 991 l 614 263 l 880 969 q 891 986 884 981 q 909 991 898 991 l 1042 991 q 1067 967 1064 991 l 1168 26 z "},"N":{"ha":1067,"x_min":110,"x_max":956,"o":"m 937 991 q 956 972 956 991 l 956 18 q 937 -1 956 -1 l 829 -1 q 792 20 806 -1 l 262 765 l 262 18 q 243 -1 262 -1 l 130 -1 q 110 18 110 -1 l 110 972 q 130 991 110 991 l 247 991 q 283 968 268 991 l 804 248 l 804 972 q 823 991 804 991 l 937 991 z "},"O":{"ha":1124,"x_min":50,"x_max":1075,"o":"m 50 493 q 118 752 50 635 q 303 938 186 870 q 562 1006 421 1006 q 821 938 703 1006 q 1007 752 939 870 q 1075 493 1075 635 q 1007 235 1075 352 q 821 50 939 118 q 562 -18 703 -18 q 303 50 421 -18 q 118 235 186 118 q 50 493 50 352 m 203 493 q 250 312 203 394 q 380 182 298 230 q 562 135 463 135 q 744 182 661 135 q 874 312 826 230 q 922 493 922 394 q 874 675 922 592 q 744 805 826 758 q 562 853 661 853 q 380 805 463 853 q 250 675 298 758 q 203 493 203 592 z "},"P":{"ha":810,"x_min":110,"x_max":783,"o":"m 441 991 q 618 949 541 991 q 739 833 696 908 q 783 660 783 758 q 739 489 783 564 q 618 373 696 414 q 441 332 541 332 l 262 332 l 262 25 q 255 6 262 13 q 237 -1 249 -1 l 134 -1 q 110 25 110 -1 l 110 965 q 117 984 110 977 q 134 991 123 991 l 186 991 l 240 991 l 441 991 m 441 478 q 538 502 495 478 q 606 567 581 526 q 630 661 630 608 q 606 755 630 713 q 538 821 582 798 q 441 845 495 845 l 262 845 l 262 478 l 441 478 z "},"Q":{"ha":1124,"x_min":50,"x_max":1075,"o":"m 1075 493 q 1018 256 1075 365 q 861 76 961 146 q 638 -12 762 5 l 638 -193 q 632 -213 638 -205 q 613 -220 625 -220 l 511 -220 q 492 -213 498 -220 q 485 -193 485 -205 l 485 -12 q 262 77 361 6 q 106 257 163 148 q 50 493 50 366 q 118 752 50 635 q 303 938 186 870 q 562 1006 421 1006 q 821 938 703 1006 q 1007 752 939 870 q 1075 493 1075 635 m 562 135 q 744 182 661 135 q 874 312 826 230 q 922 493 922 394 q 874 675 922 592 q 744 805 826 758 q 562 853 661 853 q 380 805 463 853 q 250 675 298 758 q 203 493 203 592 q 250 312 203 394 q 380 182 298 230 q 562 135 463 135 z "},"R":{"ha":863,"x_min":110,"x_max":801,"o":"m 798 28 q 801 18 801 24 q 795 5 801 10 q 781 -1 790 -1 l 657 -1 q 641 4 648 -1 q 628 20 635 9 l 463 333 l 452 333 l 262 333 l 262 25 q 255 6 262 13 q 237 -1 249 -1 l 134 -1 q 110 25 110 -1 l 110 965 q 117 984 110 977 q 134 991 123 991 l 161 991 l 240 991 l 452 991 q 629 949 551 991 q 750 833 707 908 q 793 661 793 758 q 746 484 793 560 q 616 368 699 408 l 798 28 m 262 478 l 452 478 q 549 502 506 478 q 616 567 592 526 q 640 661 640 608 q 616 756 640 714 q 549 822 592 798 q 452 846 506 846 l 262 846 l 262 478 z "},"S":{"ha":861,"x_min":56,"x_max":809,"o":"m 71 109 q 56 132 56 119 q 62 149 56 140 l 117 229 q 137 241 126 241 q 157 234 146 241 q 275 169 204 195 q 427 142 347 142 q 543 159 491 142 q 625 209 595 176 q 655 288 655 241 q 621 362 655 332 q 537 410 587 393 q 412 448 488 428 q 240 508 308 475 q 134 593 172 541 q 96 724 96 645 q 140 872 96 810 q 264 968 184 935 q 446 1001 343 1001 q 618 976 536 1001 q 760 906 701 951 q 772 885 772 897 q 766 867 772 877 l 709 787 q 688 774 701 774 q 669 781 681 774 q 598 820 629 806 q 531 841 568 833 q 446 848 495 848 q 348 832 393 848 q 276 789 302 817 q 249 724 249 761 q 279 657 249 684 q 350 615 309 630 q 456 584 392 600 q 645 518 572 551 q 764 430 718 486 q 809 288 809 374 q 759 129 809 196 q 621 25 708 61 q 427 -10 534 -10 q 239 19 323 -10 q 71 109 155 48 z "},"T":{"ha":759,"x_min":30,"x_max":728,"o":"m 30 966 q 37 984 30 978 q 56 991 43 991 l 703 991 q 722 984 715 991 q 728 966 728 977 l 728 868 q 722 849 728 856 q 703 842 715 842 l 456 842 l 456 20 q 450 0 456 7 q 431 -6 443 -6 l 329 -6 q 310 0 317 -6 q 303 20 303 7 l 303 842 l 56 842 q 37 848 44 842 q 30 867 30 855 l 30 966 z "},"U":{"ha":968,"x_min":77,"x_max":890,"o":"m 229 397 q 261 259 229 320 q 351 164 293 199 q 484 130 409 130 q 617 164 559 130 q 706 259 675 199 q 738 397 738 320 l 738 970 q 759 991 738 991 l 869 991 q 890 970 890 991 l 890 395 q 840 177 890 271 q 697 32 789 83 q 484 -20 605 -20 q 267 32 359 -20 q 126 178 175 83 q 77 398 77 273 l 77 970 q 96 991 77 991 l 210 991 q 229 970 229 991 l 229 397 z "},"V":{"ha":960,"x_min":23,"x_max":936,"o":"m 914 991 q 936 975 936 991 q 933 962 936 968 l 552 22 q 540 5 549 12 q 522 -1 531 -1 l 437 -1 q 419 5 427 -1 q 406 22 410 12 l 26 962 q 23 974 23 968 q 28 987 23 982 q 45 991 34 991 l 158 991 q 176 985 168 991 q 187 968 184 979 l 479 221 l 772 969 q 783 985 775 979 q 800 991 791 991 l 914 991 z "},"W":{"ha":1425,"x_min":23,"x_max":1401,"o":"m 1379 991 q 1401 975 1401 991 q 1398 962 1401 968 l 1018 22 q 1005 5 1014 12 q 987 -1 997 -1 l 903 -1 q 884 5 892 -1 q 871 22 876 12 l 711 415 l 553 22 q 541 5 549 12 q 522 -1 532 -1 l 437 -1 q 419 5 427 -1 q 406 22 410 11 l 26 962 q 23 975 23 968 q 45 991 23 991 l 158 991 q 176 985 168 991 q 188 968 184 979 l 479 221 l 772 969 q 783 985 775 979 q 801 991 791 991 l 914 991 q 936 975 936 991 q 933 962 936 968 l 783 591 l 941 215 l 1237 969 q 1248 985 1240 979 q 1265 991 1256 991 l 1379 991 z "},"X":{"ha":897,"x_min":24,"x_max":872,"o":"m 866 31 q 872 15 872 22 q 866 3 872 7 q 850 -1 861 -1 l 722 -1 q 690 20 704 -1 l 449 378 l 207 20 q 176 -1 192 -1 l 47 -1 q 30 3 36 -1 q 24 15 24 7 q 31 31 24 22 l 357 515 l 56 960 q 50 977 50 968 q 55 987 50 983 q 70 991 60 991 l 201 991 q 233 970 218 991 l 448 651 l 664 970 q 696 991 679 991 l 827 991 q 847 977 847 991 q 841 960 847 969 l 540 514 l 866 31 z "},"Y":{"ha":859,"x_min":23,"x_max":835,"o":"m 814 991 q 835 976 835 991 q 831 960 835 970 l 506 398 l 506 25 q 481 -1 506 -1 l 378 -1 q 359 6 366 -1 q 353 25 353 12 l 353 398 l 28 961 q 23 977 23 970 q 29 987 23 983 q 45 991 35 991 l 165 991 q 182 986 174 991 q 195 970 190 980 l 429 553 l 663 970 q 676 986 668 981 q 694 991 684 991 l 814 991 z "},"Z":{"ha":940,"x_min":70,"x_max":871,"o":"m 847 149 q 865 143 859 149 q 871 125 871 137 l 871 23 q 865 6 871 12 q 847 -1 859 -1 l 94 -1 q 76 5 83 -1 q 70 22 70 12 l 70 94 q 73 110 70 102 q 79 122 75 117 l 638 842 l 111 842 q 93 848 99 842 q 86 865 86 854 l 86 966 q 93 984 86 978 q 111 991 99 991 l 842 991 q 859 985 853 991 q 865 968 865 979 l 865 899 q 858 873 865 882 l 296 149 l 847 149 z "},"\xc6":{"ha":1499,"x_min":26,"x_max":1445,"o":"m 1444 26 q 1437 7 1445 14 q 1417 0 1430 0 l 777 0 q 751 26 751 0 l 751 218 l 355 218 l 210 21 q 195 5 202 10 q 178 0 188 0 l 47 0 q 32 5 37 0 q 26 19 26 11 q 33 37 26 28 l 731 969 q 746 986 740 981 q 764 991 753 991 l 1404 991 q 1424 984 1417 991 q 1431 966 1431 978 l 1431 875 q 1424 856 1431 863 q 1404 849 1417 849 l 905 849 l 905 573 l 1302 573 q 1323 567 1316 573 q 1331 548 1331 560 l 1331 457 q 1323 439 1331 446 q 1302 432 1316 432 l 905 432 l 905 142 l 1409 142 q 1435 134 1426 142 q 1445 111 1445 126 l 1444 26 m 751 345 l 751 757 l 448 345 l 751 345 z "},"\u0152":{"ha":1668,"x_min":50,"x_max":1613,"o":"m 1613 26 q 1606 7 1613 14 q 1586 0 1598 0 l 946 0 q 920 26 920 0 l 920 125 q 758 20 850 57 q 562 -18 666 -18 q 303 50 421 -18 q 118 235 186 118 q 50 493 50 352 q 118 752 50 635 q 303 938 186 870 q 562 1006 421 1006 q 758 969 666 1006 q 920 863 850 931 l 920 966 q 946 991 920 991 l 1572 991 q 1592 984 1585 991 q 1599 966 1599 978 l 1599 875 q 1592 856 1599 863 q 1572 849 1585 849 l 1073 849 l 1073 573 l 1470 573 q 1492 567 1485 573 q 1500 548 1500 560 l 1500 457 q 1492 439 1500 446 q 1470 432 1484 432 l 1073 432 l 1073 142 l 1578 142 q 1604 134 1594 142 q 1613 111 1613 126 l 1613 26 m 562 135 q 735 178 656 135 q 864 295 814 220 q 920 461 913 370 l 920 525 q 864 692 913 617 q 735 810 814 767 q 562 853 656 853 q 380 805 463 853 q 250 675 298 758 q 203 493 203 592 q 250 312 203 394 q 380 182 298 230 q 562 135 463 135 z "},"\xd0":{"ha":968,"x_min":33,"x_max":919,"o":"m 412 991 q 672 926 556 991 q 853 749 787 862 q 919 494 919 635 q 853 242 919 355 q 671 64 787 129 q 412 0 555 0 l 135 0 q 117 7 123 0 q 110 26 110 14 l 110 460 l 52 460 q 33 479 33 460 l 33 505 q 52 524 33 524 l 110 524 l 110 965 q 117 984 110 977 q 135 991 123 991 l 412 991 m 411 146 q 591 192 510 146 q 719 319 673 239 q 766 494 766 399 q 719 673 766 593 q 592 801 673 754 q 411 847 511 847 l 262 847 l 262 524 l 396 524 q 415 505 415 524 l 415 479 q 396 460 415 460 l 262 460 l 262 146 l 411 146 z "},"\xde":{"ha":816,"x_min":110,"x_max":787,"o":"m 446 825 q 623 784 545 825 q 744 669 701 743 q 787 498 787 594 q 744 326 787 401 q 623 209 701 250 q 446 168 545 168 l 262 168 l 262 20 q 243 -1 262 -1 l 129 -1 q 115 5 120 -1 q 110 20 110 10 l 110 970 q 129 991 110 991 l 243 991 q 262 970 262 991 l 262 825 l 446 825 m 446 313 q 544 336 500 313 q 611 402 587 360 q 635 497 635 444 q 611 591 635 549 q 544 656 587 633 q 446 680 500 680 l 262 680 l 262 313 l 446 313 z "},"\u1e9e":{"ha":954,"x_min":77,"x_max":904,"o":"m 630 604 q 768 555 705 597 q 868 445 831 513 q 904 300 904 378 q 861 140 904 213 q 744 24 818 66 q 583 -18 671 -18 q 475 4 534 -18 q 372 61 416 26 q 364 77 364 66 q 368 89 364 84 l 426 173 q 441 181 432 181 q 454 177 448 181 q 518 143 484 156 q 580 130 553 130 q 666 152 627 130 q 728 214 705 175 q 751 300 751 254 q 728 386 751 347 q 667 448 706 425 q 582 470 629 470 q 524 467 562 470 q 446 458 486 464 q 430 462 437 457 q 422 477 424 467 l 420 569 q 419 572 419 570 q 425 586 419 580 l 632 848 q 463 846 564 846 q 342 815 395 846 q 259 728 289 784 q 229 600 229 672 l 229 20 q 224 5 229 11 q 211 -1 219 -1 l 96 -1 q 82 5 87 -1 q 77 20 77 11 l 77 599 q 126 800 77 711 q 264 940 176 889 q 461 990 352 990 l 824 990 q 857 982 845 990 q 869 959 869 973 q 856 926 869 944 l 611 604 l 630 604 z "},"a":{"ha":664,"x_min":42,"x_max":593,"o":"m 323 606 q 465 578 404 606 q 559 498 526 550 q 593 377 593 447 l 593 20 q 588 5 593 10 q 574 -1 583 -1 l 491 -1 q 481 3 486 -1 q 475 11 477 6 l 465 71 q 382 5 434 29 q 258 -19 331 -19 q 146 4 195 -19 q 70 70 97 27 q 42 170 42 113 q 95 294 42 252 q 245 337 148 336 l 446 338 l 446 366 q 411 451 446 420 q 323 483 376 483 q 237 473 281 483 q 162 446 193 463 q 145 441 153 441 q 127 452 131 441 l 94 515 q 92 527 92 520 q 111 554 92 543 q 209 592 151 578 q 323 606 267 606 m 300 99 q 373 115 339 99 q 426 160 406 132 q 446 223 446 189 l 446 238 l 264 238 q 209 222 229 238 q 189 178 189 206 q 221 121 189 143 q 300 99 253 99 z "},"b":{"ha":747,"x_min":82,"x_max":710,"o":"m 428 605 q 573 565 509 605 q 674 453 637 524 q 710 294 710 382 q 673 134 710 205 q 572 22 637 63 q 427 -18 508 -18 q 308 10 362 -18 q 218 90 254 38 l 205 10 q 200 2 205 5 q 191 -1 196 -1 l 101 -1 q 87 5 92 -1 q 82 20 82 10 l 82 972 q 87 986 82 981 q 101 991 92 991 l 210 991 q 224 986 219 991 q 229 972 229 981 l 228 510 q 315 580 264 555 q 428 605 366 605 m 400 124 q 484 147 446 124 q 545 209 522 170 q 567 294 567 248 q 545 378 567 340 q 484 439 522 417 q 401 462 446 462 q 315 439 354 462 q 253 379 275 417 q 230 294 230 340 q 253 209 230 248 q 314 147 275 170 q 400 124 353 124 z "},"c":{"ha":612,"x_min":37,"x_max":566,"o":"m 479 172 q 491 175 486 175 q 506 168 500 175 l 561 87 q 566 75 566 81 q 557 59 566 66 q 461 2 514 22 q 351 -18 409 -18 q 194 24 266 -18 q 79 137 121 66 q 37 294 37 209 q 79 450 37 378 q 193 563 121 522 q 351 605 265 605 q 463 585 409 605 q 558 529 516 565 q 566 515 566 522 q 561 501 566 508 l 507 418 q 492 410 500 410 q 479 414 486 410 q 353 462 420 462 q 269 439 307 462 q 209 378 231 417 q 187 294 187 340 q 210 210 187 249 q 270 148 232 171 q 353 125 308 125 q 479 172 423 125 z "},"d":{"ha":747,"x_min":37,"x_max":665,"o":"m 645 991 q 660 986 654 991 q 665 972 665 981 l 665 20 q 660 5 665 10 q 645 -1 654 -1 l 556 -1 q 546 2 551 -1 q 541 10 542 5 l 528 90 q 438 10 492 38 q 319 -18 384 -18 q 174 22 239 -18 q 73 134 110 63 q 37 294 37 205 q 73 453 37 382 q 174 565 109 524 q 319 605 238 605 q 432 580 380 605 q 519 510 483 555 l 517 972 q 522 986 517 981 q 536 991 527 991 l 645 991 m 347 124 q 432 147 393 124 q 494 209 471 170 q 517 294 517 248 q 494 379 517 340 q 432 439 471 417 q 346 462 393 462 q 262 439 300 462 q 201 378 224 417 q 179 294 179 340 q 201 209 179 248 q 262 147 224 170 q 347 124 300 124 z "},"e":{"ha":680,"x_min":37,"x_max":644,"o":"m 347 605 q 500 563 432 605 q 607 449 569 521 q 643 293 644 378 q 624 249 642 264 q 581 233 606 233 l 195 233 q 257 148 214 181 q 354 115 300 115 q 479 161 412 115 q 492 165 486 165 q 505 157 499 165 l 529 124 q 555 87 545 102 q 559 74 559 81 q 553 60 559 66 q 352 -18 462 -18 q 194 24 266 -18 q 79 137 121 66 q 37 294 37 209 q 78 450 37 379 q 190 563 119 522 q 347 605 261 605 m 346 461 q 245 429 288 461 q 190 344 203 397 l 490 344 q 440 429 478 397 q 346 461 402 461 z "},"f":{"ha":451,"x_min":35,"x_max":541,"o":"m 530 977 q 538 971 535 975 q 541 962 541 967 q 538 954 541 958 l 500 853 q 486 842 496 842 q 477 844 481 842 q 420 855 450 855 q 301 808 345 855 q 258 679 258 761 l 258 587 l 427 587 q 440 582 435 587 q 446 569 446 578 l 446 465 q 440 452 446 456 q 427 447 435 447 l 258 447 l 258 18 q 240 -1 258 -1 l 130 -1 q 111 18 111 -1 l 111 447 l 54 447 q 40 452 45 447 q 35 465 35 456 l 35 569 q 54 587 35 587 l 111 587 l 111 680 q 148 853 111 780 q 254 964 185 926 q 418 1003 323 1003 q 477 996 448 1003 q 530 977 506 989 z "},"g":{"ha":670,"x_min":61,"x_max":662,"o":"m 438 29 q 557 8 507 29 q 634 -54 607 -14 q 662 -149 662 -94 q 625 -267 662 -218 q 518 -342 587 -316 q 358 -368 450 -368 q 217 -357 289 -368 q 94 -326 144 -346 q 84 -316 87 -322 q 80 -304 80 -311 q 82 -294 80 -300 l 114 -215 q 122 -204 117 -208 q 134 -201 127 -201 q 142 -202 137 -201 q 243 -227 184 -218 q 358 -237 302 -237 q 484 -217 438 -237 q 530 -161 530 -197 q 508 -115 530 -129 q 438 -102 485 -102 l 262 -102 q 158 -82 203 -102 q 86 -25 112 -62 q 61 62 61 12 q 80 138 61 104 q 131 189 98 172 q 90 262 104 222 q 76 349 76 303 q 109 481 76 423 q 199 573 141 540 q 330 606 257 606 q 375 601 347 606 q 429 587 402 596 l 611 587 q 631 581 624 587 q 639 561 639 574 l 639 493 q 631 474 639 482 q 611 467 623 467 l 550 467 q 587 349 587 411 q 554 219 587 277 q 461 129 520 161 q 328 96 402 96 q 222 119 273 96 q 200 100 208 113 q 193 72 193 88 q 212 41 193 53 q 262 29 231 29 l 438 29 m 330 470 q 271 454 298 470 q 229 411 244 438 q 213 350 213 383 q 228 291 213 317 q 270 248 243 264 q 330 233 297 233 q 391 248 363 233 q 434 290 418 263 q 450 349 450 317 q 434 411 450 383 q 391 454 418 438 q 330 470 363 470 z "},"h":{"ha":712,"x_min":82,"x_max":641,"o":"m 404 606 q 530 573 477 606 q 612 480 584 541 q 641 338 641 420 l 641 19 q 636 5 641 10 q 621 -1 631 -1 l 513 -1 q 498 5 504 -1 q 493 19 493 10 l 493 340 q 476 403 493 374 q 429 448 458 431 q 365 465 399 465 q 297 447 328 465 q 248 399 266 430 q 229 330 229 368 l 229 18 q 210 -1 229 -1 l 100 -1 q 82 18 82 -1 l 82 974 q 100 991 82 991 l 210 991 q 229 974 229 991 l 229 526 q 308 585 262 564 q 404 606 353 606 z "},"i":{"ha":311,"x_min":64,"x_max":247,"o":"m 156 766 q 111 778 132 766 q 77 811 90 790 q 64 856 64 831 q 77 901 64 880 q 111 935 90 922 q 156 947 132 947 q 201 935 180 947 q 235 901 222 922 q 247 856 247 880 q 235 811 247 831 q 201 778 222 790 q 156 766 180 766 m 210 588 q 224 583 219 588 q 229 570 229 578 l 229 18 q 224 4 229 9 q 210 -1 219 -1 l 100 -1 q 82 18 82 -1 l 82 570 q 100 588 82 588 l 210 588 z "},"\u0131":{"ha":311,"x_min":82,"x_max":229,"o":"m 210 588 q 224 583 219 588 q 229 570 229 578 l 229 18 q 224 4 229 9 q 210 -1 219 -1 l 100 -1 q 82 18 82 -1 l 82 570 q 100 588 82 588 l 210 588 z "},"j":{"ha":311,"x_min":-61,"x_max":247,"o":"m 156 766 q 111 778 132 766 q 77 811 90 790 q 64 856 64 831 q 77 901 64 880 q 111 935 90 922 q 156 947 132 947 q 201 935 180 947 q 235 901 222 922 q 247 856 247 880 q 235 811 247 831 q 201 778 222 790 q 156 766 180 766 m 210 588 q 224 583 219 588 q 229 570 229 578 l 229 -37 q 159 -240 229 -169 q -38 -312 90 -312 l -42 -312 q -56 -307 -51 -312 q -61 -292 -61 -302 l -61 -188 q -45 -169 -61 -169 l -39 -169 q 49 -134 17 -169 q 82 -35 81 -98 l 82 570 q 100 588 82 588 l 210 588 z "},"\u0237":{"ha":311,"x_min":-61,"x_max":229,"o":"m 210 588 q 224 583 219 588 q 229 570 229 578 l 229 -37 q 159 -240 229 -169 q -38 -312 90 -312 l -42 -312 q -56 -307 -51 -312 q -61 -292 -61 -302 l -61 -188 q -45 -169 -61 -169 l -39 -169 q 49 -134 17 -169 q 82 -35 81 -98 l 82 570 q 100 588 82 588 l 210 588 z "},"k":{"ha":664,"x_min":82,"x_max":644,"o":"m 640 29 q 644 16 644 22 q 629 1 644 4 l 499 1 q 484 3 490 0 q 473 16 478 6 l 290 269 l 229 200 l 229 18 q 210 -1 229 -1 l 100 -1 q 82 18 82 -1 l 82 974 q 100 991 82 991 l 210 991 q 229 974 229 991 l 229 334 l 441 576 q 460 587 448 587 q 473 586 464 587 l 587 586 q 602 573 602 584 q 596 559 602 566 l 406 345 l 640 29 z "},"l":{"ha":311,"x_min":82,"x_max":229,"o":"m 210 991 q 229 974 229 991 l 229 18 q 210 -1 229 -1 l 100 -1 q 82 18 82 -1 l 82 974 q 100 991 82 991 l 210 991 z "},"m":{"ha":1056,"x_min":82,"x_max":985,"o":"m 768 606 q 885 574 836 606 q 959 483 934 543 q 985 339 985 422 l 985 19 q 980 4 985 9 q 966 -1 975 -1 l 857 -1 q 842 5 848 -1 q 837 19 837 10 l 837 340 q 823 406 837 377 q 785 449 809 434 q 730 465 760 465 q 666 449 694 465 q 622 403 637 433 q 606 334 606 374 l 606 19 q 601 5 606 10 q 586 -1 595 -1 l 477 -1 q 463 5 469 -1 q 458 19 458 10 l 458 340 q 444 406 458 378 q 406 449 430 434 q 350 465 381 465 q 287 447 315 465 q 244 399 259 430 q 229 330 229 369 l 229 19 q 210 -1 229 -1 l 101 -1 q 82 19 82 -1 l 82 569 q 87 583 82 578 q 102 588 92 588 l 188 588 q 207 576 204 588 l 218 515 q 292 582 248 558 q 388 606 336 606 q 503 576 454 606 q 577 489 551 546 q 654 574 603 543 q 768 606 705 606 z "},"n":{"ha":711,"x_min":82,"x_max":640,"o":"m 404 606 q 530 574 476 606 q 612 481 583 541 q 640 340 640 420 l 640 20 q 635 6 640 11 q 621 1 630 1 l 512 1 q 497 6 503 1 q 492 20 492 11 l 492 340 q 475 404 492 375 q 428 449 458 433 q 364 465 399 465 q 296 448 328 465 q 247 400 265 431 q 229 331 229 369 l 229 19 q 210 -1 229 -1 l 101 -1 q 82 19 82 -1 l 82 569 q 87 583 82 578 q 102 588 92 588 l 188 588 q 207 576 204 588 l 218 515 q 299 582 251 557 q 404 606 348 606 z "},"o":{"ha":705,"x_min":37,"x_max":669,"o":"m 37 293 q 79 450 37 378 q 194 563 121 522 q 353 605 267 605 q 512 563 439 605 q 627 450 585 522 q 669 293 669 378 q 626 136 669 208 q 512 23 584 65 q 353 -18 439 -18 q 194 23 267 -18 q 79 136 121 64 q 37 293 37 208 m 184 293 q 207 209 184 248 q 268 148 229 170 q 353 125 307 125 q 438 148 399 125 q 499 209 477 170 q 522 293 522 247 q 499 378 522 339 q 438 440 477 417 q 353 463 399 463 q 268 440 307 463 q 207 378 229 417 q 184 293 184 339 z "},"p":{"ha":745,"x_min":82,"x_max":709,"o":"m 427 606 q 572 565 507 606 q 672 453 636 524 q 709 294 709 382 q 672 134 709 205 q 572 22 636 63 q 427 -18 507 -18 q 315 6 366 -18 q 228 76 264 31 l 229 -272 q 224 -287 229 -281 q 210 -292 219 -292 l 100 -292 q 87 -286 92 -292 q 82 -272 82 -281 l 82 568 q 87 582 82 576 q 100 587 92 587 l 190 587 q 205 576 203 587 l 218 498 q 308 577 254 549 q 427 606 361 606 m 400 125 q 484 148 446 125 q 544 209 522 170 q 566 293 566 248 q 544 379 566 340 q 483 440 522 418 q 399 463 445 463 q 314 440 353 463 q 252 379 275 418 q 229 293 229 340 q 252 209 229 247 q 314 148 275 170 q 400 125 353 125 z "},"q":{"ha":746,"x_min":37,"x_max":664,"o":"m 644 588 q 659 583 653 588 q 664 568 664 577 l 664 -273 q 659 -287 664 -281 q 644 -292 653 -292 l 535 -292 q 521 -287 526 -292 q 516 -273 516 -281 l 517 76 q 430 6 481 31 q 318 -18 379 -18 q 174 22 238 -18 q 73 134 109 63 q 37 293 37 205 q 73 453 37 382 q 174 565 109 524 q 319 606 239 606 q 438 577 385 606 q 528 498 492 549 l 540 576 q 555 588 543 588 l 644 588 m 346 125 q 432 148 393 125 q 494 209 471 170 q 517 293 517 247 q 494 379 517 340 q 432 440 471 418 q 346 463 393 463 q 262 440 300 463 q 202 379 224 418 q 180 293 180 340 q 202 209 180 247 q 262 148 224 170 q 346 125 300 125 z "},"r":{"ha":560,"x_min":82,"x_max":555,"o":"m 548 551 q 555 538 555 547 q 551 526 555 532 l 500 448 q 485 439 495 439 q 475 442 479 439 l 471 446 q 427 469 452 461 q 378 476 401 476 q 303 457 337 476 q 249 404 269 437 q 229 332 229 371 l 229 19 q 210 -1 229 -1 l 101 -1 q 82 19 82 -1 l 82 569 q 87 583 82 578 q 102 588 92 588 l 188 588 q 207 576 204 588 l 219 509 q 299 580 250 554 q 400 606 347 606 q 483 592 444 606 q 548 551 522 578 z "},"s":{"ha":592,"x_min":48,"x_max":545,"o":"m 296 471 q 242 458 261 471 q 222 424 222 446 q 231 400 222 410 q 262 381 239 390 q 331 360 286 372 q 449 318 402 342 q 520 254 495 293 q 545 158 545 216 q 480 26 545 72 q 304 -19 416 -19 q 172 2 236 -19 q 62 50 107 24 q 48 68 48 57 q 53 83 48 76 l 96 159 q 115 172 104 172 q 130 168 122 172 q 304 118 226 118 q 378 129 353 118 q 404 165 404 140 q 378 204 404 189 q 296 234 352 220 q 177 275 222 252 q 107 336 132 298 q 83 433 83 374 q 109 519 83 479 q 182 583 134 559 q 296 607 230 607 q 413 589 355 607 q 511 548 471 572 q 526 528 526 540 q 521 513 526 521 l 477 439 q 457 426 469 426 q 450 427 455 426 q 375 458 416 445 q 296 471 334 471 z "},"t":{"ha":418,"x_min":15,"x_max":406,"o":"m 15 569 q 33 587 15 587 l 100 587 l 100 755 q 115 777 100 771 l 226 820 q 233 821 231 821 q 244 817 240 821 q 248 804 248 812 l 248 587 l 388 587 q 406 569 406 587 l 406 465 q 388 447 406 447 l 248 447 l 248 17 q 230 -1 248 -1 l 119 -1 q 105 3 110 -1 q 100 17 100 8 l 100 447 l 33 447 q 15 465 15 447 l 15 569 z "},"u":{"ha":711,"x_min":71,"x_max":629,"o":"m 610 587 q 629 568 629 587 l 629 18 q 624 4 629 9 q 610 -1 619 -1 l 523 -1 q 505 12 507 -1 l 493 72 q 412 5 460 29 q 308 -20 363 -20 q 182 13 235 -20 q 100 106 128 45 q 71 248 71 166 l 71 567 q 77 582 71 576 q 91 587 82 587 l 199 587 q 214 582 209 587 q 219 567 219 576 l 219 246 q 236 183 219 212 q 283 138 254 155 q 347 121 313 121 q 415 139 384 121 q 464 187 446 156 q 482 256 482 218 l 482 568 q 501 587 482 587 l 610 587 z "},"v":{"ha":626,"x_min":10,"x_max":616,"o":"m 600 588 q 611 584 606 588 q 616 573 616 580 q 614 565 616 569 l 380 16 q 369 4 377 9 q 353 -1 361 -1 l 273 -1 q 257 4 264 -1 q 246 16 249 9 l 12 565 q 10 573 10 569 q 15 584 10 580 q 26 588 20 588 l 144 588 q 160 583 153 588 q 170 571 167 578 l 313 184 l 456 571 q 466 583 459 578 q 481 588 473 588 l 600 588 z "},"w":{"ha":970,"x_min":10,"x_max":960,"o":"m 946 588 q 956 584 952 588 q 960 574 960 580 q 958 565 960 570 l 720 16 q 710 4 717 8 q 694 -1 703 -1 l 622 -1 q 607 4 614 -1 q 596 16 600 8 l 484 265 l 379 16 q 369 4 376 9 q 353 -1 361 -1 l 273 -1 q 257 4 264 -1 q 246 16 249 9 l 12 565 q 10 574 10 570 q 15 584 10 581 q 26 588 19 588 l 144 588 q 160 583 153 588 q 170 571 167 578 l 313 167 l 460 571 q 469 583 463 578 q 485 588 476 588 l 595 588 q 606 584 602 588 q 610 574 610 581 q 608 565 610 570 l 548 420 l 650 171 l 802 572 q 823 588 808 588 l 946 588 z "},"x":{"ha":629,"x_min":19,"x_max":610,"o":"m 600 42 q 610 17 610 27 q 583 -1 610 -1 l 471 -1 q 453 5 461 -1 q 440 19 444 10 l 315 201 l 189 19 q 177 5 185 10 q 159 -1 168 -1 l 47 -1 q 19 17 19 -1 q 30 42 19 27 l 231 308 l 41 558 q 33 575 33 569 q 55 587 33 587 l 167 587 q 184 582 176 587 q 198 568 193 577 l 315 410 l 431 568 q 446 582 437 577 q 463 587 454 587 l 574 587 q 596 575 596 587 q 589 558 596 569 l 399 308 l 600 42 z "},"y":{"ha":626,"x_min":10,"x_max":616,"o":"m 600 588 q 611 584 606 588 q 616 573 616 580 q 614 565 616 569 l 380 16 l 378 12 l 258 -273 q 235 -290 251 -290 l 134 -290 q 111 -274 111 -290 q 114 -259 111 -269 l 237 39 l 12 565 q 10 573 10 569 q 15 584 10 580 q 26 588 20 588 l 144 588 q 160 583 153 588 q 170 571 167 578 l 313 184 l 456 571 q 466 583 459 578 q 481 588 473 588 l 600 588 z "},"z":{"ha":564,"x_min":45,"x_max":528,"o":"m 508 135 q 523 129 517 135 q 528 114 528 123 l 528 21 q 523 6 528 12 q 508 0 517 0 l 73 0 q 53 7 62 0 q 45 24 45 14 l 45 81 q 46 96 45 90 q 54 111 48 102 l 317 452 l 82 452 q 67 458 73 452 q 61 473 61 465 l 61 566 q 67 581 61 575 q 82 587 73 587 l 498 587 q 512 581 507 587 q 515 566 517 575 l 516 496 q 513 487 515 492 q 509 480 513 485 l 250 135 l 508 135 z "},"\xe6":{"ha":1090,"x_min":42,"x_max":1057,"o":"m 760 605 q 912 563 844 605 q 1019 449 981 521 q 1055 293 1057 378 q 1036 249 1055 264 q 993 233 1018 233 l 608 233 q 669 148 626 181 q 766 115 712 115 q 891 161 825 115 q 903 165 899 165 q 918 157 911 165 q 939 128 925 146 q 967 87 956 104 q 972 73 972 81 q 965 60 972 66 q 764 -18 874 -18 q 643 5 701 -18 q 543 72 586 29 q 444 5 507 29 q 292 -19 382 -19 q 157 4 213 -19 q 71 70 100 27 q 42 170 42 112 q 96 294 42 250 q 245 338 150 338 l 445 338 l 445 372 q 413 445 445 423 q 323 466 380 466 q 244 455 284 466 q 168 428 203 445 q 151 425 159 425 q 132 435 138 425 l 94 515 q 92 526 92 522 q 111 554 92 543 q 209 592 151 578 q 323 606 267 606 q 452 583 395 606 q 544 519 509 561 q 642 583 587 560 q 760 605 697 605 m 758 461 q 658 429 701 461 q 602 344 615 397 l 903 344 q 852 429 890 397 q 758 461 814 461 m 288 117 q 402 146 359 117 q 445 229 445 176 l 445 232 l 277 232 q 211 221 232 232 q 189 181 189 210 q 217 131 189 146 q 288 117 245 117 z "},"\u0153":{"ha":1164,"x_min":37,"x_max":1131,"o":"m 834 605 q 987 563 919 605 q 1094 449 1056 521 q 1130 293 1131 378 q 1111 249 1129 264 q 1067 233 1093 233 l 682 233 q 744 148 701 181 q 841 115 787 115 q 966 161 899 115 q 979 165 973 165 q 992 157 986 165 l 1016 124 q 1042 87 1032 102 q 1046 74 1046 81 q 1040 60 1046 66 q 839 -18 949 -18 q 704 12 767 -18 q 597 94 641 41 q 489 12 553 41 q 353 -18 426 -18 q 194 23 267 -18 q 79 136 121 64 q 37 293 37 208 q 79 450 37 378 q 194 563 121 522 q 353 605 267 605 q 488 575 425 605 q 595 494 551 546 q 700 576 638 547 q 834 605 762 605 m 353 125 q 438 148 399 125 q 499 209 477 170 q 522 293 522 247 q 499 378 522 339 q 438 440 477 417 q 353 463 399 463 q 268 440 307 463 q 207 378 229 417 q 184 293 184 339 q 207 209 184 248 q 268 148 229 170 q 353 125 307 125 m 833 461 q 732 429 775 461 q 677 344 690 397 l 977 344 q 927 429 965 397 q 833 461 889 461 z "},"\xf0":{"ha":705,"x_min":37,"x_max":669,"o":"m 480 853 q 622 606 575 745 q 669 293 669 467 q 626 136 669 208 q 512 23 584 65 q 353 -18 439 -18 q 194 23 267 -18 q 79 136 121 64 q 37 293 37 208 q 79 450 37 378 q 194 563 121 522 q 353 605 267 605 q 468 584 413 605 q 374 755 436 681 l 313 699 q 301 693 307 693 q 287 701 294 693 l 268 719 q 262 732 262 724 q 269 745 262 739 l 330 801 q 258 857 299 831 q 245 867 250 860 q 240 882 240 875 q 243 891 240 886 l 295 982 q 311 991 300 991 q 328 986 319 991 q 436 899 389 945 l 487 946 q 500 952 493 952 q 513 945 507 952 l 532 927 q 538 913 538 921 q 532 901 538 907 l 480 853 m 353 125 q 438 148 399 125 q 499 209 477 170 q 522 293 522 247 q 499 378 522 339 q 438 440 477 417 q 353 463 399 463 q 268 440 307 463 q 207 378 229 417 q 184 293 184 339 q 207 209 184 248 q 268 148 229 170 q 353 125 307 125 z "},"\xfe":{"ha":745,"x_min":82,"x_max":709,"o":"m 427 606 q 572 565 507 606 q 672 453 636 524 q 709 293 709 381 q 672 134 709 205 q 572 22 636 63 q 427 -18 507 -18 q 315 6 366 -18 q 227 77 263 31 l 227 -273 q 222 -288 227 -283 q 208 -293 217 -293 l 101 -293 q 87 -288 92 -293 q 82 -273 82 -282 l 82 972 q 87 986 82 981 q 101 991 92 991 l 208 991 q 227 972 227 991 l 227 511 q 314 581 263 556 q 427 606 366 606 m 400 125 q 484 148 446 125 q 544 209 522 170 q 566 293 566 247 q 544 379 566 340 q 483 440 522 418 q 399 463 445 463 q 314 440 353 463 q 252 379 275 418 q 229 293 229 340 q 252 209 229 247 q 314 148 275 170 q 400 125 353 125 z "},"\xdf":{"ha":719,"x_min":82,"x_max":690,"o":"m 481 272 q 589 233 541 266 q 663 146 636 199 q 690 28 690 93 q 655 -105 690 -45 q 565 -197 621 -164 q 444 -231 508 -231 q 347 -214 394 -231 q 260 -169 300 -197 q 252 -153 252 -163 q 256 -142 252 -148 l 316 -52 q 332 -43 321 -43 q 344 -47 339 -43 q 384 -67 361 -59 q 424 -76 407 -76 q 477 -62 453 -76 q 515 -24 501 -48 q 530 28 530 -1 q 502 104 530 76 q 429 133 474 133 q 318 127 365 133 q 303 132 309 126 q 296 146 297 137 l 294 237 q 299 250 294 244 l 449 450 l 229 449 l 229 20 q 224 5 229 11 q 213 -1 220 -1 l 102 -1 q 87 6 93 -1 q 82 22 82 12 l 82 725 q 121 867 82 803 q 225 969 159 932 q 371 1006 292 1006 q 384 1000 378 1006 q 389 987 389 995 l 389 887 q 384 874 389 879 q 371 869 378 869 q 300 850 332 869 q 249 799 268 831 q 229 725 229 766 l 229 587 l 616 587 q 645 574 633 587 q 658 545 658 562 q 650 522 658 532 l 467 273 l 481 272 z "},"\xc1":{"ha":970,"x_min":26,"x_max":940,"o":"m 937 28 q 940 17 940 20 q 934 3 940 8 q 918 -1 928 -1 l 804 -1 q 786 5 794 -1 q 775 21 779 11 l 701 215 l 264 215 l 191 22 q 179 5 188 12 q 161 -1 171 -1 l 48 -1 q 26 16 26 -1 q 29 28 26 22 l 410 968 q 423 985 414 979 q 441 991 431 991 l 526 991 q 544 985 536 991 q 556 968 553 979 l 937 28 m 652 346 l 483 790 l 314 346 l 652 346 m 429 1065 q 408 1061 416 1061 q 391 1072 396 1061 l 379 1096 q 375 1112 375 1104 q 388 1131 375 1124 l 590 1232 q 610 1238 602 1238 q 629 1226 623 1238 l 648 1193 q 651 1179 651 1186 q 647 1166 651 1173 q 636 1158 644 1160 l 429 1065 z "},"\u0102":{"ha":970,"x_min":26,"x_max":940,"o":"m 937 28 q 940 17 940 20 q 934 3 940 8 q 918 -1 928 -1 l 804 -1 q 786 5 794 -1 q 775 21 779 11 l 701 215 l 264 215 l 191 22 q 179 5 188 12 q 161 -1 171 -1 l 48 -1 q 26 16 26 -1 q 29 28 26 22 l 410 968 q 423 985 414 979 q 441 991 431 991 l 526 991 q 544 985 536 991 q 556 968 553 979 l 937 28 m 652 346 l 483 790 l 314 346 l 652 346 m 481 1053 q 372 1089 412 1053 q 333 1188 333 1125 q 339 1205 333 1199 q 355 1212 345 1212 l 387 1212 q 405 1205 398 1212 q 412 1185 412 1198 q 430 1142 412 1158 q 481 1126 448 1126 q 530 1142 512 1126 q 548 1186 548 1158 q 554 1205 548 1198 q 572 1212 561 1212 l 604 1212 q 620 1206 614 1212 q 626 1188 626 1200 q 587 1089 626 1125 q 481 1053 549 1053 z "},"\xc2":{"ha":970,"x_min":26,"x_max":940,"o":"m 937 28 q 940 17 940 20 q 934 3 940 8 q 918 -1 928 -1 l 804 -1 q 786 5 794 -1 q 775 21 779 11 l 701 215 l 264 215 l 191 22 q 179 5 188 12 q 161 -1 171 -1 l 48 -1 q 26 16 26 -1 q 29 28 26 22 l 410 968 q 423 985 414 979 q 441 991 431 991 l 526 991 q 544 985 536 991 q 556 968 553 979 l 937 28 m 652 346 l 483 790 l 314 346 l 652 346 m 462 1228 q 477 1235 471 1235 q 492 1228 485 1235 l 643 1105 q 652 1089 652 1099 q 648 1077 652 1083 l 630 1053 q 615 1046 624 1046 q 596 1053 605 1046 l 477 1145 l 358 1053 q 340 1046 349 1046 q 325 1053 330 1046 l 307 1078 q 302 1091 302 1086 q 305 1100 302 1096 q 313 1107 308 1103 l 462 1228 z "},"\xc4":{"ha":970,"x_min":26,"x_max":940,"o":"m 937 28 q 940 17 940 20 q 934 3 940 8 q 918 -1 928 -1 l 804 -1 q 786 5 794 -1 q 775 21 779 11 l 701 215 l 264 215 l 191 22 q 179 5 188 12 q 161 -1 171 -1 l 48 -1 q 26 16 26 -1 q 29 28 26 22 l 410 968 q 423 985 414 979 q 441 991 431 991 l 526 991 q 544 985 536 991 q 556 968 553 979 l 937 28 m 652 346 l 483 790 l 314 346 l 652 346 m 393 1081 q 350 1098 368 1081 q 332 1141 332 1116 q 350 1183 332 1166 q 393 1200 368 1200 q 434 1183 417 1200 q 452 1141 452 1166 q 434 1098 452 1116 q 393 1081 417 1081 m 570 1081 q 527 1098 545 1081 q 509 1141 509 1116 q 527 1183 509 1166 q 570 1200 545 1200 q 612 1183 594 1200 q 629 1141 629 1166 q 612 1098 629 1116 q 570 1081 594 1081 z "},"\u1ea0":{"ha":970,"x_min":26,"x_max":940,"o":"m 937 28 q 940 17 940 20 q 934 3 940 8 q 918 -1 928 -1 l 804 -1 q 786 5 794 -1 q 775 21 779 11 l 701 215 l 264 215 l 191 22 q 179 5 188 12 q 161 -1 171 -1 l 48 -1 q 26 16 26 -1 q 29 28 26 22 l 410 968 q 423 985 414 979 q 441 991 431 991 l 526 991 q 544 985 536 991 q 556 968 553 979 l 937 28 m 652 346 l 483 790 l 314 346 l 652 346 m 481 -254 q 433 -235 453 -254 q 414 -187 414 -215 q 433 -141 414 -160 q 481 -121 453 -121 q 528 -141 509 -121 q 547 -187 547 -160 q 528 -235 547 -215 q 481 -254 509 -254 z "},"\xc0":{"ha":970,"x_min":26,"x_max":940,"o":"m 937 28 q 940 17 940 20 q 934 3 940 8 q 918 -1 928 -1 l 804 -1 q 786 5 794 -1 q 775 21 779 11 l 701 215 l 264 215 l 191 22 q 179 5 188 12 q 161 -1 171 -1 l 48 -1 q 26 16 26 -1 q 29 28 26 22 l 410 968 q 423 985 414 979 q 441 991 431 991 l 526 991 q 544 985 536 991 q 556 968 553 979 l 937 28 m 652 346 l 483 790 l 314 346 l 652 346 m 319 1158 q 308 1166 312 1160 q 304 1179 304 1173 q 308 1193 304 1186 l 326 1226 q 345 1238 332 1238 q 366 1232 353 1238 l 568 1131 q 581 1112 581 1124 q 576 1096 581 1104 l 565 1072 q 547 1061 559 1061 q 527 1065 540 1061 l 319 1158 z "},"\u0100":{"ha":970,"x_min":26,"x_max":940,"o":"m 937 28 q 940 17 940 20 q 934 3 940 8 q 918 -1 928 -1 l 804 -1 q 786 5 794 -1 q 775 21 779 11 l 701 215 l 264 215 l 191 22 q 179 5 188 12 q 161 -1 171 -1 l 48 -1 q 26 16 26 -1 q 29 28 26 22 l 410 968 q 423 985 414 979 q 441 991 431 991 l 526 991 q 544 985 536 991 q 556 968 553 979 l 937 28 m 652 346 l 483 790 l 314 346 l 652 346 z "},"\u0104":{"ha":969,"x_min":26,"x_max":1017,"o":"m 1016 -275 q 1014 -288 1017 -282 q 1002 -296 1010 -294 q 949 -309 978 -305 q 895 -313 920 -313 q 771 -273 817 -313 q 726 -161 726 -233 q 751 -72 726 -114 q 819 -1 776 -29 l 804 -1 q 786 5 794 -1 q 775 21 779 11 l 701 215 l 264 215 l 191 22 q 179 5 188 12 q 161 -1 171 -1 l 48 -1 q 26 16 26 -1 q 29 28 26 22 l 410 968 q 423 985 414 979 q 441 991 431 991 l 526 991 q 544 985 536 991 q 556 968 553 979 l 937 28 q 940 17 940 20 q 927 0 940 4 q 839 -71 871 -30 q 806 -154 806 -112 q 832 -213 806 -191 q 901 -234 857 -234 q 943 -230 920 -234 q 987 -218 966 -226 q 995 -217 992 -217 q 1010 -229 1008 -217 l 1016 -275 m 652 346 l 483 790 l 314 346 l 652 346 z "},"\xc5":{"ha":970,"x_min":26,"x_max":940,"o":"m 937 28 q 940 17 940 20 q 934 3 940 8 q 918 -1 928 -1 l 804 -1 q 786 5 794 -1 q 775 21 779 11 l 701 215 l 264 215 l 191 22 q 179 5 188 12 q 161 -1 171 -1 l 48 -1 q 26 16 26 -1 q 29 28 26 22 l 410 968 q 423 985 414 979 q 441 991 431 991 l 526 991 q 544 985 536 991 q 556 968 553 979 l 937 28 m 652 346 l 483 790 l 314 346 l 652 346 m 481 1326 q 553 1308 521 1326 q 605 1257 586 1289 q 624 1185 624 1225 q 605 1114 624 1146 q 553 1063 586 1082 q 481 1044 521 1044 q 410 1063 443 1044 q 359 1114 378 1082 q 340 1185 340 1146 q 359 1257 340 1225 q 410 1308 378 1289 q 481 1326 443 1326 m 482 1263 q 428 1240 450 1263 q 405 1185 405 1217 q 428 1131 405 1154 q 482 1109 450 1109 q 537 1131 515 1109 q 559 1185 559 1154 q 537 1240 559 1217 q 482 1263 515 1263 z "},"\u01fa":{"ha":970,"x_min":26,"x_max":940,"o":"m 937 28 q 940 17 940 20 q 934 3 940 8 q 918 -1 928 -1 l 804 -1 q 786 5 794 -1 q 775 21 779 11 l 701 215 l 264 215 l 191 22 q 179 5 188 12 q 161 -1 171 -1 l 48 -1 q 26 16 26 -1 q 29 28 26 22 l 410 968 q 423 985 414 979 q 441 991 431 991 l 526 991 q 544 985 536 991 q 556 968 553 979 l 937 28 m 652 346 l 483 790 l 314 346 l 652 346 m 481 1326 q 553 1308 521 1326 q 605 1257 586 1289 q 624 1185 624 1225 q 605 1114 624 1146 q 553 1063 586 1082 q 481 1044 521 1044 q 410 1063 443 1044 q 359 1114 378 1082 q 340 1185 340 1146 q 359 1257 340 1225 q 410 1308 378 1289 q 481 1326 443 1326 m 482 1263 q 428 1240 450 1263 q 405 1185 405 1217 q 428 1131 405 1154 q 482 1109 450 1109 q 537 1131 515 1109 q 559 1185 559 1154 q 537 1240 559 1217 q 482 1263 515 1263 m 408 1343 q 388 1339 395 1339 q 370 1350 376 1339 l 359 1374 q 355 1390 355 1382 q 368 1409 355 1402 l 570 1510 q 590 1516 582 1516 q 609 1504 603 1516 l 627 1471 q 631 1457 631 1464 q 627 1444 631 1451 q 616 1436 623 1438 l 408 1343 z "},"\xc3":{"ha":970,"x_min":26,"x_max":940,"o":"m 937 28 q 940 17 940 20 q 934 3 940 8 q 918 -1 928 -1 l 804 -1 q 786 5 794 -1 q 775 21 779 11 l 701 215 l 264 215 l 191 22 q 179 5 188 12 q 161 -1 171 -1 l 48 -1 q 26 16 26 -1 q 29 28 26 22 l 410 968 q 423 985 414 979 q 441 991 431 991 l 526 991 q 544 985 536 991 q 556 968 553 979 l 937 28 m 652 346 l 483 790 l 314 346 l 652 346 m 322 1075 q 315 1090 315 1082 q 324 1110 315 1099 q 369 1152 347 1139 q 420 1164 391 1164 q 449 1158 433 1164 q 491 1136 465 1152 q 519 1120 509 1124 q 537 1116 530 1116 q 561 1123 551 1116 q 587 1148 571 1129 q 603 1158 594 1158 q 617 1150 610 1158 l 639 1128 q 644 1117 644 1123 q 640 1106 644 1112 q 591 1058 615 1072 q 537 1044 568 1044 q 509 1050 524 1044 q 469 1071 493 1056 q 440 1086 450 1082 q 420 1090 429 1090 q 394 1083 405 1090 q 367 1055 382 1076 q 356 1049 363 1049 q 338 1059 348 1049 l 322 1075 z "},"\u01fc":{"ha":1499,"x_min":26,"x_max":1445,"o":"m 1444 26 q 1437 7 1445 14 q 1417 0 1430 0 l 777 0 q 751 26 751 0 l 751 218 l 355 218 l 210 21 q 195 5 202 10 q 178 0 188 0 l 47 0 q 32 5 37 0 q 26 19 26 11 q 33 37 26 28 l 731 969 q 746 986 740 981 q 764 991 753 991 l 1404 991 q 1424 984 1417 991 q 1431 966 1431 978 l 1431 875 q 1424 856 1431 863 q 1404 849 1417 849 l 905 849 l 905 573 l 1302 573 q 1323 567 1316 573 q 1331 548 1331 560 l 1331 457 q 1323 439 1331 446 q 1302 432 1316 432 l 905 432 l 905 142 l 1409 142 q 1435 134 1426 142 q 1445 111 1445 126 l 1444 26 m 751 345 l 751 757 l 448 345 l 751 345 m 1055 1065 q 1034 1060 1042 1060 q 1017 1072 1022 1060 l 1005 1095 q 1001 1111 1001 1103 q 1014 1130 1001 1124 l 1216 1232 q 1236 1237 1228 1237 q 1255 1225 1249 1237 l 1274 1192 q 1277 1179 1277 1185 q 1273 1166 1277 1172 q 1262 1157 1270 1160 l 1055 1065 z "},"\u0106":{"ha":951,"x_min":50,"x_max":886,"o":"m 783 209 q 804 216 793 216 q 822 208 816 216 l 882 121 q 884 112 884 117 q 881 99 884 105 q 870 87 877 92 q 729 10 812 39 q 568 -18 646 -18 q 307 50 426 -18 q 119 236 188 119 q 50 494 50 353 q 119 752 50 635 q 307 939 188 870 q 568 1007 426 1007 q 726 978 643 1007 q 873 901 809 949 q 886 878 886 890 q 883 867 886 871 l 822 781 q 805 772 817 772 q 785 780 795 772 q 678 838 735 817 q 568 859 621 859 q 384 810 467 859 q 252 678 300 762 q 203 494 203 594 q 252 311 203 394 q 384 179 300 227 q 568 130 468 130 q 678 151 621 130 q 783 209 735 172 m 518 1080 q 498 1076 505 1076 q 480 1087 486 1076 l 469 1111 q 465 1126 465 1119 q 477 1145 465 1139 l 680 1247 q 700 1253 692 1253 q 719 1241 713 1253 l 737 1208 q 741 1194 741 1201 q 737 1181 741 1187 q 726 1173 733 1175 l 518 1080 z "},"\u010c":{"ha":951,"x_min":50,"x_max":886,"o":"m 783 209 q 804 216 793 216 q 822 208 816 216 l 882 121 q 884 112 884 117 q 881 99 884 105 q 870 87 877 92 q 729 10 812 39 q 568 -18 646 -18 q 307 50 426 -18 q 119 236 188 119 q 50 494 50 353 q 119 752 50 635 q 307 939 188 870 q 568 1007 426 1007 q 726 978 643 1007 q 873 901 809 949 q 886 878 886 890 q 883 867 886 871 l 822 781 q 805 772 817 772 q 785 780 795 772 q 678 838 735 817 q 568 859 621 859 q 384 810 467 859 q 252 678 300 762 q 203 494 203 594 q 252 311 203 394 q 384 179 300 227 q 568 130 468 130 q 678 151 621 130 q 783 209 735 172 m 403 1184 q 394 1192 397 1188 q 391 1200 391 1196 q 397 1213 391 1206 l 414 1238 q 429 1246 419 1246 q 448 1239 439 1246 l 566 1147 l 686 1239 q 705 1246 694 1246 q 720 1239 713 1246 l 737 1215 q 741 1203 741 1210 q 732 1186 741 1193 l 581 1063 q 566 1057 574 1057 q 551 1063 560 1057 l 403 1184 z "},"\xc7":{"ha":951,"x_min":50,"x_max":886,"o":"m 882 121 q 884 112 884 117 q 881 99 884 105 q 870 87 877 92 q 747 17 819 45 q 602 -17 675 -11 l 593 -103 q 644 -122 626 -103 q 663 -175 663 -141 q 661 -193 663 -181 l 657 -230 q 617 -310 652 -281 q 528 -340 583 -340 l 461 -340 q 453 -336 456 -340 q 451 -327 450 -333 l 457 -273 q 471 -262 457 -262 l 538 -262 q 566 -253 555 -262 q 579 -229 577 -244 l 583 -193 q 584 -186 584 -191 q 574 -165 584 -173 q 547 -157 564 -157 l 521 -157 q 512 -154 515 -157 q 509 -145 509 -151 l 524 -16 q 283 64 392 -6 q 112 247 175 134 q 50 494 50 360 q 119 752 50 635 q 307 939 188 870 q 568 1007 426 1007 q 726 978 643 1007 q 873 901 809 949 q 886 878 886 890 q 883 867 886 871 l 822 781 q 805 772 817 772 q 785 780 795 772 q 678 838 735 817 q 568 859 621 859 q 384 810 467 859 q 252 678 300 762 q 203 494 203 594 q 252 311 203 394 q 384 179 300 227 q 568 130 468 130 q 678 151 621 130 q 783 209 735 172 q 804 216 793 216 q 822 208 816 216 l 882 121 z "},"\u0108":{"ha":951,"x_min":50,"x_max":886,"o":"m 783 209 q 804 216 793 216 q 822 208 816 216 l 882 121 q 884 112 884 117 q 881 99 884 105 q 870 87 877 92 q 729 10 812 39 q 568 -18 646 -18 q 307 50 426 -18 q 119 236 188 119 q 50 494 50 353 q 119 752 50 635 q 307 939 188 870 q 568 1007 426 1007 q 726 978 643 1007 q 873 901 809 949 q 886 878 886 890 q 883 867 886 871 l 822 781 q 805 772 817 772 q 785 780 795 772 q 678 838 735 817 q 568 859 621 859 q 384 810 467 859 q 252 678 300 762 q 203 494 203 594 q 252 311 203 394 q 384 179 300 227 q 568 130 468 130 q 678 151 621 130 q 783 209 735 172 m 551 1244 q 566 1251 560 1251 q 581 1244 574 1251 l 732 1121 q 741 1105 741 1114 q 737 1093 741 1099 l 720 1068 q 705 1061 713 1061 q 686 1068 694 1061 l 566 1160 l 448 1068 q 429 1061 439 1061 q 414 1069 420 1061 l 397 1094 q 391 1107 391 1101 q 394 1115 391 1112 q 403 1123 397 1119 l 551 1244 z "},"\u010a":{"ha":951,"x_min":50,"x_max":886,"o":"m 783 209 q 804 216 793 216 q 822 208 816 216 l 882 121 q 884 112 884 117 q 881 99 884 105 q 870 87 877 92 q 729 10 812 39 q 568 -18 646 -18 q 307 50 426 -18 q 119 236 188 119 q 50 494 50 353 q 119 752 50 635 q 307 939 188 870 q 568 1007 426 1007 q 726 978 643 1007 q 873 901 809 949 q 886 878 886 890 q 883 867 886 871 l 822 781 q 805 772 817 772 q 785 780 795 772 q 678 838 735 817 q 568 859 621 859 q 384 810 467 859 q 252 678 300 762 q 203 494 203 594 q 252 311 203 394 q 384 179 300 227 q 568 130 468 130 q 678 151 621 130 q 783 209 735 172 m 567 1100 q 519 1120 539 1100 q 500 1167 500 1139 q 519 1214 500 1194 q 567 1233 539 1233 q 614 1214 595 1233 q 633 1167 633 1194 q 614 1120 633 1139 q 567 1100 595 1100 z "},"\u010e":{"ha":968,"x_min":110,"x_max":919,"o":"m 110 965 q 117 984 110 977 q 135 991 123 991 l 412 991 q 672 926 556 991 q 853 749 787 862 q 919 494 919 635 q 853 242 919 355 q 671 64 787 129 q 412 0 555 0 l 135 0 q 117 7 123 0 q 110 26 110 14 l 110 965 m 411 146 q 591 192 510 146 q 719 319 673 239 q 766 494 766 399 q 719 673 766 593 q 592 801 673 754 q 411 847 511 847 l 262 847 l 262 146 l 411 146 m 173 1168 q 164 1176 168 1172 q 161 1184 161 1179 q 167 1197 161 1190 l 184 1222 q 199 1230 189 1230 q 218 1223 209 1230 l 336 1131 l 456 1223 q 475 1230 465 1230 q 490 1223 484 1230 l 507 1198 q 511 1187 511 1194 q 503 1170 511 1177 l 351 1047 q 336 1040 345 1040 q 321 1047 330 1040 l 173 1168 z "},"\u0110":{"ha":968,"x_min":33,"x_max":919,"o":"m 412 991 q 672 926 556 991 q 853 749 787 862 q 919 494 919 635 q 853 242 919 355 q 671 64 787 129 q 412 0 555 0 l 135 0 q 117 7 123 0 q 110 26 110 14 l 110 460 l 52 460 q 33 479 33 460 l 33 505 q 52 524 33 524 l 110 524 l 110 965 q 117 984 110 977 q 135 991 123 991 l 412 991 m 411 146 q 591 192 510 146 q 719 319 673 239 q 766 494 766 399 q 719 673 766 593 q 592 801 673 754 q 411 847 511 847 l 262 847 l 262 524 l 396 524 q 415 505 415 524 l 415 479 q 396 460 415 460 l 262 460 l 262 146 l 411 146 z "},"\xc9":{"ha":858,"x_min":110,"x_max":803,"o":"m 110 966 q 136 991 110 991 l 762 991 q 782 984 774 991 q 789 966 789 978 l 789 875 q 782 856 789 863 q 762 849 774 849 l 262 849 l 262 573 l 660 573 q 682 567 674 573 q 690 548 690 560 l 690 457 q 682 439 690 446 q 660 432 673 432 l 262 432 l 262 142 l 768 142 q 793 134 784 142 q 803 111 803 126 l 802 26 q 795 7 803 14 q 775 0 787 0 l 136 0 q 110 26 110 0 l 110 966 m 412 1065 q 392 1060 399 1060 q 374 1072 380 1060 l 363 1095 q 359 1111 359 1103 q 372 1130 359 1124 l 574 1232 q 594 1237 586 1237 q 613 1225 607 1237 l 631 1192 q 635 1179 635 1185 q 631 1166 635 1172 q 620 1157 627 1160 l 412 1065 z "},"\u0114":{"ha":858,"x_min":110,"x_max":803,"o":"m 110 966 q 136 991 110 991 l 762 991 q 782 984 774 991 q 789 966 789 978 l 789 875 q 782 856 789 863 q 762 849 774 849 l 262 849 l 262 573 l 660 573 q 682 567 674 573 q 690 548 690 560 l 690 457 q 682 439 690 446 q 660 432 673 432 l 262 432 l 262 142 l 768 142 q 793 134 784 142 q 803 111 803 126 l 802 26 q 795 7 803 14 q 775 0 787 0 l 136 0 q 110 26 110 0 l 110 966 m 464 1053 q 355 1088 395 1053 q 316 1187 316 1124 q 322 1205 316 1198 q 338 1211 328 1211 l 370 1211 q 388 1204 381 1211 q 395 1185 395 1197 q 413 1141 395 1157 q 464 1125 431 1125 q 513 1141 495 1125 q 531 1185 531 1158 q 537 1204 531 1198 q 555 1211 544 1211 l 587 1211 q 603 1205 597 1211 q 609 1187 609 1199 q 570 1088 609 1124 q 464 1053 532 1053 z "},"\u011a":{"ha":858,"x_min":110,"x_max":803,"o":"m 110 966 q 136 991 110 991 l 762 991 q 782 984 774 991 q 789 966 789 978 l 789 875 q 782 856 789 863 q 762 849 774 849 l 262 849 l 262 573 l 660 573 q 682 567 674 573 q 690 548 690 560 l 690 457 q 682 439 690 446 q 660 432 673 432 l 262 432 l 262 142 l 768 142 q 793 134 784 142 q 803 111 803 126 l 802 26 q 795 7 803 14 q 775 0 787 0 l 136 0 q 110 26 110 0 l 110 966 m 297 1168 q 289 1176 292 1172 q 286 1184 286 1179 q 291 1197 286 1190 l 309 1222 q 323 1230 313 1230 q 342 1223 333 1230 l 460 1131 l 580 1223 q 599 1230 589 1230 q 614 1223 608 1230 l 631 1198 q 635 1187 635 1194 q 627 1170 635 1177 l 475 1047 q 460 1040 469 1040 q 446 1047 454 1040 l 297 1168 z "},"\xca":{"ha":858,"x_min":110,"x_max":803,"o":"m 110 966 q 136 991 110 991 l 762 991 q 782 984 774 991 q 789 966 789 978 l 789 875 q 782 856 789 863 q 762 849 774 849 l 262 849 l 262 573 l 660 573 q 682 567 674 573 q 690 548 690 560 l 690 457 q 682 439 690 446 q 660 432 673 432 l 262 432 l 262 142 l 768 142 q 793 134 784 142 q 803 111 803 126 l 802 26 q 795 7 803 14 q 775 0 787 0 l 136 0 q 110 26 110 0 l 110 966 m 446 1227 q 460 1234 454 1234 q 475 1227 469 1234 l 627 1105 q 635 1088 635 1098 q 631 1076 635 1082 l 614 1052 q 599 1045 608 1045 q 580 1052 589 1045 l 460 1144 l 342 1052 q 323 1045 333 1045 q 309 1053 314 1045 l 291 1078 q 286 1090 286 1085 q 289 1099 286 1095 q 297 1107 292 1103 l 446 1227 z "},"\xcb":{"ha":858,"x_min":110,"x_max":803,"o":"m 110 966 q 136 991 110 991 l 762 991 q 782 984 774 991 q 789 966 789 978 l 789 875 q 782 856 789 863 q 762 849 774 849 l 262 849 l 262 573 l 660 573 q 682 567 674 573 q 690 548 690 560 l 690 457 q 682 439 690 446 q 660 432 673 432 l 262 432 l 262 142 l 768 142 q 793 134 784 142 q 803 111 803 126 l 802 26 q 795 7 803 14 q 775 0 787 0 l 136 0 q 110 26 110 0 l 110 966 m 376 1080 q 333 1097 351 1080 q 315 1139 315 1114 q 333 1182 315 1164 q 376 1199 351 1199 q 417 1182 400 1199 q 435 1139 435 1164 q 417 1097 435 1114 q 376 1080 400 1080 m 553 1080 q 510 1097 528 1080 q 492 1139 492 1114 q 510 1182 492 1164 q 553 1199 528 1199 q 595 1182 577 1199 q 612 1139 612 1164 q 595 1097 612 1114 q 553 1080 577 1080 z "},"\u0116":{"ha":858,"x_min":110,"x_max":803,"o":"m 110 966 q 136 991 110 991 l 762 991 q 782 984 774 991 q 789 966 789 978 l 789 875 q 782 856 789 863 q 762 849 774 849 l 262 849 l 262 573 l 660 573 q 682 567 674 573 q 690 548 690 560 l 690 457 q 682 439 690 446 q 660 432 673 432 l 262 432 l 262 142 l 768 142 q 793 134 784 142 q 803 111 803 126 l 802 26 q 795 7 803 14 q 775 0 787 0 l 136 0 q 110 26 110 0 l 110 966 m 461 1084 q 414 1103 433 1084 q 394 1151 394 1123 q 414 1197 394 1178 q 461 1217 433 1217 q 508 1197 489 1217 q 528 1151 528 1178 q 508 1103 528 1123 q 461 1084 489 1084 z "},"\u1eb8":{"ha":858,"x_min":110,"x_max":803,"o":"m 110 966 q 136 991 110 991 l 762 991 q 782 984 774 991 q 789 966 789 978 l 789 875 q 782 856 789 863 q 762 849 774 849 l 262 849 l 262 573 l 660 573 q 682 567 674 573 q 690 548 690 560 l 690 457 q 682 439 690 446 q 660 432 673 432 l 262 432 l 262 142 l 768 142 q 793 134 784 142 q 803 111 803 126 l 802 26 q 795 7 803 14 q 775 0 787 0 l 136 0 q 110 26 110 0 l 110 966 m 463 -245 q 415 -226 435 -245 q 395 -178 395 -206 q 415 -132 395 -151 q 463 -113 435 -113 q 510 -132 490 -113 q 529 -178 529 -151 q 510 -226 529 -206 q 463 -245 490 -245 z "},"\xc8":{"ha":858,"x_min":110,"x_max":803,"o":"m 110 966 q 136 991 110 991 l 762 991 q 782 984 774 991 q 789 966 789 978 l 789 875 q 782 856 789 863 q 762 849 774 849 l 262 849 l 262 573 l 660 573 q 682 567 674 573 q 690 548 690 560 l 690 457 q 682 439 690 446 q 660 432 673 432 l 262 432 l 262 142 l 768 142 q 793 134 784 142 q 803 111 803 126 l 802 26 q 795 7 803 14 q 775 0 787 0 l 136 0 q 110 26 110 0 l 110 966 m 303 1157 q 292 1166 296 1160 q 288 1179 288 1172 q 292 1192 288 1185 l 310 1225 q 329 1237 315 1237 q 349 1232 337 1237 l 551 1130 q 564 1111 564 1124 q 560 1095 564 1103 l 549 1072 q 531 1060 543 1060 q 511 1065 524 1060 l 303 1157 z "},"\u0112":{"ha":858,"x_min":110,"x_max":803,"o":"m 110 966 q 136 991 110 991 l 762 991 q 782 984 774 991 q 789 966 789 978 l 789 875 q 782 856 789 863 q 762 849 774 849 l 262 849 l 262 573 l 660 573 q 682 567 674 573 q 690 548 690 560 l 690 457 q 682 439 690 446 q 660 432 673 432 l 262 432 l 262 142 l 768 142 q 793 134 784 142 q 803 111 803 126 l 802 26 q 795 7 803 14 q 775 0 787 0 l 136 0 q 110 26 110 0 l 110 966 z "},"\u0118":{"ha":858,"x_min":110,"x_max":878,"o":"m 877 -272 q 874 -286 878 -279 q 863 -294 871 -292 q 810 -307 839 -302 q 756 -311 782 -311 q 632 -271 677 -311 q 587 -159 587 -231 q 612 -70 587 -112 q 679 0 636 -28 l 136 0 q 110 26 110 0 l 110 966 q 136 991 110 991 l 762 991 q 782 984 774 991 q 789 966 789 978 l 789 875 q 782 856 789 863 q 762 849 774 849 l 262 849 l 262 573 l 660 573 q 682 567 674 573 q 690 548 690 560 l 690 457 q 682 439 690 446 q 660 432 673 432 l 262 432 l 262 142 l 768 142 q 793 134 784 142 q 803 111 803 126 l 802 26 l 802 24 q 793 5 802 11 q 787 2 789 3 q 699 -69 730 -28 q 667 -152 667 -110 q 693 -210 667 -189 q 762 -231 718 -231 q 848 -216 806 -231 l 856 -215 q 871 -227 869 -215 l 877 -272 z "},"\u1ebc":{"ha":858,"x_min":110,"x_max":803,"o":"m 110 966 q 136 991 110 991 l 762 991 q 782 984 774 991 q 789 966 789 978 l 789 875 q 782 856 789 863 q 762 849 774 849 l 262 849 l 262 573 l 660 573 q 682 567 674 573 q 690 548 690 560 l 690 457 q 682 439 690 446 q 660 432 673 432 l 262 432 l 262 142 l 768 142 q 793 134 784 142 q 803 111 803 126 l 802 26 q 795 7 803 14 q 775 0 787 0 l 136 0 q 110 26 110 0 l 110 966 m 305 1074 q 298 1089 298 1081 q 307 1109 298 1099 q 352 1151 330 1139 q 403 1163 374 1163 q 432 1157 416 1163 q 474 1135 448 1151 q 503 1120 492 1124 q 520 1116 513 1116 q 544 1122 534 1116 q 570 1147 554 1128 q 586 1157 577 1157 q 600 1149 593 1157 l 622 1127 q 627 1116 627 1122 q 623 1105 627 1111 q 574 1057 598 1072 q 520 1043 551 1043 q 492 1049 507 1043 q 452 1070 476 1055 q 423 1085 433 1081 q 403 1089 412 1089 q 377 1082 388 1089 q 350 1054 366 1075 q 339 1048 346 1048 q 321 1059 331 1048 l 305 1074 z "},"\u011e":{"ha":973,"x_min":50,"x_max":901,"o":"m 567 134 q 664 152 609 134 q 755 195 718 170 l 755 433 q 763 453 755 445 q 781 461 770 461 l 876 461 q 894 453 886 461 q 901 433 901 445 l 901 108 q 897 92 901 100 q 888 79 893 83 q 736 10 829 39 q 567 -18 644 -18 q 306 50 425 -18 q 118 235 187 118 q 50 494 50 353 q 118 753 50 635 q 306 938 187 870 q 566 1006 424 1006 q 728 980 644 1006 q 873 903 812 953 q 884 882 884 894 q 880 867 884 873 l 821 780 q 803 770 815 770 q 786 777 793 770 q 681 835 740 816 q 567 854 621 854 q 383 806 467 854 q 251 676 300 758 q 203 494 203 593 q 251 312 203 395 q 383 182 300 230 q 567 134 467 134 m 569 1068 q 460 1104 500 1068 q 421 1203 421 1140 q 427 1220 421 1214 q 443 1227 433 1227 l 475 1227 q 493 1220 486 1227 q 500 1200 500 1213 q 518 1157 500 1173 q 569 1141 536 1141 q 618 1157 600 1141 q 636 1201 636 1173 q 643 1220 636 1213 q 661 1227 649 1227 l 692 1227 q 708 1221 703 1227 q 714 1203 714 1215 q 675 1104 714 1140 q 569 1068 637 1068 z "},"\u01e6":{"ha":973,"x_min":50,"x_max":901,"o":"m 567 134 q 664 152 609 134 q 755 195 718 170 l 755 433 q 763 453 755 445 q 781 461 770 461 l 876 461 q 894 453 886 461 q 901 433 901 445 l 901 108 q 897 92 901 100 q 888 79 893 83 q 736 10 829 39 q 567 -18 644 -18 q 306 50 425 -18 q 118 235 187 118 q 50 494 50 353 q 118 753 50 635 q 306 938 187 870 q 566 1006 424 1006 q 728 980 644 1006 q 873 903 812 953 q 884 882 884 894 q 880 867 884 873 l 821 780 q 803 770 815 770 q 786 777 793 770 q 681 835 740 816 q 567 854 621 854 q 383 806 467 854 q 251 676 300 758 q 203 494 203 593 q 251 312 203 395 q 383 182 300 230 q 567 134 467 134 m 402 1183 q 394 1191 397 1187 q 391 1200 391 1195 q 396 1213 391 1205 l 414 1238 q 428 1245 418 1245 q 447 1238 438 1245 l 566 1146 l 685 1238 q 704 1245 694 1245 q 719 1238 713 1245 l 736 1214 q 741 1202 741 1209 q 732 1185 741 1192 l 581 1063 q 566 1056 574 1056 q 551 1063 559 1056 l 402 1183 z "},"\u011c":{"ha":973,"x_min":50,"x_max":901,"o":"m 567 134 q 664 152 609 134 q 755 195 718 170 l 755 433 q 763 453 755 445 q 781 461 770 461 l 876 461 q 894 453 886 461 q 901 433 901 445 l 901 108 q 897 92 901 100 q 888 79 893 83 q 736 10 829 39 q 567 -18 644 -18 q 306 50 425 -18 q 118 235 187 118 q 50 494 50 353 q 118 753 50 635 q 306 938 187 870 q 566 1006 424 1006 q 728 980 644 1006 q 873 903 812 953 q 884 882 884 894 q 880 867 884 873 l 821 780 q 803 770 815 770 q 786 777 793 770 q 681 835 740 816 q 567 854 621 854 q 383 806 467 854 q 251 676 300 758 q 203 494 203 593 q 251 312 203 395 q 383 182 300 230 q 567 134 467 134 m 551 1243 q 566 1250 559 1250 q 581 1243 574 1250 l 732 1120 q 741 1104 741 1114 q 736 1092 741 1098 l 719 1067 q 704 1061 713 1061 q 685 1067 694 1061 l 566 1160 l 447 1067 q 429 1061 438 1061 q 414 1068 419 1061 l 396 1093 q 391 1106 391 1101 q 394 1115 391 1111 q 402 1122 397 1118 l 551 1243 z "},"\u0122":{"ha":973,"x_min":50,"x_max":901,"o":"m 567 134 q 664 152 609 134 q 755 195 718 170 l 755 433 q 763 453 755 445 q 781 461 770 461 l 876 461 q 894 453 886 461 q 901 433 901 445 l 901 108 q 897 92 901 100 q 888 79 893 83 q 736 10 829 39 q 567 -18 644 -18 q 306 50 425 -18 q 118 235 187 118 q 50 494 50 353 q 118 753 50 635 q 306 938 187 870 q 566 1006 424 1006 q 728 980 644 1006 q 873 903 812 953 q 884 882 884 894 q 880 867 884 873 l 821 780 q 803 770 815 770 q 786 777 793 770 q 681 835 740 816 q 567 854 621 854 q 383 806 467 854 q 251 676 300 758 q 203 494 203 593 q 251 312 203 395 q 383 182 300 230 q 567 134 467 134 m 498 -174 q 518 -127 498 -146 q 566 -108 537 -108 q 621 -133 600 -108 q 642 -193 642 -157 q 625 -277 642 -239 q 572 -349 608 -314 q 557 -355 565 -355 q 543 -349 549 -355 l 524 -333 q 519 -321 519 -328 q 526 -305 519 -313 q 561 -252 561 -269 q 557 -243 561 -248 q 546 -237 553 -239 q 511 -215 524 -232 q 498 -174 498 -198 z "},"\u0120":{"ha":973,"x_min":50,"x_max":901,"o":"m 567 134 q 664 152 609 134 q 755 195 718 170 l 755 433 q 763 453 755 445 q 781 461 770 461 l 876 461 q 894 453 886 461 q 901 433 901 445 l 901 108 q 897 92 901 100 q 888 79 893 83 q 736 10 829 39 q 567 -18 644 -18 q 306 50 425 -18 q 118 235 187 118 q 50 494 50 353 q 118 753 50 635 q 306 938 187 870 q 566 1006 424 1006 q 728 980 644 1006 q 873 903 812 953 q 884 882 884 894 q 880 867 884 873 l 821 780 q 803 770 815 770 q 786 777 793 770 q 681 835 740 816 q 567 854 621 854 q 383 806 467 854 q 251 676 300 758 q 203 494 203 593 q 251 312 203 395 q 383 182 300 230 q 567 134 467 134 m 566 1099 q 519 1119 538 1099 q 499 1166 499 1139 q 519 1213 499 1194 q 566 1232 538 1232 q 613 1213 594 1232 q 633 1166 633 1194 q 613 1119 633 1139 q 566 1099 594 1099 z "},"\u0126":{"ha":1046,"x_min":73,"x_max":978,"o":"m 960 813 q 973 808 968 813 q 978 795 978 804 l 978 768 q 973 754 978 759 q 960 749 968 749 l 937 749 l 937 18 q 931 4 937 9 q 917 -1 926 -1 l 804 -1 q 789 4 794 -1 q 783 18 783 9 l 783 423 l 262 423 l 262 18 q 243 -1 262 -1 l 130 -1 q 115 4 120 -1 q 110 18 110 9 l 110 749 l 94 749 q 73 768 73 749 l 73 795 q 94 813 73 813 l 110 813 l 110 972 q 115 986 110 981 q 130 991 120 991 l 243 991 q 262 972 262 991 l 262 813 l 783 813 l 783 972 q 804 991 783 991 l 917 991 q 931 986 926 991 q 937 972 937 981 l 937 813 l 960 813 m 783 749 l 262 749 l 262 570 l 783 570 l 783 749 z "},"\u0124":{"ha":1046,"x_min":110,"x_max":937,"o":"m 917 991 q 931 986 926 991 q 937 972 937 981 l 937 18 q 931 4 937 9 q 917 -1 926 -1 l 804 -1 q 789 4 794 -1 q 783 18 783 9 l 783 423 l 262 423 l 262 18 q 243 -1 262 -1 l 130 -1 q 115 4 120 -1 q 110 18 110 9 l 110 972 q 115 986 110 981 q 130 991 120 991 l 243 991 q 262 972 262 991 l 262 570 l 783 570 l 783 972 q 804 991 783 991 l 917 991 m 505 1229 q 520 1236 514 1236 q 535 1229 528 1236 l 686 1106 q 695 1090 695 1099 q 691 1078 695 1084 l 673 1053 q 659 1046 667 1046 q 640 1053 648 1046 l 520 1145 l 401 1053 q 383 1046 393 1046 q 368 1054 374 1046 l 351 1079 q 345 1092 345 1086 q 348 1100 345 1097 q 357 1108 351 1104 l 505 1229 z "},"\u0132":{"ha":880,"x_min":77,"x_max":803,"o":"m 229 420 q 224 406 229 411 q 210 401 219 401 l 96 401 q 82 406 87 401 q 77 420 77 411 l 77 972 q 82 986 77 981 q 96 991 87 991 l 210 991 q 229 972 229 991 l 229 420 m 650 970 q 656 986 650 981 q 672 991 662 991 l 781 991 q 797 986 791 991 q 803 970 803 981 l 803 315 q 759 137 803 212 q 633 21 715 62 q 439 -19 551 -19 q 245 22 327 -19 q 121 139 164 62 q 77 319 77 215 q 82 331 77 327 q 95 335 87 335 l 210 336 q 225 330 220 336 q 230 314 230 324 q 285 182 230 230 q 439 134 340 134 q 551 156 504 134 q 624 220 599 178 q 650 317 650 261 l 650 970 z "},"\xcd":{"ha":372,"x_min":88,"x_max":364,"o":"m 262 20 q 243 -1 262 -1 l 129 -1 q 115 5 120 -1 q 110 20 110 10 l 110 970 q 129 991 110 991 l 243 991 q 262 970 262 991 l 262 20 m 142 1064 q 121 1059 129 1059 q 104 1071 109 1059 l 92 1095 q 88 1110 88 1103 q 101 1129 88 1123 l 303 1231 q 323 1236 315 1236 q 342 1225 336 1236 l 361 1192 q 364 1178 364 1185 q 360 1165 364 1171 q 349 1156 357 1159 l 142 1064 z "},"\u012c":{"ha":372,"x_min":45,"x_max":338,"o":"m 262 20 q 243 -1 262 -1 l 129 -1 q 115 5 120 -1 q 110 20 110 10 l 110 970 q 129 991 110 991 l 243 991 q 262 970 262 991 l 262 20 m 193 1052 q 85 1088 124 1052 q 45 1187 45 1124 q 51 1204 45 1198 q 67 1211 57 1211 l 99 1211 q 117 1203 111 1211 q 124 1184 124 1196 q 142 1140 124 1156 q 193 1124 161 1124 q 242 1141 224 1124 q 260 1185 260 1157 q 267 1204 260 1197 q 285 1211 273 1211 l 316 1211 q 333 1204 327 1211 q 338 1187 338 1198 q 300 1088 338 1124 q 193 1052 261 1052 z "},"\xce":{"ha":372,"x_min":15,"x_max":365,"o":"m 262 20 q 243 -1 262 -1 l 129 -1 q 115 5 120 -1 q 110 20 110 10 l 110 970 q 129 991 110 991 l 243 991 q 262 970 262 991 l 262 20 m 175 1227 q 190 1234 184 1234 q 205 1227 198 1234 l 356 1104 q 365 1088 365 1097 q 361 1076 365 1082 l 343 1051 q 328 1044 337 1044 q 309 1051 318 1044 l 190 1143 l 71 1051 q 53 1044 62 1044 q 38 1052 43 1044 l 20 1077 q 15 1090 15 1084 q 18 1098 15 1095 q 26 1106 21 1102 l 175 1227 z "},"\xcf":{"ha":372,"x_min":45,"x_max":342,"o":"m 262 20 q 243 -1 262 -1 l 129 -1 q 115 5 120 -1 q 110 20 110 10 l 110 970 q 129 991 110 991 l 243 991 q 262 970 262 991 l 262 20 m 105 1080 q 62 1097 80 1080 q 45 1139 45 1114 q 62 1182 45 1164 q 105 1199 80 1199 q 147 1182 130 1199 q 164 1139 164 1164 q 147 1097 164 1114 q 105 1080 130 1080 m 282 1080 q 239 1097 257 1080 q 222 1139 222 1114 q 239 1182 222 1164 q 282 1199 257 1199 q 324 1182 307 1199 q 342 1139 342 1164 q 324 1097 342 1114 q 282 1080 307 1080 z "},"\u0130":{"ha":372,"x_min":110,"x_max":262,"o":"m 262 20 q 243 -1 262 -1 l 129 -1 q 115 5 120 -1 q 110 20 110 10 l 110 970 q 129 991 110 991 l 243 991 q 262 970 262 991 l 262 20 m 191 1083 q 143 1103 163 1083 q 123 1150 123 1122 q 143 1197 123 1177 q 191 1216 163 1216 q 238 1197 218 1216 q 257 1150 257 1177 q 238 1103 257 1122 q 191 1083 218 1083 z "},"\u1eca":{"ha":372,"x_min":110,"x_max":262,"o":"m 262 20 q 243 -1 262 -1 l 129 -1 q 115 5 120 -1 q 110 20 110 10 l 110 970 q 129 991 110 991 l 243 991 q 262 970 262 991 l 262 20 m 192 -245 q 144 -226 164 -245 q 125 -178 125 -206 q 144 -132 125 -151 q 192 -113 164 -113 q 239 -132 220 -113 q 258 -178 258 -151 q 239 -226 258 -206 q 192 -245 220 -245 z "},"\xcc":{"ha":372,"x_min":17,"x_max":293,"o":"m 262 20 q 243 -1 262 -1 l 129 -1 q 115 5 120 -1 q 110 20 110 10 l 110 970 q 129 991 110 991 l 243 991 q 262 970 262 991 l 262 20 m 32 1156 q 21 1165 24 1159 q 17 1178 17 1171 q 20 1192 17 1185 l 39 1225 q 58 1236 44 1236 q 78 1231 66 1236 l 280 1129 q 293 1110 293 1123 q 289 1095 293 1103 l 277 1071 q 260 1059 271 1059 q 239 1064 252 1059 l 32 1156 z "},"\u012a":{"ha":372,"x_min":52,"x_max":329,"o":"m 262 20 q 243 -1 262 -1 l 129 -1 q 115 5 120 -1 q 110 20 110 10 l 110 970 q 129 991 110 991 l 243 991 q 262 970 262 991 l 262 20 z "},"\u012e":{"ha":372,"x_min":52,"x_max":343,"o":"m 342 -275 q 339 -288 343 -282 q 328 -296 336 -294 q 275 -310 304 -305 q 222 -314 247 -314 q 96 -273 141 -314 q 53 -159 52 -231 q 78 -70 53 -111 q 147 -1 103 -28 l 129 -1 q 115 5 120 -1 q 110 20 110 10 l 110 970 q 129 991 110 991 l 243 991 q 262 970 262 991 l 262 20 q 256 3 262 9 l 258 3 q 166 -70 199 -28 q 133 -155 133 -111 q 158 -213 133 -192 q 227 -234 183 -234 q 313 -219 271 -234 l 321 -218 q 336 -229 334 -218 l 342 -275 z "},"\u0128":{"ha":372,"x_min":28,"x_max":357,"o":"m 262 20 q 243 -1 262 -1 l 129 -1 q 115 5 120 -1 q 110 20 110 10 l 110 970 q 129 991 110 991 l 243 991 q 262 970 262 991 l 262 20 m 35 1074 q 28 1088 28 1080 q 37 1109 28 1098 q 81 1150 60 1138 q 132 1162 103 1162 q 161 1156 145 1162 q 203 1135 177 1150 q 232 1119 222 1123 q 250 1115 242 1115 q 273 1121 263 1115 q 300 1147 283 1128 q 315 1156 307 1156 q 330 1149 323 1156 l 351 1126 q 357 1116 357 1122 q 353 1105 357 1110 q 304 1057 328 1071 q 250 1042 280 1042 q 221 1048 237 1042 q 181 1069 205 1055 q 152 1084 163 1080 q 132 1088 142 1088 q 106 1081 117 1088 q 79 1053 95 1074 q 68 1048 75 1048 q 50 1058 60 1048 l 35 1074 z "},"\u0134":{"ha":669,"x_min":50,"x_max":673,"o":"m 416 970 q 421 986 416 981 q 438 991 427 991 l 547 991 q 563 986 557 991 q 569 970 569 981 l 569 273 q 534 119 569 185 q 436 17 500 53 q 287 -19 372 -19 q 153 13 214 -19 q 57 102 92 45 q 50 122 50 114 q 57 138 50 132 l 133 208 q 148 214 140 214 q 168 203 159 214 q 218 153 187 171 q 287 134 249 134 q 380 173 345 134 q 416 275 416 212 l 416 970 m 484 1229 q 498 1236 492 1236 q 513 1229 507 1236 l 665 1106 q 673 1090 673 1099 q 669 1078 673 1084 l 652 1053 q 637 1046 646 1046 q 618 1053 627 1046 l 498 1145 l 380 1053 q 361 1046 371 1046 q 347 1054 352 1046 l 329 1079 q 323 1092 323 1086 q 327 1100 323 1097 q 335 1108 330 1104 l 484 1229 z "},"\u0136":{"ha":991,"x_min":110,"x_max":966,"o":"m 960 31 q 966 16 966 22 q 961 4 966 8 q 947 -1 956 -1 l 812 -1 q 786 12 798 -1 l 449 465 l 262 251 l 262 20 q 243 -1 262 -1 l 130 -1 q 115 5 120 -1 q 110 20 110 10 l 110 970 q 130 991 110 991 l 243 991 q 262 970 262 991 l 262 443 l 700 972 q 718 987 709 983 q 737 991 726 991 l 868 991 q 882 986 877 991 q 887 975 887 981 q 880 958 887 965 l 549 578 l 960 31 m 457 -156 q 476 -109 457 -128 q 524 -90 496 -90 q 579 -114 558 -90 q 601 -174 601 -139 q 584 -258 601 -221 q 530 -330 566 -296 q 515 -337 524 -337 q 501 -330 508 -337 l 483 -315 q 477 -302 477 -310 q 484 -287 477 -294 q 519 -234 519 -251 q 515 -225 519 -229 q 505 -219 511 -221 q 470 -197 483 -214 q 457 -156 457 -180 z "},"\u0139":{"ha":809,"x_min":90,"x_max":753,"o":"m 734 146 q 753 126 753 146 l 753 20 q 733 0 753 0 l 130 0 q 110 20 110 0 l 110 972 q 130 991 110 991 l 243 991 q 262 972 262 991 l 262 146 l 734 146 m 143 1066 q 123 1061 130 1061 q 105 1073 111 1061 l 94 1097 q 90 1112 90 1105 q 102 1131 90 1125 l 304 1233 q 325 1238 317 1238 q 344 1227 338 1238 l 362 1194 q 366 1180 366 1187 q 362 1167 366 1173 q 351 1158 358 1161 l 143 1066 z "},"\u013d":{"ha":803,"x_min":110,"x_max":753,"o":"m 734 146 q 753 126 753 146 l 753 20 q 733 0 753 0 l 130 0 q 110 20 110 0 l 110 972 q 130 991 110 991 l 243 991 q 262 972 262 991 l 262 146 l 734 146 m 641 764 q 633 747 640 753 q 614 741 625 741 l 592 741 q 573 747 580 741 q 566 764 566 753 l 566 966 q 593 998 566 998 l 629 998 q 654 969 657 998 l 641 764 z "},"\u013b":{"ha":809,"x_min":110,"x_max":753,"o":"m 734 146 q 753 126 753 146 l 753 20 q 733 0 753 0 l 130 0 q 110 20 110 0 l 110 972 q 130 991 110 991 l 243 991 q 262 972 262 991 l 262 146 l 734 146 m 365 -156 q 384 -109 365 -128 q 432 -90 404 -90 q 487 -114 466 -90 q 509 -174 509 -139 q 491 -258 509 -221 q 438 -330 474 -296 q 423 -337 431 -337 q 409 -330 416 -337 l 391 -315 q 385 -302 385 -310 q 392 -287 385 -294 q 427 -234 427 -251 q 423 -225 427 -229 q 412 -219 419 -221 q 378 -197 391 -214 q 365 -156 365 -180 z "},"\u013f":{"ha":809,"x_min":110,"x_max":753,"o":"m 734 146 q 753 126 753 146 l 753 20 q 733 0 753 0 l 130 0 q 110 20 110 0 l 110 972 q 130 991 110 991 l 243 991 q 262 972 262 991 l 262 146 l 734 146 z "},"\u0141":{"ha":809,"x_min":28,"x_max":753,"o":"m 734 146 q 753 126 753 146 l 753 20 q 733 0 753 0 l 130 0 q 110 20 110 0 l 110 507 l 58 494 q 52 492 53 492 q 36 507 39 492 l 29 532 q 28 540 28 538 q 42 555 28 551 l 110 574 l 110 972 q 130 991 110 991 l 243 991 q 262 972 262 991 l 262 614 l 323 631 q 330 632 329 632 q 341 628 336 632 q 347 618 345 625 l 353 592 q 355 585 355 587 q 340 569 355 573 l 262 548 l 262 146 l 734 146 z "},"\u0143":{"ha":1067,"x_min":110,"x_max":956,"o":"m 937 991 q 956 972 956 991 l 956 18 q 937 -1 956 -1 l 829 -1 q 792 20 806 -1 l 262 765 l 262 18 q 243 -1 262 -1 l 130 -1 q 110 18 110 -1 l 110 972 q 130 991 110 991 l 247 991 q 283 968 268 991 l 804 248 l 804 972 q 823 991 804 991 l 937 991 m 483 1066 q 463 1061 470 1061 q 445 1073 450 1061 l 433 1097 q 429 1112 429 1105 q 442 1131 429 1125 l 644 1233 q 665 1238 656 1238 q 684 1227 677 1238 l 702 1194 q 705 1180 705 1187 q 702 1167 705 1173 q 690 1158 698 1161 l 483 1066 z "},"\u0147":{"ha":1067,"x_min":110,"x_max":956,"o":"m 937 991 q 956 972 956 991 l 956 18 q 937 -1 956 -1 l 829 -1 q 792 20 806 -1 l 262 765 l 262 18 q 243 -1 262 -1 l 130 -1 q 110 18 110 -1 l 110 972 q 130 991 110 991 l 247 991 q 283 968 268 991 l 804 248 l 804 972 q 823 991 804 991 l 937 991 m 368 1169 q 360 1177 363 1173 q 357 1185 357 1181 q 362 1198 357 1191 l 380 1223 q 394 1231 385 1231 q 413 1224 404 1231 l 532 1132 l 651 1224 q 670 1231 660 1231 q 685 1224 679 1231 l 703 1200 q 707 1188 707 1195 q 698 1171 707 1178 l 547 1048 q 532 1042 540 1042 q 517 1048 526 1042 l 368 1169 z "},"\u0145":{"ha":1067,"x_min":110,"x_max":956,"o":"m 937 991 q 956 972 956 991 l 956 18 q 937 -1 956 -1 l 829 -1 q 792 20 806 -1 l 262 765 l 262 18 q 243 -1 262 -1 l 130 -1 q 110 18 110 -1 l 110 972 q 130 991 110 991 l 247 991 q 283 968 268 991 l 804 248 l 804 972 q 823 991 804 991 l 937 991 m 465 -156 q 484 -109 465 -128 q 532 -90 503 -90 q 587 -114 566 -90 q 608 -174 608 -139 q 591 -258 608 -221 q 538 -330 574 -296 q 523 -337 531 -337 q 509 -330 515 -337 l 490 -315 q 485 -302 485 -310 q 492 -287 485 -294 q 527 -234 527 -251 q 523 -225 527 -229 q 512 -219 519 -221 q 477 -197 490 -214 q 465 -156 465 -180 z "},"\u014a":{"ha":1067,"x_min":110,"x_max":956,"o":"m 956 18 q 956 12 956 14 l 956 -16 q 884 -223 955 -151 q 683 -296 814 -296 l 679 -296 q 665 -291 670 -296 q 660 -277 660 -286 l 660 -170 q 677 -150 660 -150 l 682 -150 q 772 -114 739 -150 q 805 -14 805 -79 l 805 6 q 792 20 799 10 l 262 765 l 262 18 q 243 -1 262 -1 l 130 -1 q 110 18 110 -1 l 110 972 q 130 991 110 991 l 247 991 q 283 968 268 991 l 804 248 l 804 972 q 823 991 804 991 l 937 991 q 956 972 956 991 l 956 18 z "},"\u019d":{"ha":1067,"x_min":-37,"x_max":956,"o":"m 937 991 q 956 972 956 991 l 956 18 q 937 -1 956 -1 l 829 -1 q 792 20 806 -1 l 262 765 l 262 18 q 261 12 262 14 l 261 -16 q 189 -225 260 -151 q -14 -298 118 -298 l -18 -298 q -32 -293 -27 -298 q -37 -279 -37 -288 l -37 -171 q -20 -151 -37 -151 l -15 -151 q 76 -115 43 -151 q 109 -14 109 -79 l 109 40 l 110 40 l 110 972 q 130 991 110 991 l 247 991 q 283 968 268 991 l 804 248 l 804 972 q 823 991 804 991 l 937 991 z "},"\xd1":{"ha":1067,"x_min":110,"x_max":956,"o":"m 937 991 q 956 972 956 991 l 956 18 q 937 -1 956 -1 l 829 -1 q 792 20 806 -1 l 262 765 l 262 18 q 243 -1 262 -1 l 130 -1 q 110 18 110 -1 l 110 972 q 130 991 110 991 l 247 991 q 283 968 268 991 l 804 248 l 804 972 q 823 991 804 991 l 937 991 m 376 1076 q 370 1090 370 1082 q 378 1111 370 1100 q 423 1152 401 1140 q 474 1164 445 1164 q 503 1158 487 1164 q 545 1137 519 1152 q 574 1121 564 1125 q 591 1117 584 1117 q 615 1123 605 1117 q 642 1149 625 1130 q 657 1158 648 1158 q 671 1151 665 1158 l 693 1128 q 699 1118 699 1124 q 694 1107 699 1112 q 646 1059 669 1073 q 591 1044 622 1044 q 563 1050 578 1044 q 523 1072 547 1057 q 494 1086 505 1082 q 474 1090 484 1090 q 448 1083 459 1090 q 421 1055 437 1076 q 410 1050 417 1050 q 392 1060 402 1050 l 376 1076 z "},"\xd3":{"ha":1124,"x_min":50,"x_max":1075,"o":"m 50 493 q 118 752 50 635 q 303 938 186 870 q 562 1006 421 1006 q 821 938 703 1006 q 1007 752 939 870 q 1075 493 1075 635 q 1007 235 1075 352 q 821 50 939 118 q 562 -18 703 -18 q 303 50 421 -18 q 118 235 186 118 q 50 493 50 352 m 203 493 q 250 312 203 394 q 380 182 298 230 q 562 135 463 135 q 744 182 661 135 q 874 312 826 230 q 922 493 922 394 q 874 675 922 592 q 744 805 826 758 q 562 853 661 853 q 380 805 463 853 q 250 675 298 758 q 203 493 203 592 m 513 1080 q 492 1075 500 1075 q 475 1086 480 1075 l 463 1110 q 459 1126 459 1118 q 472 1145 459 1139 l 674 1246 q 694 1252 686 1252 q 713 1240 707 1252 l 732 1207 q 735 1194 735 1200 q 731 1181 735 1187 q 720 1172 728 1175 l 513 1080 z "},"\u014e":{"ha":1124,"x_min":50,"x_max":1075,"o":"m 50 493 q 118 752 50 635 q 303 938 186 870 q 562 1006 421 1006 q 821 938 703 1006 q 1007 752 939 870 q 1075 493 1075 635 q 1007 235 1075 352 q 821 50 939 118 q 562 -18 703 -18 q 303 50 421 -18 q 118 235 186 118 q 50 493 50 352 m 203 493 q 250 312 203 394 q 380 182 298 230 q 562 135 463 135 q 744 182 661 135 q 874 312 826 230 q 922 493 922 394 q 874 675 922 592 q 744 805 826 758 q 562 853 661 853 q 380 805 463 853 q 250 675 298 758 q 203 493 203 592 m 564 1068 q 456 1104 495 1068 q 416 1203 416 1140 q 422 1220 416 1214 q 438 1227 428 1227 l 470 1227 q 488 1220 481 1227 q 495 1200 495 1213 q 513 1157 495 1173 q 564 1141 532 1141 q 613 1157 595 1141 q 631 1201 631 1173 q 638 1220 631 1213 q 656 1227 644 1227 l 687 1227 q 704 1221 698 1227 q 709 1203 709 1215 q 671 1104 709 1140 q 564 1068 632 1068 z "},"\xd4":{"ha":1124,"x_min":50,"x_max":1075,"o":"m 50 493 q 118 752 50 635 q 303 938 186 870 q 562 1006 421 1006 q 821 938 703 1006 q 1007 752 939 870 q 1075 493 1075 635 q 1007 235 1075 352 q 821 50 939 118 q 562 -18 703 -18 q 303 50 421 -18 q 118 235 186 118 q 50 493 50 352 m 203 493 q 250 312 203 394 q 380 182 298 230 q 562 135 463 135 q 744 182 661 135 q 874 312 826 230 q 922 493 922 394 q 874 675 922 592 q 744 805 826 758 q 562 853 661 853 q 380 805 463 853 q 250 675 298 758 q 203 493 203 592 m 546 1243 q 561 1250 555 1250 q 576 1243 569 1250 l 727 1120 q 736 1104 736 1114 q 732 1092 736 1098 l 714 1067 q 699 1061 708 1061 q 680 1067 689 1061 l 561 1160 l 442 1067 q 424 1061 433 1061 q 409 1068 414 1061 l 391 1093 q 386 1106 386 1101 q 389 1115 386 1111 q 397 1122 392 1118 l 546 1243 z "},"\xd6":{"ha":1124,"x_min":50,"x_max":1075,"o":"m 50 493 q 118 752 50 635 q 303 938 186 870 q 562 1006 421 1006 q 821 938 703 1006 q 1007 752 939 870 q 1075 493 1075 635 q 1007 235 1075 352 q 821 50 939 118 q 562 -18 703 -18 q 303 50 421 -18 q 118 235 186 118 q 50 493 50 352 m 203 493 q 250 312 203 394 q 380 182 298 230 q 562 135 463 135 q 744 182 661 135 q 874 312 826 230 q 922 493 922 394 q 874 675 922 592 q 744 805 826 758 q 562 853 661 853 q 380 805 463 853 q 250 675 298 758 q 203 493 203 592 m 476 1095 q 433 1113 451 1095 q 416 1155 416 1130 q 433 1197 416 1180 q 476 1215 451 1215 q 518 1197 500 1215 q 535 1155 535 1180 q 518 1113 535 1130 q 476 1095 500 1095 m 653 1095 q 610 1113 628 1095 q 593 1155 593 1130 q 610 1197 593 1180 q 653 1215 628 1215 q 695 1197 677 1215 q 713 1155 713 1180 q 695 1113 713 1130 q 653 1095 677 1095 z "},"\u1ecc":{"ha":1124,"x_min":50,"x_max":1075,"o":"m 50 493 q 118 752 50 635 q 303 938 186 870 q 562 1006 421 1006 q 821 938 703 1006 q 1007 752 939 870 q 1075 493 1075 635 q 1007 235 1075 352 q 821 50 939 118 q 562 -18 703 -18 q 303 50 421 -18 q 118 235 186 118 q 50 493 50 352 m 203 493 q 250 312 203 394 q 380 182 298 230 q 562 135 463 135 q 744 182 661 135 q 874 312 826 230 q 922 493 922 394 q 874 675 922 592 q 744 805 826 758 q 562 853 661 853 q 380 805 463 853 q 250 675 298 758 q 203 493 203 592 m 563 -257 q 515 -237 535 -257 q 496 -190 496 -218 q 515 -143 496 -163 q 563 -124 535 -124 q 610 -143 591 -124 q 629 -190 629 -163 q 610 -237 629 -218 q 563 -257 591 -257 z "},"\xd2":{"ha":1124,"x_min":50,"x_max":1075,"o":"m 50 493 q 118 752 50 635 q 303 938 186 870 q 562 1006 421 1006 q 821 938 703 1006 q 1007 752 939 870 q 1075 493 1075 635 q 1007 235 1075 352 q 821 50 939 118 q 562 -18 703 -18 q 303 50 421 -18 q 118 235 186 118 q 50 493 50 352 m 203 493 q 250 312 203 394 q 380 182 298 230 q 562 135 463 135 q 744 182 661 135 q 874 312 826 230 q 922 493 922 394 q 874 675 922 592 q 744 805 826 758 q 562 853 661 853 q 380 805 463 853 q 250 675 298 758 q 203 493 203 592 m 404 1172 q 392 1181 396 1175 q 389 1194 389 1187 q 392 1207 389 1200 l 410 1240 q 429 1252 416 1252 q 450 1246 437 1252 l 652 1145 q 665 1126 665 1139 q 661 1110 665 1118 l 649 1086 q 631 1075 643 1075 q 611 1080 624 1075 l 404 1172 z "},"\u0150":{"ha":1124,"x_min":50,"x_max":1075,"o":"m 50 493 q 118 752 50 635 q 303 938 186 870 q 562 1006 421 1006 q 821 938 703 1006 q 1007 752 939 870 q 1075 493 1075 635 q 1007 235 1075 352 q 821 50 939 118 q 562 -18 703 -18 q 303 50 421 -18 q 118 235 186 118 q 50 493 50 352 m 203 493 q 250 312 203 394 q 380 182 298 230 q 562 135 463 135 q 744 182 661 135 q 874 312 826 230 q 922 493 922 394 q 874 675 922 592 q 744 805 826 758 q 562 853 661 853 q 380 805 463 853 q 250 675 298 758 q 203 493 203 592 m 445 1069 q 423 1062 431 1062 q 407 1072 412 1062 l 393 1095 q 387 1112 387 1105 q 399 1130 387 1122 l 590 1249 q 612 1256 602 1256 q 630 1246 623 1256 l 651 1215 q 656 1200 656 1208 q 643 1179 656 1185 l 445 1069 m 664 1067 q 642 1060 650 1060 q 626 1070 632 1060 l 612 1093 q 606 1110 606 1103 q 618 1128 606 1120 l 809 1247 q 831 1255 821 1255 q 849 1244 842 1255 l 870 1213 q 875 1198 875 1206 q 862 1177 875 1183 l 664 1067 z "},"\u014c":{"ha":1124,"x_min":50,"x_max":1075,"o":"m 50 493 q 118 752 50 635 q 303 938 186 870 q 562 1006 421 1006 q 821 938 703 1006 q 1007 752 939 870 q 1075 493 1075 635 q 1007 235 1075 352 q 821 50 939 118 q 562 -18 703 -18 q 303 50 421 -18 q 118 235 186 118 q 50 493 50 352 m 203 493 q 250 312 203 394 q 380 182 298 230 q 562 135 463 135 q 744 182 661 135 q 874 312 826 230 q 922 493 922 394 q 874 675 922 592 q 744 805 826 758 q 562 853 661 853 q 380 805 463 853 q 250 675 298 758 q 203 493 203 592 z "},"\u01ea":{"ha":1124,"x_min":50,"x_max":1075,"o":"m 747 16 q 662 -54 693 -14 q 631 -136 631 -94 q 657 -194 631 -173 q 726 -216 682 -216 q 768 -212 745 -216 q 812 -200 791 -208 q 819 -199 817 -199 q 834 -210 832 -199 l 841 -256 q 839 -270 842 -264 q 827 -278 835 -275 q 774 -291 802 -287 q 720 -295 745 -295 q 596 -255 641 -295 q 551 -143 551 -214 q 565 -75 551 -108 q 604 -16 578 -43 q 562 -18 576 -18 q 303 50 421 -18 q 118 235 186 118 q 50 493 50 352 q 118 752 50 635 q 303 938 186 870 q 562 1006 421 1006 q 821 938 703 1006 q 1007 752 939 870 q 1075 493 1075 635 q 1034 289 1075 385 q 918 122 992 193 q 747 16 844 52 m 203 493 q 250 312 203 394 q 380 182 298 230 q 562 135 463 135 q 744 182 661 135 q 874 312 826 230 q 922 493 922 394 q 874 675 922 592 q 744 805 826 758 q 562 853 661 853 q 380 805 463 853 q 250 675 298 758 q 203 493 203 592 z "},"\xd8":{"ha":1124,"x_min":50,"x_max":1075,"o":"m 947 836 q 1041 679 1008 766 q 1075 493 1075 591 q 1007 235 1075 352 q 821 50 939 118 q 562 -18 703 -18 q 377 16 465 -18 q 221 109 290 49 l 157 45 q 141 37 149 37 q 128 43 134 37 l 110 62 q 104 74 104 68 q 113 90 104 81 l 176 154 q 83 309 116 222 q 50 493 50 396 q 118 752 50 635 q 303 938 186 870 q 562 1006 421 1006 q 746 974 659 1006 q 902 880 833 941 l 964 942 q 977 948 970 948 q 989 941 983 948 l 1008 923 q 1015 909 1015 917 q 1009 897 1015 903 l 947 836 m 203 493 q 224 369 203 428 q 285 262 245 309 l 793 771 q 687 832 746 810 q 562 853 628 853 q 380 805 463 853 q 250 675 298 758 q 203 493 203 592 m 562 135 q 744 182 661 135 q 874 312 826 230 q 922 493 922 394 q 900 619 922 559 q 838 726 878 679 l 330 218 q 437 157 377 178 q 562 135 496 135 z "},"\u01fe":{"ha":1124,"x_min":50,"x_max":1075,"o":"m 947 836 q 1041 679 1008 766 q 1075 493 1075 591 q 1007 235 1075 352 q 821 50 939 118 q 562 -18 703 -18 q 377 16 465 -18 q 221 109 290 49 l 157 45 q 141 37 149 37 q 128 43 134 37 l 110 62 q 104 74 104 68 q 113 90 104 81 l 176 154 q 83 309 116 222 q 50 493 50 396 q 118 752 50 635 q 303 938 186 870 q 562 1006 421 1006 q 746 974 659 1006 q 902 880 833 941 l 964 942 q 977 948 970 948 q 989 941 983 948 l 1008 923 q 1015 909 1015 917 q 1009 897 1015 903 l 947 836 m 203 493 q 224 369 203 428 q 285 262 245 309 l 793 771 q 687 832 746 810 q 562 853 628 853 q 380 805 463 853 q 250 675 298 758 q 203 493 203 592 m 562 135 q 744 182 661 135 q 874 312 826 230 q 922 493 922 394 q 900 619 922 559 q 838 726 878 679 l 330 218 q 437 157 377 178 q 562 135 496 135 m 513 1080 q 492 1075 500 1075 q 475 1086 480 1075 l 463 1110 q 459 1126 459 1118 q 472 1145 459 1139 l 674 1246 q 694 1252 686 1252 q 713 1240 707 1252 l 732 1207 q 735 1194 735 1200 q 731 1181 735 1187 q 720 1172 728 1175 l 513 1080 z "},"\xd5":{"ha":1124,"x_min":50,"x_max":1075,"o":"m 50 493 q 118 752 50 635 q 303 938 186 870 q 562 1006 421 1006 q 821 938 703 1006 q 1007 752 939 870 q 1075 493 1075 635 q 1007 235 1075 352 q 821 50 939 118 q 562 -18 703 -18 q 303 50 421 -18 q 118 235 186 118 q 50 493 50 352 m 203 493 q 250 312 203 394 q 380 182 298 230 q 562 135 463 135 q 744 182 661 135 q 874 312 826 230 q 922 493 922 394 q 874 675 922 592 q 744 805 826 758 q 562 853 661 853 q 380 805 463 853 q 250 675 298 758 q 203 493 203 592 m 406 1090 q 399 1105 399 1097 q 408 1125 399 1114 q 453 1166 431 1154 q 504 1179 475 1179 q 533 1173 517 1179 q 575 1151 549 1166 q 604 1135 593 1139 q 621 1131 614 1131 q 645 1138 635 1131 q 671 1163 655 1144 q 687 1173 678 1173 q 701 1165 694 1173 l 723 1143 q 728 1132 728 1138 q 724 1121 728 1126 q 675 1073 699 1087 q 621 1059 652 1059 q 593 1065 608 1059 q 553 1086 577 1071 q 524 1101 534 1097 q 504 1105 513 1105 q 478 1098 489 1105 q 451 1069 467 1090 q 440 1064 447 1064 q 422 1074 432 1064 l 406 1090 z "},"\u0154":{"ha":854,"x_min":110,"x_max":801,"o":"m 798 28 q 801 18 801 24 q 795 5 801 10 q 781 -1 790 -1 l 657 -1 q 641 4 648 -1 q 628 20 635 9 l 463 333 l 452 333 l 262 333 l 262 25 q 255 6 262 13 q 237 -1 249 -1 l 134 -1 q 110 25 110 -1 l 110 965 q 117 984 110 977 q 134 991 123 991 l 161 991 l 240 991 l 452 991 q 629 949 551 991 q 750 833 707 908 q 793 661 793 758 q 746 484 793 560 q 616 368 699 408 l 798 28 m 262 478 l 452 478 q 549 502 506 478 q 616 567 592 526 q 640 661 640 608 q 616 756 640 714 q 549 822 592 798 q 452 846 506 846 l 262 846 l 262 478 m 304 1066 q 283 1061 291 1061 q 266 1073 271 1061 l 254 1097 q 250 1112 250 1105 q 263 1131 250 1125 l 465 1233 q 486 1238 477 1238 q 505 1227 498 1238 l 523 1194 q 526 1180 526 1187 q 523 1167 526 1173 q 511 1158 519 1161 l 304 1066 z "},"\u0158":{"ha":854,"x_min":110,"x_max":801,"o":"m 798 28 q 801 18 801 24 q 795 5 801 10 q 781 -1 790 -1 l 657 -1 q 641 4 648 -1 q 628 20 635 9 l 463 333 l 452 333 l 262 333 l 262 25 q 255 6 262 13 q 237 -1 249 -1 l 134 -1 q 110 25 110 -1 l 110 965 q 117 984 110 977 q 134 991 123 991 l 161 991 l 240 991 l 452 991 q 629 949 551 991 q 750 833 707 908 q 793 661 793 758 q 746 484 793 560 q 616 368 699 408 l 798 28 m 262 478 l 452 478 q 549 502 506 478 q 616 567 592 526 q 640 661 640 608 q 616 756 640 714 q 549 822 592 798 q 452 846 506 846 l 262 846 l 262 478 m 189 1169 q 181 1177 184 1173 q 178 1185 178 1181 q 183 1198 178 1191 l 201 1223 q 215 1231 205 1231 q 234 1224 225 1231 l 353 1132 l 472 1224 q 491 1231 481 1231 q 506 1224 500 1231 l 524 1200 q 528 1188 528 1195 q 519 1171 528 1178 l 368 1048 q 353 1042 361 1042 q 338 1048 347 1042 l 189 1169 z "},"\u0156":{"ha":854,"x_min":110,"x_max":801,"o":"m 798 28 q 801 18 801 24 q 795 5 801 10 q 781 -1 790 -1 l 657 -1 q 641 4 648 -1 q 628 20 635 9 l 463 333 l 452 333 l 262 333 l 262 25 q 255 6 262 13 q 237 -1 249 -1 l 134 -1 q 110 25 110 -1 l 110 965 q 117 984 110 977 q 134 991 123 991 l 161 991 l 240 991 l 452 991 q 629 949 551 991 q 750 833 707 908 q 793 661 793 758 q 746 484 793 560 q 616 368 699 408 l 798 28 m 262 478 l 452 478 q 549 502 506 478 q 616 567 592 526 q 640 661 640 608 q 616 756 640 714 q 549 822 592 798 q 452 846 506 846 l 262 846 l 262 478 m 352 -157 q 371 -110 352 -129 q 419 -90 391 -90 q 474 -115 453 -90 q 496 -175 496 -140 q 478 -259 496 -222 q 425 -331 461 -296 q 410 -338 418 -338 q 396 -331 403 -338 l 378 -315 q 372 -303 372 -311 q 379 -288 372 -295 q 414 -235 414 -252 q 410 -226 414 -230 q 399 -220 406 -222 q 365 -197 378 -214 q 352 -157 352 -180 z "},"\u015a":{"ha":848,"x_min":56,"x_max":809,"o":"m 71 109 q 56 132 56 119 q 62 149 56 140 l 117 229 q 137 241 126 241 q 157 234 146 241 q 275 169 204 195 q 427 142 347 142 q 543 159 491 142 q 625 209 595 176 q 655 288 655 241 q 621 362 655 332 q 537 410 587 393 q 412 448 488 428 q 240 508 308 475 q 134 593 172 541 q 96 724 96 645 q 140 872 96 810 q 264 968 184 935 q 446 1001 343 1001 q 618 976 536 1001 q 760 906 701 951 q 772 885 772 897 q 766 867 772 877 l 709 787 q 688 774 701 774 q 669 781 681 774 q 598 820 629 806 q 531 841 568 833 q 446 848 495 848 q 348 832 393 848 q 276 789 302 817 q 249 724 249 761 q 279 657 249 684 q 350 615 309 630 q 456 584 392 600 q 645 518 572 551 q 764 430 718 486 q 809 288 809 374 q 759 129 809 196 q 621 25 708 61 q 427 -10 534 -10 q 239 19 323 -10 q 71 109 155 48 m 382 1074 q 362 1069 370 1069 q 345 1081 350 1069 l 333 1105 q 329 1120 329 1113 q 342 1139 329 1133 l 544 1241 q 564 1246 556 1246 q 583 1235 577 1246 l 602 1202 q 605 1188 605 1195 q 601 1175 605 1181 q 590 1166 597 1169 l 382 1074 z "},"\u0160":{"ha":848,"x_min":56,"x_max":809,"o":"m 71 109 q 56 132 56 119 q 62 149 56 140 l 117 229 q 137 241 126 241 q 157 234 146 241 q 275 169 204 195 q 427 142 347 142 q 543 159 491 142 q 625 209 595 176 q 655 288 655 241 q 621 362 655 332 q 537 410 587 393 q 412 448 488 428 q 240 508 308 475 q 134 593 172 541 q 96 724 96 645 q 140 872 96 810 q 264 968 184 935 q 446 1001 343 1001 q 618 976 536 1001 q 760 906 701 951 q 772 885 772 897 q 766 867 772 877 l 709 787 q 688 774 701 774 q 669 781 681 774 q 598 820 629 806 q 531 841 568 833 q 446 848 495 848 q 348 832 393 848 q 276 789 302 817 q 249 724 249 761 q 279 657 249 684 q 350 615 309 630 q 456 584 392 600 q 645 518 572 551 q 764 430 718 486 q 809 288 809 374 q 759 129 809 196 q 621 25 708 61 q 427 -10 534 -10 q 239 19 323 -10 q 71 109 155 48 m 267 1178 q 259 1186 262 1182 q 256 1194 256 1190 q 261 1207 256 1200 l 279 1232 q 293 1240 283 1240 q 312 1233 303 1240 l 431 1141 l 550 1233 q 569 1240 559 1240 q 584 1233 578 1240 l 602 1208 q 606 1197 606 1204 q 597 1180 606 1187 l 446 1057 q 431 1050 439 1050 q 416 1057 425 1050 l 267 1178 z "},"\u015e":{"ha":848,"x_min":56,"x_max":809,"o":"m 809 288 q 764 136 809 201 q 639 34 718 71 q 460 -9 560 -3 l 451 -91 q 503 -110 484 -91 q 522 -165 522 -130 q 520 -182 522 -170 l 516 -218 q 475 -299 510 -269 q 387 -328 441 -328 l 320 -328 q 312 -325 315 -328 q 309 -315 309 -321 l 315 -261 q 329 -250 317 -250 l 396 -250 q 425 -241 414 -250 q 437 -217 435 -233 l 442 -181 q 434 -155 444 -165 q 406 -146 425 -146 l 379 -146 q 370 -142 373 -146 q 368 -134 367 -139 l 382 -9 q 220 26 294 -3 q 71 109 145 55 q 56 132 56 119 q 62 149 56 140 l 117 229 q 137 241 126 241 q 157 234 146 241 q 275 169 204 195 q 427 142 347 142 q 543 159 491 142 q 625 209 595 176 q 655 288 655 241 q 621 362 655 332 q 537 410 587 393 q 412 448 488 428 q 240 508 308 475 q 134 593 172 541 q 96 724 96 645 q 140 872 96 810 q 264 968 184 935 q 446 1001 343 1001 q 618 976 536 1001 q 760 906 701 951 q 772 885 772 897 q 766 867 772 877 l 709 787 q 688 774 701 774 q 669 781 681 774 q 598 820 629 806 q 531 841 568 833 q 446 848 495 848 q 348 832 393 848 q 276 789 302 817 q 249 724 249 761 q 279 657 249 684 q 350 615 309 630 q 456 584 392 600 q 645 518 572 551 q 764 430 718 486 q 809 288 809 374 z "},"\u015c":{"ha":848,"x_min":56,"x_max":809,"o":"m 71 109 q 56 132 56 119 q 62 149 56 140 l 117 229 q 137 241 126 241 q 157 234 146 241 q 275 169 204 195 q 427 142 347 142 q 543 159 491 142 q 625 209 595 176 q 655 288 655 241 q 621 362 655 332 q 537 410 587 393 q 412 448 488 428 q 240 508 308 475 q 134 593 172 541 q 96 724 96 645 q 140 872 96 810 q 264 968 184 935 q 446 1001 343 1001 q 618 976 536 1001 q 760 906 701 951 q 772 885 772 897 q 766 867 772 877 l 709 787 q 688 774 701 774 q 669 781 681 774 q 598 820 629 806 q 531 841 568 833 q 446 848 495 848 q 348 832 393 848 q 276 789 302 817 q 249 724 249 761 q 279 657 249 684 q 350 615 309 630 q 456 584 392 600 q 645 518 572 551 q 764 430 718 486 q 809 288 809 374 q 759 129 809 196 q 621 25 708 61 q 427 -10 534 -10 q 239 19 323 -10 q 71 109 155 48 m 416 1238 q 431 1244 425 1244 q 446 1238 439 1244 l 597 1115 q 606 1099 606 1108 q 602 1086 606 1093 l 584 1062 q 569 1055 578 1055 q 550 1062 559 1055 l 431 1154 l 312 1062 q 294 1055 303 1055 q 279 1063 284 1055 l 261 1088 q 256 1101 256 1095 q 259 1109 256 1105 q 267 1117 262 1113 l 416 1238 z "},"\u0218":{"ha":848,"x_min":56,"x_max":809,"o":"m 71 109 q 56 132 56 119 q 62 149 56 140 l 117 229 q 137 241 126 241 q 157 234 146 241 q 275 169 204 195 q 427 142 347 142 q 543 159 491 142 q 625 209 595 176 q 655 288 655 241 q 621 362 655 332 q 537 410 587 393 q 412 448 488 428 q 240 508 308 475 q 134 593 172 541 q 96 724 96 645 q 140 872 96 810 q 264 968 184 935 q 446 1001 343 1001 q 618 976 536 1001 q 760 906 701 951 q 772 885 772 897 q 766 867 772 877 l 709 787 q 688 774 701 774 q 669 781 681 774 q 598 820 629 806 q 531 841 568 833 q 446 848 495 848 q 348 832 393 848 q 276 789 302 817 q 249 724 249 761 q 279 657 249 684 q 350 615 309 630 q 456 584 392 600 q 645 518 572 551 q 764 430 718 486 q 809 288 809 374 q 759 129 809 196 q 621 25 708 61 q 427 -10 534 -10 q 239 19 323 -10 q 71 109 155 48 m 354 -163 q 373 -116 354 -136 q 421 -97 393 -97 q 476 -122 455 -97 q 498 -182 498 -146 q 480 -266 498 -229 q 427 -338 463 -303 q 412 -345 420 -345 q 398 -338 405 -345 l 380 -322 q 374 -310 374 -317 q 381 -294 374 -302 q 416 -241 416 -258 q 412 -233 416 -237 q 401 -227 408 -229 q 367 -204 380 -221 q 354 -163 354 -187 z "},"\u018f":{"ha":1124,"x_min":50,"x_max":1075,"o":"m 562 1006 q 821 938 703 1006 q 1007 752 939 870 q 1075 493 1075 635 q 1007 235 1075 352 q 821 50 939 118 q 562 -18 703 -18 q 303 50 421 -18 q 118 235 186 118 q 50 493 50 352 l 50 510 q 59 544 50 530 q 82 564 69 557 q 105 570 96 570 l 913 570 q 846 716 897 652 q 722 817 796 781 q 562 853 648 853 q 427 828 491 853 q 314 756 363 802 q 300 751 309 751 q 286 758 292 751 l 214 848 q 210 860 210 853 q 216 873 210 869 q 374 971 286 937 q 562 1006 463 1006 m 562 135 q 724 174 649 135 q 849 280 799 213 q 915 427 899 347 l 210 427 q 275 280 225 347 q 400 174 326 213 q 562 135 475 135 z "},"\u0166":{"ha":759,"x_min":30,"x_max":728,"o":"m 703 991 q 722 984 715 991 q 728 966 728 977 l 728 868 q 722 849 728 856 q 703 842 715 842 l 456 842 l 456 524 l 519 524 q 538 505 538 524 l 538 479 q 519 460 538 460 l 456 460 l 456 20 q 450 0 456 7 q 431 -6 443 -6 l 329 -6 q 310 0 317 -6 q 303 20 303 7 l 303 460 l 243 460 q 224 479 224 460 l 224 505 q 243 524 224 524 l 303 524 l 303 842 l 56 842 q 37 848 44 842 q 30 867 30 855 l 30 966 q 37 984 30 978 q 56 991 43 991 l 703 991 z "},"\u0164":{"ha":759,"x_min":30,"x_max":728,"o":"m 30 966 q 37 984 30 978 q 56 991 43 991 l 703 991 q 722 984 715 991 q 728 966 728 977 l 728 868 q 722 849 728 856 q 703 842 715 842 l 456 842 l 456 20 q 450 0 456 7 q 431 -6 443 -6 l 329 -6 q 310 0 317 -6 q 303 20 303 7 l 303 842 l 56 842 q 37 848 44 842 q 30 867 30 855 l 30 966 m 216 1168 q 207 1176 210 1173 q 204 1185 204 1180 q 210 1198 204 1190 l 227 1223 q 241 1230 232 1230 q 260 1223 252 1230 l 379 1131 l 498 1223 q 517 1230 507 1230 q 532 1223 526 1230 l 550 1199 q 554 1187 554 1194 q 545 1171 554 1177 l 394 1048 q 379 1041 387 1041 q 364 1048 373 1041 l 216 1168 z "},"\u0162":{"ha":759,"x_min":30,"x_max":728,"o":"m 703 991 q 722 984 715 991 q 728 966 728 977 l 728 868 q 722 849 728 856 q 703 842 715 842 l 456 842 l 456 20 q 450 0 456 7 q 431 -6 443 -6 l 418 -6 l 408 -90 q 460 -110 441 -90 q 479 -164 479 -129 q 477 -181 479 -169 l 473 -217 q 433 -298 467 -269 q 345 -327 398 -327 l 277 -327 q 269 -323 272 -327 q 267 -314 266 -320 l 273 -260 q 286 -250 274 -250 l 353 -250 q 382 -241 371 -250 q 395 -216 393 -232 l 399 -180 q 392 -155 401 -164 q 363 -145 382 -145 l 336 -145 q 325 -132 323 -145 l 340 -6 l 329 -6 q 310 0 317 -6 q 303 20 303 7 l 303 842 l 56 842 q 37 848 44 842 q 30 867 30 855 l 30 966 q 37 984 30 978 q 56 991 43 991 l 703 991 z "},"\u021a":{"ha":759,"x_min":30,"x_max":728,"o":"m 30 966 q 37 984 30 978 q 56 991 43 991 l 703 991 q 722 984 715 991 q 728 966 728 977 l 728 868 q 722 849 728 856 q 703 842 715 842 l 456 842 l 456 20 q 450 0 456 7 q 431 -6 443 -6 l 329 -6 q 310 0 317 -6 q 303 20 303 7 l 303 842 l 56 842 q 37 848 44 842 q 30 867 30 855 l 30 966 m 311 -163 q 331 -116 311 -135 q 378 -96 350 -96 q 434 -121 412 -96 q 455 -181 455 -146 q 438 -265 455 -228 q 385 -337 420 -302 q 370 -344 378 -344 q 355 -337 362 -344 l 337 -321 q 332 -309 332 -317 q 338 -294 332 -301 q 374 -241 374 -258 q 370 -232 374 -236 q 359 -226 366 -228 q 324 -203 337 -220 q 311 -163 311 -186 z "},"\xda":{"ha":968,"x_min":77,"x_max":890,"o":"m 229 397 q 261 259 229 320 q 351 164 293 199 q 484 130 409 130 q 617 164 559 130 q 706 259 675 199 q 738 397 738 320 l 738 970 q 759 991 738 991 l 869 991 q 890 970 890 991 l 890 395 q 840 177 890 271 q 697 32 789 83 q 484 -20 605 -20 q 267 32 359 -20 q 126 178 175 83 q 77 398 77 273 l 77 970 q 96 991 77 991 l 210 991 q 229 970 229 991 l 229 397 m 435 1064 q 414 1059 422 1059 q 397 1071 402 1059 l 385 1095 q 381 1110 381 1103 q 394 1129 381 1123 l 596 1231 q 616 1236 608 1236 q 635 1225 629 1236 l 654 1192 q 657 1178 657 1185 q 653 1165 657 1171 q 642 1156 650 1159 l 435 1064 z "},"\u016c":{"ha":968,"x_min":77,"x_max":890,"o":"m 229 397 q 261 259 229 320 q 351 164 293 199 q 484 130 409 130 q 617 164 559 130 q 706 259 675 199 q 738 397 738 320 l 738 970 q 759 991 738 991 l 869 991 q 890 970 890 991 l 890 395 q 840 177 890 271 q 697 32 789 83 q 484 -20 605 -20 q 267 32 359 -20 q 126 178 175 83 q 77 398 77 273 l 77 970 q 96 991 77 991 l 210 991 q 229 970 229 991 l 229 397 m 494 1053 q 385 1088 425 1053 q 346 1187 346 1124 q 352 1205 346 1198 q 368 1211 357 1211 l 399 1211 q 418 1204 411 1211 q 425 1185 425 1197 q 443 1141 425 1157 q 494 1125 461 1125 q 543 1141 525 1125 q 561 1185 561 1158 q 567 1204 561 1198 q 585 1211 574 1211 l 616 1211 q 633 1205 627 1211 q 639 1187 639 1199 q 600 1088 639 1124 q 494 1053 562 1053 z "},"\xdb":{"ha":968,"x_min":77,"x_max":890,"o":"m 229 397 q 261 259 229 320 q 351 164 293 199 q 484 130 409 130 q 617 164 559 130 q 706 259 675 199 q 738 397 738 320 l 738 970 q 759 991 738 991 l 869 991 q 890 970 890 991 l 890 395 q 840 177 890 271 q 697 32 789 83 q 484 -20 605 -20 q 267 32 359 -20 q 126 178 175 83 q 77 398 77 273 l 77 970 q 96 991 77 991 l 210 991 q 229 970 229 991 l 229 397 m 475 1227 q 490 1234 484 1234 q 505 1227 498 1234 l 656 1105 q 665 1088 665 1098 q 661 1076 665 1082 l 643 1052 q 628 1045 637 1045 q 609 1052 618 1045 l 490 1144 l 371 1052 q 353 1045 362 1045 q 338 1053 343 1045 l 320 1078 q 315 1090 315 1085 q 318 1099 315 1095 q 326 1107 321 1103 l 475 1227 z "},"\xdc":{"ha":968,"x_min":77,"x_max":890,"o":"m 229 397 q 261 259 229 320 q 351 164 293 199 q 484 130 409 130 q 617 164 559 130 q 706 259 675 199 q 738 397 738 320 l 738 970 q 759 991 738 991 l 869 991 q 890 970 890 991 l 890 395 q 840 177 890 271 q 697 32 789 83 q 484 -20 605 -20 q 267 32 359 -20 q 126 178 175 83 q 77 398 77 273 l 77 970 q 96 991 77 991 l 210 991 q 229 970 229 991 l 229 397 m 406 1080 q 363 1098 380 1080 q 345 1140 345 1115 q 363 1182 345 1165 q 406 1200 380 1200 q 447 1182 430 1200 q 465 1140 465 1165 q 447 1098 465 1115 q 406 1080 430 1080 m 583 1080 q 540 1098 557 1080 q 522 1140 522 1115 q 540 1182 522 1165 q 583 1200 557 1200 q 625 1182 607 1200 q 642 1140 642 1165 q 625 1098 642 1115 q 583 1080 607 1080 z "},"\u1ee4":{"ha":968,"x_min":77,"x_max":890,"o":"m 229 397 q 261 259 229 320 q 351 164 293 199 q 484 130 409 130 q 617 164 559 130 q 706 259 675 199 q 738 397 738 320 l 738 970 q 759 991 738 991 l 869 991 q 890 970 890 991 l 890 395 q 840 177 890 271 q 697 32 789 83 q 484 -20 605 -20 q 267 32 359 -20 q 126 178 175 83 q 77 398 77 273 l 77 970 q 96 991 77 991 l 210 991 q 229 970 229 991 l 229 397 m 492 -262 q 444 -242 464 -262 q 425 -195 425 -222 q 444 -148 425 -168 q 492 -129 464 -129 q 539 -148 519 -129 q 558 -195 558 -168 q 539 -242 558 -222 q 492 -262 519 -262 z "},"\xd9":{"ha":968,"x_min":77,"x_max":890,"o":"m 229 397 q 261 259 229 320 q 351 164 293 199 q 484 130 409 130 q 617 164 559 130 q 706 259 675 199 q 738 397 738 320 l 738 970 q 759 991 738 991 l 869 991 q 890 970 890 991 l 890 395 q 840 177 890 271 q 697 32 789 83 q 484 -20 605 -20 q 267 32 359 -20 q 126 178 175 83 q 77 398 77 273 l 77 970 q 96 991 77 991 l 210 991 q 229 970 229 991 l 229 397 m 332 1157 q 321 1166 325 1160 q 317 1179 317 1172 q 321 1192 317 1185 l 339 1225 q 358 1237 345 1237 q 378 1232 366 1237 l 581 1130 q 593 1111 593 1124 q 589 1095 593 1103 l 578 1072 q 560 1060 572 1060 q 540 1065 553 1060 l 332 1157 z "},"\u0170":{"ha":968,"x_min":77,"x_max":890,"o":"m 229 397 q 261 259 229 320 q 351 164 293 199 q 484 130 409 130 q 617 164 559 130 q 706 259 675 199 q 738 397 738 320 l 738 970 q 759 991 738 991 l 869 991 q 890 970 890 991 l 890 395 q 840 177 890 271 q 697 32 789 83 q 484 -20 605 -20 q 267 32 359 -20 q 126 178 175 83 q 77 398 77 273 l 77 970 q 96 991 77 991 l 210 991 q 229 970 229 991 l 229 397 m 374 1053 q 353 1046 361 1046 q 336 1057 342 1046 l 323 1079 q 317 1097 317 1090 q 328 1114 317 1107 l 519 1233 q 542 1240 531 1240 q 559 1231 553 1240 l 581 1199 q 585 1184 585 1192 q 572 1163 585 1170 l 374 1053 m 593 1051 q 572 1044 580 1044 q 555 1055 562 1044 l 542 1077 q 536 1095 536 1088 q 547 1112 536 1105 l 739 1232 q 761 1239 750 1239 q 779 1229 772 1239 l 800 1198 q 804 1183 804 1191 q 791 1161 804 1168 l 593 1051 z "},"\u016a":{"ha":968,"x_min":77,"x_max":890,"o":"m 229 397 q 261 259 229 320 q 351 164 293 199 q 484 130 409 130 q 617 164 559 130 q 706 259 675 199 q 738 397 738 320 l 738 970 q 759 991 738 991 l 869 991 q 890 970 890 991 l 890 395 q 840 177 890 271 q 697 32 789 83 q 484 -20 605 -20 q 267 32 359 -20 q 126 178 175 83 q 77 398 77 273 l 77 970 q 96 991 77 991 l 210 991 q 229 970 229 991 l 229 397 z "},"\u0172":{"ha":968,"x_min":77,"x_max":890,"o":"m 869 991 q 890 970 890 991 l 890 395 q 835 169 890 266 q 681 23 780 72 l 684 22 q 591 -49 625 -7 q 557 -134 557 -91 q 583 -193 557 -172 q 652 -214 608 -214 q 694 -210 671 -214 q 738 -199 717 -206 q 745 -197 743 -197 q 760 -209 758 -197 l 767 -255 q 765 -268 768 -262 q 753 -277 761 -274 q 700 -290 729 -286 q 646 -294 671 -294 q 522 -253 567 -294 q 477 -142 477 -213 q 490 -76 477 -108 q 526 -18 503 -44 q 484 -20 506 -20 q 267 32 359 -20 q 126 178 175 83 q 77 398 77 273 l 77 970 q 96 991 77 991 l 210 991 q 229 970 229 991 l 229 397 q 261 259 229 320 q 351 164 293 199 q 484 130 409 130 q 617 164 559 130 q 706 259 675 199 q 738 397 738 320 l 738 970 q 759 991 738 991 l 869 991 z "},"\u016e":{"ha":968,"x_min":77,"x_max":890,"o":"m 229 397 q 261 259 229 320 q 351 164 293 199 q 484 130 409 130 q 617 164 559 130 q 706 259 675 199 q 738 397 738 320 l 738 970 q 759 991 738 991 l 869 991 q 890 970 890 991 l 890 395 q 840 177 890 271 q 697 32 789 83 q 484 -20 605 -20 q 267 32 359 -20 q 126 178 175 83 q 77 398 77 273 l 77 970 q 96 991 77 991 l 210 991 q 229 970 229 991 l 229 397 m 494 1326 q 566 1307 534 1326 q 618 1256 599 1289 q 637 1185 637 1224 q 618 1113 637 1145 q 566 1062 599 1081 q 494 1044 534 1044 q 423 1062 456 1044 q 372 1113 391 1081 q 353 1185 353 1145 q 372 1256 353 1224 q 423 1307 391 1289 q 494 1326 456 1326 m 495 1262 q 440 1239 463 1262 q 418 1185 418 1217 q 440 1131 418 1153 q 495 1108 463 1108 q 550 1131 528 1108 q 572 1185 572 1153 q 550 1239 572 1217 q 495 1262 528 1262 z "},"\u0168":{"ha":968,"x_min":77,"x_max":890,"o":"m 229 397 q 261 259 229 320 q 351 164 293 199 q 484 130 409 130 q 617 164 559 130 q 706 259 675 199 q 738 397 738 320 l 738 970 q 759 991 738 991 l 869 991 q 890 970 890 991 l 890 395 q 840 177 890 271 q 697 32 789 83 q 484 -20 605 -20 q 267 32 359 -20 q 126 178 175 83 q 77 398 77 273 l 77 970 q 96 991 77 991 l 210 991 q 229 970 229 991 l 229 397 m 335 1074 q 328 1089 328 1081 q 337 1109 328 1099 q 382 1151 360 1139 q 433 1163 404 1163 q 461 1157 446 1163 q 504 1135 477 1151 q 532 1120 522 1124 q 550 1116 543 1116 q 574 1122 564 1116 q 600 1147 584 1128 q 616 1157 607 1157 q 630 1149 623 1157 l 652 1127 q 657 1116 657 1122 q 653 1105 657 1111 q 604 1057 628 1072 q 550 1043 581 1043 q 522 1049 537 1043 q 481 1070 506 1055 q 453 1085 463 1081 q 433 1089 442 1089 q 407 1082 418 1089 q 380 1054 395 1075 q 369 1048 376 1048 q 351 1059 361 1048 l 335 1074 z "},"\u1e82":{"ha":1425,"x_min":23,"x_max":1401,"o":"m 1379 991 q 1401 975 1401 991 q 1398 962 1401 968 l 1018 22 q 1005 5 1014 12 q 987 -1 997 -1 l 903 -1 q 884 5 892 -1 q 871 22 876 12 l 711 415 l 553 22 q 541 5 549 12 q 522 -1 532 -1 l 437 -1 q 419 5 427 -1 q 406 22 410 11 l 26 962 q 23 975 23 968 q 45 991 23 991 l 158 991 q 176 985 168 991 q 188 968 184 979 l 479 221 l 772 969 q 783 985 775 979 q 801 991 791 991 l 914 991 q 936 975 936 991 q 933 962 936 968 l 783 591 l 941 215 l 1237 969 q 1248 985 1240 979 q 1265 991 1256 991 l 1379 991 m 691 1065 q 671 1061 678 1061 q 653 1072 659 1061 l 642 1096 q 637 1112 637 1104 q 650 1131 637 1124 l 852 1232 q 873 1238 865 1238 q 892 1226 886 1238 l 910 1193 q 913 1179 913 1186 q 910 1166 913 1173 q 899 1158 906 1160 l 691 1065 z "},"\u0174":{"ha":1425,"x_min":23,"x_max":1401,"o":"m 1379 991 q 1401 975 1401 991 q 1398 962 1401 968 l 1018 22 q 1005 5 1014 12 q 987 -1 997 -1 l 903 -1 q 884 5 892 -1 q 871 22 876 12 l 711 415 l 553 22 q 541 5 549 12 q 522 -1 532 -1 l 437 -1 q 419 5 427 -1 q 406 22 410 11 l 26 962 q 23 975 23 968 q 45 991 23 991 l 158 991 q 176 985 168 991 q 188 968 184 979 l 479 221 l 772 969 q 783 985 775 979 q 801 991 791 991 l 914 991 q 936 975 936 991 q 933 962 936 968 l 783 591 l 941 215 l 1237 969 q 1248 985 1240 979 q 1265 991 1256 991 l 1379 991 m 724 1228 q 739 1235 733 1235 q 754 1228 747 1235 l 905 1105 q 914 1089 914 1099 q 910 1077 914 1083 l 892 1053 q 878 1046 886 1046 q 859 1053 867 1046 l 739 1145 l 621 1053 q 602 1046 612 1046 q 587 1053 593 1046 l 570 1078 q 564 1091 564 1086 q 567 1100 564 1096 q 576 1107 570 1103 l 724 1228 z "},"\u1e84":{"ha":1425,"x_min":23,"x_max":1401,"o":"m 1379 991 q 1401 975 1401 991 q 1398 962 1401 968 l 1018 22 q 1005 5 1014 12 q 987 -1 997 -1 l 903 -1 q 884 5 892 -1 q 871 22 876 12 l 711 415 l 553 22 q 541 5 549 12 q 522 -1 532 -1 l 437 -1 q 419 5 427 -1 q 406 22 410 11 l 26 962 q 23 975 23 968 q 45 991 23 991 l 158 991 q 176 985 168 991 q 188 968 184 979 l 479 221 l 772 969 q 783 985 775 979 q 801 991 791 991 l 914 991 q 936 975 936 991 q 933 962 936 968 l 783 591 l 941 215 l 1237 969 q 1248 985 1240 979 q 1265 991 1256 991 l 1379 991 m 654 1081 q 612 1098 629 1081 q 594 1141 594 1116 q 612 1183 594 1166 q 654 1200 629 1200 q 696 1183 679 1200 q 713 1141 713 1166 q 696 1098 713 1116 q 654 1081 679 1081 m 831 1081 q 789 1098 806 1081 q 771 1141 771 1116 q 789 1183 771 1166 q 831 1200 806 1200 q 873 1183 856 1200 q 891 1141 891 1166 q 873 1098 891 1116 q 831 1081 856 1081 z "},"\u1e80":{"ha":1425,"x_min":23,"x_max":1401,"o":"m 1379 991 q 1401 975 1401 991 q 1398 962 1401 968 l 1018 22 q 1005 5 1014 12 q 987 -1 997 -1 l 903 -1 q 884 5 892 -1 q 871 22 876 12 l 711 415 l 553 22 q 541 5 549 12 q 522 -1 532 -1 l 437 -1 q 419 5 427 -1 q 406 22 410 11 l 26 962 q 23 975 23 968 q 45 991 23 991 l 158 991 q 176 985 168 991 q 188 968 184 979 l 479 221 l 772 969 q 783 985 775 979 q 801 991 791 991 l 914 991 q 936 975 936 991 q 933 962 936 968 l 783 591 l 941 215 l 1237 969 q 1248 985 1240 979 q 1265 991 1256 991 l 1379 991 m 582 1158 q 571 1166 574 1160 q 567 1179 567 1173 q 570 1193 567 1186 l 589 1226 q 608 1238 594 1238 q 628 1232 616 1238 l 830 1131 q 843 1112 843 1124 q 839 1096 843 1104 l 827 1072 q 810 1061 821 1061 q 789 1065 802 1061 l 582 1158 z "},"\xdd":{"ha":858,"x_min":23,"x_max":835,"o":"m 814 991 q 835 976 835 991 q 831 960 835 970 l 506 398 l 506 25 q 481 -1 506 -1 l 378 -1 q 359 6 366 -1 q 353 25 353 12 l 353 398 l 28 961 q 23 977 23 970 q 29 987 23 983 q 45 991 35 991 l 165 991 q 182 986 174 991 q 195 970 190 980 l 429 553 l 663 970 q 676 986 668 981 q 694 991 684 991 l 814 991 m 380 1065 q 359 1061 367 1061 q 342 1072 347 1061 l 330 1096 q 326 1112 326 1104 q 339 1131 326 1124 l 541 1232 q 562 1238 553 1238 q 581 1226 574 1238 l 599 1193 q 602 1179 602 1186 q 598 1166 602 1173 q 587 1158 595 1160 l 380 1065 z "},"\u0176":{"ha":858,"x_min":23,"x_max":835,"o":"m 814 991 q 835 976 835 991 q 831 960 835 970 l 506 398 l 506 25 q 481 -1 506 -1 l 378 -1 q 359 6 366 -1 q 353 25 353 12 l 353 398 l 28 961 q 23 977 23 970 q 29 987 23 983 q 45 991 35 991 l 165 991 q 182 986 174 991 q 195 970 190 980 l 429 553 l 663 970 q 676 986 668 981 q 694 991 684 991 l 814 991 m 413 1228 q 428 1235 422 1235 q 443 1228 436 1235 l 594 1105 q 603 1089 603 1099 q 599 1077 603 1083 l 581 1053 q 566 1046 575 1046 q 547 1053 556 1046 l 428 1145 l 309 1053 q 291 1046 300 1046 q 276 1053 281 1046 l 258 1078 q 253 1091 253 1086 q 256 1100 253 1096 q 264 1107 259 1103 l 413 1228 z "},"\u0178":{"ha":858,"x_min":23,"x_max":835,"o":"m 814 991 q 835 976 835 991 q 831 960 835 970 l 506 398 l 506 25 q 481 -1 506 -1 l 378 -1 q 359 6 366 -1 q 353 25 353 12 l 353 398 l 28 961 q 23 977 23 970 q 29 987 23 983 q 45 991 35 991 l 165 991 q 182 986 174 991 q 195 970 190 980 l 429 553 l 663 970 q 676 986 668 981 q 694 991 684 991 l 814 991 m 343 1081 q 300 1098 318 1081 q 283 1141 283 1116 q 300 1183 283 1166 q 343 1200 318 1200 q 385 1183 368 1200 q 402 1141 402 1166 q 385 1098 402 1116 q 343 1081 368 1081 m 520 1081 q 477 1098 495 1081 q 460 1141 460 1116 q 477 1183 460 1166 q 520 1200 495 1200 q 562 1183 545 1200 q 580 1141 580 1166 q 562 1098 580 1116 q 520 1081 545 1081 z "},"\u1ef2":{"ha":858,"x_min":23,"x_max":835,"o":"m 814 991 q 835 976 835 991 q 831 960 835 970 l 506 398 l 506 25 q 481 -1 506 -1 l 378 -1 q 359 6 366 -1 q 353 25 353 12 l 353 398 l 28 961 q 23 977 23 970 q 29 987 23 983 q 45 991 35 991 l 165 991 q 182 986 174 991 q 195 970 190 980 l 429 553 l 663 970 q 676 986 668 981 q 694 991 684 991 l 814 991 m 271 1158 q 259 1166 263 1160 q 256 1179 256 1173 q 259 1193 256 1186 l 277 1226 q 296 1238 283 1238 q 317 1232 304 1238 l 519 1131 q 532 1112 532 1124 q 528 1096 532 1104 l 516 1072 q 498 1061 510 1061 q 478 1065 491 1061 l 271 1158 z "},"\u0232":{"ha":858,"x_min":23,"x_max":835,"o":"m 814 991 q 835 976 835 991 q 831 960 835 970 l 506 398 l 506 25 q 481 -1 506 -1 l 378 -1 q 359 6 366 -1 q 353 25 353 12 l 353 398 l 28 961 q 23 977 23 970 q 29 987 23 983 q 45 991 35 991 l 165 991 q 182 986 174 991 q 195 970 190 980 l 429 553 l 663 970 q 676 986 668 981 q 694 991 684 991 l 814 991 z "},"\u1ef8":{"ha":858,"x_min":23,"x_max":835,"o":"m 814 991 q 835 976 835 991 q 831 960 835 970 l 506 398 l 506 25 q 481 -1 506 -1 l 378 -1 q 359 6 366 -1 q 353 25 353 12 l 353 398 l 28 961 q 23 977 23 970 q 29 987 23 983 q 45 991 35 991 l 165 991 q 182 986 174 991 q 195 970 190 980 l 429 553 l 663 970 q 676 986 668 981 q 694 991 684 991 l 814 991 m 273 1075 q 267 1090 267 1082 q 275 1110 267 1099 q 320 1152 298 1139 q 371 1164 342 1164 q 400 1158 384 1164 q 442 1136 416 1152 q 471 1120 460 1124 q 488 1116 481 1116 q 512 1123 502 1116 q 538 1148 522 1129 q 554 1158 545 1158 q 568 1150 562 1158 l 590 1128 q 595 1117 595 1123 q 591 1106 595 1112 q 543 1058 566 1072 q 488 1044 519 1044 q 460 1050 475 1044 q 420 1071 444 1056 q 391 1086 401 1082 q 371 1090 380 1090 q 345 1083 356 1090 q 318 1055 334 1076 q 307 1049 314 1049 q 289 1059 299 1049 l 273 1075 z "},"\u0179":{"ha":903,"x_min":70,"x_max":871,"o":"m 847 149 q 865 143 859 149 q 871 125 871 137 l 871 23 q 865 6 871 12 q 847 -1 859 -1 l 94 -1 q 76 5 83 -1 q 70 22 70 12 l 70 94 q 73 110 70 102 q 79 122 75 117 l 638 842 l 111 842 q 93 848 99 842 q 86 865 86 854 l 86 966 q 93 984 86 978 q 111 991 99 991 l 842 991 q 859 985 853 991 q 865 968 865 979 l 865 899 q 858 873 865 882 l 296 149 l 847 149 m 406 1065 q 385 1061 393 1061 q 368 1072 373 1061 l 356 1096 q 352 1112 352 1104 q 365 1131 352 1124 l 567 1232 q 587 1238 579 1238 q 606 1226 600 1238 l 625 1193 q 628 1179 628 1186 q 624 1166 628 1173 q 613 1158 621 1160 l 406 1065 z "},"\u017d":{"ha":903,"x_min":70,"x_max":871,"o":"m 847 149 q 865 143 859 149 q 871 125 871 137 l 871 23 q 865 6 871 12 q 847 -1 859 -1 l 94 -1 q 76 5 83 -1 q 70 22 70 12 l 70 94 q 73 110 70 102 q 79 122 75 117 l 638 842 l 111 842 q 93 848 99 842 q 86 865 86 854 l 86 966 q 93 984 86 978 q 111 991 99 991 l 842 991 q 859 985 853 991 q 865 968 865 979 l 865 899 q 858 873 865 882 l 296 149 l 847 149 m 290 1168 q 281 1176 284 1173 q 278 1185 278 1180 q 283 1198 278 1190 l 301 1223 q 315 1230 306 1230 q 334 1223 326 1230 l 453 1131 l 572 1223 q 591 1230 581 1230 q 606 1223 600 1230 l 624 1199 q 628 1187 628 1194 q 619 1171 628 1177 l 468 1048 q 453 1041 461 1041 q 438 1048 447 1041 l 290 1168 z "},"\u017b":{"ha":903,"x_min":70,"x_max":871,"o":"m 847 149 q 865 143 859 149 q 871 125 871 137 l 871 23 q 865 6 871 12 q 847 -1 859 -1 l 94 -1 q 76 5 83 -1 q 70 22 70 12 l 70 94 q 73 110 70 102 q 79 122 75 117 l 638 842 l 111 842 q 93 848 99 842 q 86 865 86 854 l 86 966 q 93 984 86 978 q 111 991 99 991 l 842 991 q 859 985 853 991 q 865 968 865 979 l 865 899 q 858 873 865 882 l 296 149 l 847 149 m 454 1084 q 407 1104 427 1084 q 387 1152 387 1124 q 407 1198 387 1179 q 454 1217 427 1217 q 502 1198 482 1217 q 521 1152 521 1179 q 502 1104 521 1124 q 454 1084 482 1084 z "},"\xe1":{"ha":664,"x_min":42,"x_max":593,"o":"m 323 606 q 465 578 404 606 q 559 498 526 550 q 593 377 593 447 l 593 20 q 588 5 593 10 q 574 -1 583 -1 l 491 -1 q 481 3 486 -1 q 475 11 477 6 l 465 71 q 382 5 434 29 q 258 -19 331 -19 q 146 4 195 -19 q 70 70 97 27 q 42 170 42 113 q 95 294 42 252 q 245 337 148 336 l 446 338 l 446 366 q 411 451 446 420 q 323 483 376 483 q 237 473 281 483 q 162 446 193 463 q 145 441 153 441 q 127 452 131 441 l 94 515 q 92 527 92 520 q 111 554 92 543 q 209 592 151 578 q 323 606 267 606 m 300 99 q 373 115 339 99 q 426 160 406 132 q 446 223 446 189 l 446 238 l 264 238 q 209 222 229 238 q 189 178 189 206 q 221 121 189 143 q 300 99 253 99 m 314 720 q 292 711 301 711 q 276 720 283 711 l 260 741 q 253 760 253 751 q 263 777 253 770 l 444 913 q 467 922 456 922 q 484 913 477 922 l 508 884 q 514 867 514 877 q 503 847 514 854 l 314 720 z "},"\u0103":{"ha":664,"x_min":42,"x_max":593,"o":"m 323 606 q 465 578 404 606 q 559 498 526 550 q 593 377 593 447 l 593 20 q 588 5 593 10 q 574 -1 583 -1 l 491 -1 q 481 3 486 -1 q 475 11 477 6 l 465 71 q 382 5 434 29 q 258 -19 331 -19 q 146 4 195 -19 q 70 70 97 27 q 42 170 42 113 q 95 294 42 252 q 245 337 148 336 l 446 338 l 446 366 q 411 451 446 420 q 323 483 376 483 q 237 473 281 483 q 162 446 193 463 q 145 441 153 441 q 127 452 131 441 l 94 515 q 92 527 92 520 q 111 554 92 543 q 209 592 151 578 q 323 606 267 606 m 300 99 q 373 115 339 99 q 426 160 406 132 q 446 223 446 189 l 446 238 l 264 238 q 209 222 229 238 q 189 178 189 206 q 221 121 189 143 q 300 99 253 99 m 323 721 q 207 761 249 722 q 164 868 164 800 q 170 887 164 880 q 188 894 176 894 l 222 894 q 242 886 235 894 q 250 865 250 878 q 270 818 250 835 q 324 800 290 800 q 378 818 359 800 q 397 866 397 835 q 405 886 397 879 q 425 894 412 894 l 458 894 q 476 887 470 894 q 483 868 483 880 q 440 760 483 799 q 323 721 397 721 z "},"\xe2":{"ha":664,"x_min":42,"x_max":593,"o":"m 323 606 q 465 578 404 606 q 559 498 526 550 q 593 377 593 447 l 593 20 q 588 5 593 10 q 574 -1 583 -1 l 491 -1 q 481 3 486 -1 q 475 11 477 6 l 465 71 q 382 5 434 29 q 258 -19 331 -19 q 146 4 195 -19 q 70 70 97 27 q 42 170 42 113 q 95 294 42 252 q 245 337 148 336 l 446 338 l 446 366 q 411 451 446 420 q 323 483 376 483 q 237 473 281 483 q 162 446 193 463 q 145 441 153 441 q 127 452 131 441 l 94 515 q 92 527 92 520 q 111 554 92 543 q 209 592 151 578 q 323 606 267 606 m 300 99 q 373 115 339 99 q 426 160 406 132 q 446 223 446 189 l 446 238 l 264 238 q 209 222 229 238 q 189 178 189 206 q 221 121 189 143 q 300 99 253 99 m 308 902 q 323 909 317 909 q 339 902 332 909 l 495 768 q 505 749 505 760 q 500 736 505 743 l 481 710 q 467 703 476 703 q 447 710 458 703 l 323 810 l 201 710 q 181 703 190 703 q 166 711 172 703 l 148 739 q 142 753 142 747 q 147 764 142 760 q 153 770 152 769 l 308 902 z "},"\xe4":{"ha":664,"x_min":42,"x_max":593,"o":"m 323 606 q 465 578 404 606 q 559 498 526 550 q 593 377 593 447 l 593 20 q 588 5 593 10 q 574 -1 583 -1 l 491 -1 q 481 3 486 -1 q 475 11 477 6 l 465 71 q 382 5 434 29 q 258 -19 331 -19 q 146 4 195 -19 q 70 70 97 27 q 42 170 42 113 q 95 294 42 252 q 245 337 148 336 l 446 338 l 446 366 q 411 451 446 420 q 323 483 376 483 q 237 473 281 483 q 162 446 193 463 q 145 441 153 441 q 127 452 131 441 l 94 515 q 92 527 92 520 q 111 554 92 543 q 209 592 151 578 q 323 606 267 606 m 300 99 q 373 115 339 99 q 426 160 406 132 q 446 223 446 189 l 446 238 l 264 238 q 209 222 229 238 q 189 178 189 206 q 221 121 189 143 q 300 99 253 99 m 234 739 q 186 758 206 739 q 167 806 167 778 q 186 853 167 833 q 234 872 206 872 q 281 853 261 872 q 300 806 300 833 q 281 758 300 778 q 234 739 262 739 m 412 739 q 364 758 384 739 q 345 806 345 778 q 364 853 345 833 q 412 872 384 872 q 458 853 439 872 q 477 806 477 833 q 458 758 477 778 q 412 739 439 739 z "},"\u1ea1":{"ha":664,"x_min":42,"x_max":593,"o":"m 323 606 q 465 578 404 606 q 559 498 526 550 q 593 377 593 447 l 593 20 q 588 5 593 10 q 574 -1 583 -1 l 491 -1 q 481 3 486 -1 q 475 11 477 6 l 465 71 q 382 5 434 29 q 258 -19 331 -19 q 146 4 195 -19 q 70 70 97 27 q 42 170 42 113 q 95 294 42 252 q 245 337 148 336 l 446 338 l 446 366 q 411 451 446 420 q 323 483 376 483 q 237 473 281 483 q 162 446 193 463 q 145 441 153 441 q 127 452 131 441 l 94 515 q 92 527 92 520 q 111 554 92 543 q 209 592 151 578 q 323 606 267 606 m 300 99 q 373 115 339 99 q 426 160 406 132 q 446 223 446 189 l 446 238 l 264 238 q 209 222 229 238 q 189 178 189 206 q 221 121 189 143 q 300 99 253 99 m 307 -252 q 259 -233 279 -252 q 239 -185 239 -213 q 259 -139 239 -158 q 307 -119 279 -119 q 354 -139 334 -119 q 373 -185 373 -158 q 354 -233 373 -213 q 307 -252 334 -252 z "},"\xe0":{"ha":664,"x_min":42,"x_max":593,"o":"m 323 606 q 465 578 404 606 q 559 498 526 550 q 593 377 593 447 l 593 20 q 588 5 593 10 q 574 -1 583 -1 l 491 -1 q 481 3 486 -1 q 475 11 477 6 l 465 71 q 382 5 434 29 q 258 -19 331 -19 q 146 4 195 -19 q 70 70 97 27 q 42 170 42 113 q 95 294 42 252 q 245 337 148 336 l 446 338 l 446 366 q 411 451 446 420 q 323 483 376 483 q 237 473 281 483 q 162 446 193 463 q 145 441 153 441 q 127 452 131 441 l 94 515 q 92 527 92 520 q 111 554 92 543 q 209 592 151 578 q 323 606 267 606 m 300 99 q 373 115 339 99 q 426 160 406 132 q 446 223 446 189 l 446 238 l 264 238 q 209 222 229 238 q 189 178 189 206 q 221 121 189 143 q 300 99 253 99 m 174 847 q 162 867 162 854 q 168 884 162 877 l 192 913 q 209 922 199 922 q 232 913 220 922 l 413 777 q 423 760 423 770 q 416 741 423 751 l 400 720 q 385 711 393 711 q 362 720 375 711 l 174 847 z "},"\u0101":{"ha":664,"x_min":42,"x_max":593,"o":"m 323 606 q 465 578 404 606 q 559 498 526 550 q 593 377 593 447 l 593 20 q 588 5 593 10 q 574 -1 583 -1 l 491 -1 q 481 3 486 -1 q 475 11 477 6 l 465 71 q 382 5 434 29 q 258 -19 331 -19 q 146 4 195 -19 q 70 70 97 27 q 42 170 42 113 q 95 294 42 252 q 245 337 148 336 l 446 338 l 446 366 q 411 451 446 420 q 323 483 376 483 q 237 473 281 483 q 162 446 193 463 q 145 441 153 441 q 127 452 131 441 l 94 515 q 92 527 92 520 q 111 554 92 543 q 209 592 151 578 q 323 606 267 606 m 300 99 q 373 115 339 99 q 426 160 406 132 q 446 223 446 189 l 446 238 l 264 238 q 209 222 229 238 q 189 178 189 206 q 221 121 189 143 q 300 99 253 99 m 184 805 q 189 817 184 812 q 201 822 194 822 l 446 822 q 458 818 454 822 q 462 806 462 813 l 462 759 q 457 747 462 752 q 446 743 452 743 l 201 743 q 190 747 195 743 q 184 759 184 751 l 184 805 z "},"\u0105":{"ha":664,"x_min":42,"x_max":661,"o":"m 660 -277 q 657 -291 661 -285 q 646 -299 654 -296 q 539 -316 600 -316 q 415 -276 460 -316 q 370 -165 370 -236 q 399 -66 370 -112 q 479 5 429 -21 q 475 11 477 8 l 465 71 q 382 5 434 29 q 258 -19 331 -19 q 146 4 195 -19 q 70 70 97 27 q 42 170 42 113 q 95 294 42 252 q 245 337 148 336 l 446 338 l 446 366 q 411 451 446 420 q 323 483 376 483 q 237 473 281 483 q 162 446 193 463 q 145 441 153 441 q 127 452 131 441 l 94 515 q 92 527 92 520 q 111 554 92 543 q 209 592 151 578 q 323 606 267 606 q 465 578 404 606 q 559 498 526 550 q 593 377 593 447 l 593 20 q 588 5 593 11 q 575 -1 583 0 q 484 -72 517 -31 q 450 -157 450 -113 q 476 -215 450 -194 q 545 -237 501 -237 q 631 -222 587 -237 q 639 -220 633 -220 q 653 -232 651 -220 l 660 -277 m 300 99 q 373 115 339 99 q 426 160 406 132 q 446 223 446 189 l 446 238 l 264 238 q 209 222 229 238 q 189 178 189 206 q 221 121 189 143 q 300 99 253 99 z "},"\xe5":{"ha":664,"x_min":42,"x_max":593,"o":"m 323 606 q 465 578 404 606 q 559 498 526 550 q 593 377 593 447 l 593 20 q 588 5 593 10 q 574 -1 583 -1 l 491 -1 q 481 3 486 -1 q 475 11 477 6 l 465 71 q 382 5 434 29 q 258 -19 331 -19 q 146 4 195 -19 q 70 70 97 27 q 42 170 42 113 q 95 294 42 252 q 245 337 148 336 l 446 338 l 446 366 q 411 451 446 420 q 323 483 376 483 q 237 473 281 483 q 162 446 193 463 q 145 441 153 441 q 127 452 131 441 l 94 515 q 92 527 92 520 q 111 554 92 543 q 209 592 151 578 q 323 606 267 606 m 300 99 q 373 115 339 99 q 426 160 406 132 q 446 223 446 189 l 446 238 l 264 238 q 209 222 229 238 q 189 178 189 206 q 221 121 189 143 q 300 99 253 99 m 323 975 q 402 954 367 975 q 459 898 438 933 q 480 820 480 863 q 459 742 480 777 q 402 686 438 707 q 323 665 367 665 q 245 686 281 665 q 190 742 210 707 q 169 820 169 777 q 190 898 169 863 q 245 954 210 933 q 323 975 281 975 m 324 905 q 263 880 288 905 q 239 820 239 855 q 263 760 239 785 q 324 736 288 736 q 384 760 359 736 q 409 820 409 785 q 384 880 409 856 q 324 905 359 905 z "},"\u01fb":{"ha":664,"x_min":42,"x_max":593,"o":"m 323 606 q 465 578 404 606 q 559 498 526 550 q 593 377 593 447 l 593 20 q 588 5 593 10 q 574 -1 583 -1 l 491 -1 q 481 3 486 -1 q 475 11 477 6 l 465 71 q 382 5 434 29 q 258 -19 331 -19 q 146 4 195 -19 q 70 70 97 27 q 42 170 42 113 q 95 294 42 252 q 245 337 148 336 l 446 338 l 446 366 q 411 451 446 420 q 323 483 376 483 q 237 473 281 483 q 162 446 193 463 q 145 441 153 441 q 127 452 131 441 l 94 515 q 92 527 92 520 q 111 554 92 543 q 209 592 151 578 q 323 606 267 606 m 300 99 q 373 115 339 99 q 426 160 406 132 q 446 223 446 189 l 446 238 l 264 238 q 209 222 229 238 q 189 178 189 206 q 221 121 189 143 q 300 99 253 99 m 323 975 q 402 954 367 975 q 459 898 438 933 q 480 820 480 863 q 459 742 480 777 q 402 686 438 707 q 323 665 367 665 q 245 686 281 665 q 190 742 210 707 q 169 820 169 777 q 190 898 169 863 q 245 954 210 933 q 323 975 281 975 m 324 905 q 263 880 288 905 q 239 820 239 855 q 263 760 239 785 q 324 736 288 736 q 384 760 359 736 q 409 820 409 785 q 384 880 409 856 q 324 905 359 905 m 314 1024 q 292 1015 301 1015 q 276 1024 283 1015 l 260 1045 q 253 1063 253 1055 q 263 1081 253 1074 l 444 1217 q 467 1226 456 1226 q 484 1217 477 1226 l 508 1187 q 514 1171 514 1181 q 503 1151 514 1158 l 314 1024 z "},"\xe3":{"ha":664,"x_min":42,"x_max":593,"o":"m 323 606 q 465 578 404 606 q 559 498 526 550 q 593 377 593 447 l 593 20 q 588 5 593 10 q 574 -1 583 -1 l 491 -1 q 481 3 486 -1 q 475 11 477 6 l 465 71 q 382 5 434 29 q 258 -19 331 -19 q 146 4 195 -19 q 70 70 97 27 q 42 170 42 113 q 95 294 42 252 q 245 337 148 336 l 446 338 l 446 366 q 411 451 446 420 q 323 483 376 483 q 237 473 281 483 q 162 446 193 463 q 145 441 153 441 q 127 452 131 441 l 94 515 q 92 527 92 520 q 111 554 92 543 q 209 592 151 578 q 323 606 267 606 m 300 99 q 373 115 339 99 q 426 160 406 132 q 446 223 446 189 l 446 238 l 264 238 q 209 222 229 238 q 189 178 189 206 q 221 121 189 143 q 300 99 253 99 m 149 762 q 141 777 141 768 q 151 798 141 788 q 198 842 175 829 q 254 854 222 854 q 285 848 268 854 q 331 825 302 842 q 362 810 351 814 q 382 806 373 806 q 408 812 396 806 q 436 838 419 819 q 453 849 444 849 q 469 841 460 849 l 492 817 q 498 806 498 812 q 493 795 498 800 q 440 744 466 759 q 382 729 414 729 q 351 735 368 729 q 307 758 334 741 q 276 773 288 769 q 254 777 264 777 q 226 770 239 777 q 197 741 214 762 q 185 734 192 734 q 165 745 176 734 l 149 762 z "},"\u01fd":{"ha":1090,"x_min":42,"x_max":1057,"o":"m 760 605 q 912 563 844 605 q 1019 449 981 521 q 1055 293 1057 378 q 1036 249 1055 264 q 993 233 1018 233 l 608 233 q 669 148 626 181 q 766 115 712 115 q 891 161 825 115 q 903 165 899 165 q 918 157 911 165 q 939 128 925 146 q 967 87 956 104 q 972 73 972 81 q 965 60 972 66 q 764 -18 874 -18 q 643 5 701 -18 q 543 72 586 29 q 444 5 507 29 q 292 -19 382 -19 q 157 4 213 -19 q 71 70 100 27 q 42 170 42 112 q 96 294 42 250 q 245 338 150 338 l 445 338 l 445 372 q 413 445 445 423 q 323 466 380 466 q 244 455 284 466 q 168 428 203 445 q 151 425 159 425 q 132 435 138 425 l 94 515 q 92 526 92 522 q 111 554 92 543 q 209 592 151 578 q 323 606 267 606 q 452 583 395 606 q 544 519 509 561 q 642 583 587 560 q 760 605 697 605 m 758 461 q 658 429 701 461 q 602 344 615 397 l 903 344 q 852 429 890 397 q 758 461 814 461 m 288 117 q 402 146 359 117 q 445 229 445 176 l 445 232 l 277 232 q 211 221 232 232 q 189 181 189 210 q 217 131 189 146 q 288 117 245 117 m 543 710 q 520 701 530 701 q 505 710 511 701 l 489 731 q 481 749 481 741 q 492 767 481 760 l 673 903 q 696 912 684 912 q 713 903 706 912 l 736 873 q 743 857 743 867 q 731 837 743 844 l 543 710 z "},"\u0107":{"ha":612,"x_min":37,"x_max":566,"o":"m 479 172 q 491 175 486 175 q 506 168 500 175 l 561 87 q 566 75 566 81 q 557 59 566 66 q 461 2 514 22 q 351 -18 409 -18 q 194 24 266 -18 q 79 137 121 66 q 37 294 37 209 q 79 450 37 378 q 193 563 121 522 q 351 605 265 605 q 463 585 409 605 q 558 529 516 565 q 566 515 566 522 q 561 501 566 508 l 507 418 q 492 410 500 410 q 479 414 486 410 q 353 462 420 462 q 269 439 307 462 q 209 378 231 417 q 187 294 187 340 q 210 210 187 249 q 270 148 232 171 q 353 125 308 125 q 479 172 423 125 m 341 707 q 319 699 328 699 q 303 707 310 699 l 288 728 q 280 747 280 738 q 290 764 280 757 l 471 900 q 494 909 483 909 q 511 901 505 909 l 535 871 q 541 854 541 864 q 530 834 541 841 l 341 707 z "},"\u010d":{"ha":612,"x_min":37,"x_max":566,"o":"m 479 172 q 491 175 486 175 q 506 168 500 175 l 561 87 q 566 75 566 81 q 557 59 566 66 q 461 2 514 22 q 351 -18 409 -18 q 194 24 266 -18 q 79 137 121 66 q 37 294 37 209 q 79 450 37 378 q 193 563 121 522 q 351 605 265 605 q 463 585 409 605 q 558 529 516 565 q 566 515 566 522 q 561 501 566 508 l 507 418 q 492 410 500 410 q 479 414 486 410 q 353 462 420 462 q 269 439 307 462 q 209 378 231 417 q 187 294 187 340 q 210 210 187 249 q 270 148 232 171 q 353 125 308 125 q 479 172 423 125 m 180 829 q 173 835 178 830 q 168 846 168 840 q 174 861 168 852 l 193 888 q 207 896 197 896 q 227 888 218 896 l 350 788 l 473 888 q 494 896 483 896 q 508 889 503 896 l 527 862 q 531 849 531 856 q 522 831 531 838 l 366 697 q 349 690 358 690 q 334 697 342 690 l 180 829 z "},"\xe7":{"ha":612,"x_min":37,"x_max":566,"o":"m 561 87 q 566 75 566 81 q 557 59 566 66 q 389 -16 483 -4 l 380 -97 q 432 -116 413 -97 q 450 -170 450 -136 q 449 -188 450 -176 l 445 -224 q 404 -305 439 -275 q 316 -334 370 -334 l 249 -334 q 240 -331 243 -334 q 238 -321 237 -328 l 244 -267 q 249 -259 245 -262 q 258 -256 252 -256 l 326 -256 q 353 -248 342 -256 q 367 -223 364 -239 l 371 -188 q 372 -181 372 -186 q 362 -160 372 -168 q 334 -152 352 -152 l 308 -152 q 299 -149 302 -152 q 296 -140 296 -145 l 311 -16 q 171 38 234 -6 q 73 149 109 81 q 37 294 37 216 q 79 450 37 378 q 193 563 121 522 q 351 605 265 605 q 463 585 409 605 q 558 529 516 565 q 566 515 566 522 q 561 501 566 508 l 507 418 q 492 410 500 410 q 479 414 486 410 q 353 462 420 462 q 269 439 307 462 q 209 378 231 417 q 187 294 187 340 q 210 210 187 249 q 270 148 232 171 q 353 125 308 125 q 479 172 423 125 q 491 175 486 175 q 506 168 500 175 l 561 87 z "},"\u0109":{"ha":612,"x_min":37,"x_max":566,"o":"m 479 172 q 491 175 486 175 q 506 168 500 175 l 561 87 q 566 75 566 81 q 557 59 566 66 q 461 2 514 22 q 351 -18 409 -18 q 194 24 266 -18 q 79 137 121 66 q 37 294 37 209 q 79 450 37 378 q 193 563 121 522 q 351 605 265 605 q 463 585 409 605 q 558 529 516 565 q 566 515 566 522 q 561 501 566 508 l 507 418 q 492 410 500 410 q 479 414 486 410 q 353 462 420 462 q 269 439 307 462 q 209 378 231 417 q 187 294 187 340 q 210 210 187 249 q 270 148 232 171 q 353 125 308 125 q 479 172 423 125 m 335 889 q 350 897 344 897 q 366 889 359 897 l 522 755 q 532 736 532 747 q 528 724 532 730 l 509 697 q 494 690 503 690 q 474 697 485 690 l 351 798 l 228 697 q 208 690 217 690 q 193 698 199 690 l 175 726 q 169 740 169 734 q 174 751 169 747 q 180 758 179 756 l 335 889 z "},"\u010b":{"ha":612,"x_min":37,"x_max":566,"o":"m 479 172 q 491 175 486 175 q 506 168 500 175 l 561 87 q 566 75 566 81 q 557 59 566 66 q 461 2 514 22 q 351 -18 409 -18 q 194 24 266 -18 q 79 137 121 66 q 37 294 37 209 q 79 450 37 378 q 193 563 121 522 q 351 605 265 605 q 463 585 409 605 q 558 529 516 565 q 566 515 566 522 q 561 501 566 508 l 507 418 q 492 410 500 410 q 479 414 486 410 q 353 462 420 462 q 269 439 307 462 q 209 378 231 417 q 187 294 187 340 q 210 210 187 249 q 270 148 232 171 q 353 125 308 125 q 479 172 423 125 m 349 726 q 302 745 321 726 q 282 793 282 765 q 302 840 282 821 q 349 859 321 859 q 396 840 376 859 q 416 793 416 821 q 396 745 416 765 q 349 726 377 726 z "},"\u010f":{"ha":747,"x_min":37,"x_max":800,"o":"m 645 991 q 660 986 654 991 q 665 972 665 981 l 665 20 q 660 5 665 10 q 645 -1 654 -1 l 556 -1 q 546 2 551 -1 q 541 10 542 5 l 528 90 q 438 10 492 38 q 319 -18 384 -18 q 174 22 239 -18 q 73 134 110 63 q 37 294 37 205 q 73 453 37 382 q 174 565 109 524 q 319 605 238 605 q 432 580 380 605 q 519 510 483 555 l 517 972 q 522 986 517 981 q 536 991 527 991 l 645 991 m 347 124 q 432 147 393 124 q 494 209 471 170 q 517 294 517 248 q 494 379 517 340 q 432 439 471 417 q 346 462 393 462 q 262 439 300 462 q 201 378 224 417 q 179 294 179 340 q 201 209 179 248 q 262 147 224 170 q 347 124 300 124 m 783 760 q 775 743 783 749 q 756 736 768 736 l 734 736 q 715 743 722 736 q 708 760 708 749 l 709 962 q 735 994 709 994 l 772 994 q 797 965 800 994 l 783 760 z "},"\u0111":{"ha":747,"x_min":37,"x_max":739,"o":"m 720 781 q 739 763 739 781 l 739 736 q 720 718 739 718 l 665 718 l 665 20 q 660 5 665 10 q 645 -1 654 -1 l 556 -1 q 546 2 551 -1 q 541 10 542 5 l 528 90 q 438 10 492 38 q 319 -18 384 -18 q 174 22 239 -18 q 73 134 110 63 q 37 294 37 205 q 73 453 37 382 q 174 565 109 524 q 319 605 238 605 q 432 580 380 605 q 519 510 483 555 l 517 718 l 444 718 q 425 736 425 718 l 425 763 q 444 781 425 781 l 517 781 l 517 972 q 522 986 517 981 q 536 991 527 991 l 645 991 q 660 986 654 991 q 665 972 665 981 l 665 781 l 720 781 m 347 124 q 432 147 393 124 q 494 209 471 170 q 517 294 517 248 q 494 379 517 340 q 432 439 471 417 q 346 462 393 462 q 262 439 300 462 q 201 378 224 417 q 179 294 179 340 q 201 209 179 248 q 262 147 224 170 q 347 124 300 124 z "},"\xe9":{"ha":677,"x_min":37,"x_max":644,"o":"m 347 605 q 500 563 432 605 q 607 449 569 521 q 643 293 644 378 q 624 249 642 264 q 581 233 606 233 l 195 233 q 257 148 214 181 q 354 115 300 115 q 479 161 412 115 q 492 165 486 165 q 505 157 499 165 l 529 124 q 555 87 545 102 q 559 74 559 81 q 553 60 559 66 q 352 -18 462 -18 q 194 24 266 -18 q 79 137 121 66 q 37 294 37 209 q 78 450 37 379 q 190 563 119 522 q 347 605 261 605 m 346 461 q 245 429 288 461 q 190 344 203 397 l 490 344 q 440 429 478 397 q 346 461 402 461 m 342 707 q 320 699 330 699 q 304 707 311 699 l 289 728 q 281 747 281 738 q 292 764 281 757 l 473 900 q 496 909 484 909 q 513 901 506 909 l 536 871 q 543 854 543 864 q 531 834 543 841 l 342 707 z "},"\u0115":{"ha":677,"x_min":37,"x_max":644,"o":"m 347 605 q 500 563 432 605 q 607 449 569 521 q 643 293 644 378 q 624 249 642 264 q 581 233 606 233 l 195 233 q 257 148 214 181 q 354 115 300 115 q 479 161 412 115 q 492 165 486 165 q 505 157 499 165 l 529 124 q 555 87 545 102 q 559 74 559 81 q 553 60 559 66 q 352 -18 462 -18 q 194 24 266 -18 q 79 137 121 66 q 37 294 37 209 q 78 450 37 379 q 190 563 119 522 q 347 605 261 605 m 346 461 q 245 429 288 461 q 190 344 203 397 l 490 344 q 440 429 478 397 q 346 461 402 461 m 351 708 q 235 748 277 709 q 193 855 193 787 q 199 874 193 867 q 216 881 205 881 l 250 881 q 271 873 263 881 q 278 852 278 865 q 298 805 278 822 q 353 787 318 787 q 407 805 387 787 q 426 853 426 822 q 433 873 426 866 q 453 881 440 881 l 487 881 q 505 874 498 881 q 511 855 511 867 q 469 747 511 786 q 351 708 426 708 z "},"\u011b":{"ha":677,"x_min":37,"x_max":644,"o":"m 347 605 q 500 563 432 605 q 607 449 569 521 q 643 293 644 378 q 624 249 642 264 q 581 233 606 233 l 195 233 q 257 148 214 181 q 354 115 300 115 q 479 161 412 115 q 492 165 486 165 q 505 157 499 165 l 529 124 q 555 87 545 102 q 559 74 559 81 q 553 60 559 66 q 352 -18 462 -18 q 194 24 266 -18 q 79 137 121 66 q 37 294 37 209 q 78 450 37 379 q 190 563 119 522 q 347 605 261 605 m 346 461 q 245 429 288 461 q 190 344 203 397 l 490 344 q 440 429 478 397 q 346 461 402 461 m 181 829 q 175 835 180 830 q 170 846 170 840 q 176 861 170 852 l 194 888 q 208 896 199 896 q 229 888 219 896 l 351 788 l 475 888 q 495 896 484 896 q 509 889 505 896 l 528 862 q 532 849 532 856 q 523 831 532 838 l 367 697 q 351 690 359 690 q 336 697 343 690 l 181 829 z "},"\xea":{"ha":677,"x_min":37,"x_max":644,"o":"m 347 605 q 500 563 432 605 q 607 449 569 521 q 643 293 644 378 q 624 249 642 264 q 581 233 606 233 l 195 233 q 257 148 214 181 q 354 115 300 115 q 479 161 412 115 q 492 165 486 165 q 505 157 499 165 l 529 124 q 555 87 545 102 q 559 74 559 81 q 553 60 559 66 q 352 -18 462 -18 q 194 24 266 -18 q 79 137 121 66 q 37 294 37 209 q 78 450 37 379 q 190 563 119 522 q 347 605 261 605 m 346 461 q 245 429 288 461 q 190 344 203 397 l 490 344 q 440 429 478 397 q 346 461 402 461 m 336 889 q 351 897 345 897 q 368 889 360 897 l 524 755 q 533 736 533 747 q 529 724 533 730 l 510 697 q 495 690 505 690 q 475 697 486 690 l 352 798 l 229 697 q 210 690 218 690 q 195 698 200 690 l 176 726 q 170 740 170 734 q 175 751 170 747 q 182 758 180 756 l 336 889 z "},"\xeb":{"ha":677,"x_min":37,"x_max":644,"o":"m 347 605 q 500 563 432 605 q 607 449 569 521 q 643 293 644 378 q 624 249 642 264 q 581 233 606 233 l 195 233 q 257 148 214 181 q 354 115 300 115 q 479 161 412 115 q 492 165 486 165 q 505 157 499 165 l 529 124 q 555 87 545 102 q 559 74 559 81 q 553 60 559 66 q 352 -18 462 -18 q 194 24 266 -18 q 79 137 121 66 q 37 294 37 209 q 78 450 37 379 q 190 563 119 522 q 347 605 261 605 m 346 461 q 245 429 288 461 q 190 344 203 397 l 490 344 q 440 429 478 397 q 346 461 402 461 m 262 726 q 215 745 235 726 q 195 793 195 765 q 215 840 195 821 q 262 859 235 859 q 309 840 290 859 q 329 793 329 821 q 310 745 329 765 q 262 726 290 726 m 440 726 q 393 745 412 726 q 373 793 373 765 q 393 840 373 821 q 440 859 412 859 q 487 840 467 859 q 506 793 506 821 q 487 745 506 765 q 440 726 467 726 z "},"\u0117":{"ha":677,"x_min":37,"x_max":644,"o":"m 347 605 q 500 563 432 605 q 607 449 569 521 q 643 293 644 378 q 624 249 642 264 q 581 233 606 233 l 195 233 q 257 148 214 181 q 354 115 300 115 q 479 161 412 115 q 492 165 486 165 q 505 157 499 165 l 529 124 q 555 87 545 102 q 559 74 559 81 q 553 60 559 66 q 352 -18 462 -18 q 194 24 266 -18 q 79 137 121 66 q 37 294 37 209 q 78 450 37 379 q 190 563 119 522 q 347 605 261 605 m 346 461 q 245 429 288 461 q 190 344 203 397 l 490 344 q 440 429 478 397 q 346 461 402 461 m 351 726 q 303 745 323 726 q 283 793 283 765 q 303 840 283 821 q 351 859 323 859 q 397 840 378 859 q 417 793 417 821 q 398 745 417 765 q 351 726 378 726 z "},"\u1eb9":{"ha":677,"x_min":37,"x_max":644,"o":"m 347 605 q 500 563 432 605 q 607 449 569 521 q 643 293 644 378 q 624 249 642 264 q 581 233 606 233 l 195 233 q 257 148 214 181 q 354 115 300 115 q 479 161 412 115 q 492 165 486 165 q 505 157 499 165 l 529 124 q 555 87 545 102 q 559 74 559 81 q 553 60 559 66 q 352 -18 462 -18 q 194 24 266 -18 q 79 137 121 66 q 37 294 37 209 q 78 450 37 379 q 190 563 119 522 q 347 605 261 605 m 346 461 q 245 429 288 461 q 190 344 203 397 l 490 344 q 440 429 478 397 q 346 461 402 461 m 356 -256 q 309 -236 328 -256 q 289 -189 289 -216 q 309 -142 289 -161 q 356 -123 328 -123 q 403 -142 384 -123 q 422 -189 422 -161 q 403 -236 422 -216 q 356 -256 384 -256 z "},"\xe8":{"ha":677,"x_min":37,"x_max":644,"o":"m 347 605 q 500 563 432 605 q 607 449 569 521 q 643 293 644 378 q 624 249 642 264 q 581 233 606 233 l 195 233 q 257 148 214 181 q 354 115 300 115 q 479 161 412 115 q 492 165 486 165 q 505 157 499 165 l 529 124 q 555 87 545 102 q 559 74 559 81 q 553 60 559 66 q 352 -18 462 -18 q 194 24 266 -18 q 79 137 121 66 q 37 294 37 209 q 78 450 37 379 q 190 563 119 522 q 347 605 261 605 m 346 461 q 245 429 288 461 q 190 344 203 397 l 490 344 q 440 429 478 397 q 346 461 402 461 m 202 834 q 191 854 191 841 q 197 871 191 864 l 220 901 q 237 909 227 909 q 260 900 249 909 l 441 764 q 452 747 452 757 q 444 728 452 738 l 429 707 q 413 699 422 699 q 391 707 404 699 l 202 834 z "},"\u0113":{"ha":677,"x_min":37,"x_max":644,"o":"m 347 605 q 500 563 432 605 q 607 449 569 521 q 643 293 644 378 q 624 249 642 264 q 581 233 606 233 l 195 233 q 257 148 214 181 q 354 115 300 115 q 479 161 412 115 q 492 165 486 165 q 505 157 499 165 l 529 124 q 555 87 545 102 q 559 74 559 81 q 553 60 559 66 q 352 -18 462 -18 q 194 24 266 -18 q 79 137 121 66 q 37 294 37 209 q 78 450 37 379 q 190 563 119 522 q 347 605 261 605 m 346 461 q 245 429 288 461 q 190 344 203 397 l 490 344 q 440 429 478 397 q 346 461 402 461 m 213 792 q 218 804 213 800 q 230 809 222 809 l 475 809 q 486 805 482 809 q 490 793 490 800 l 490 746 q 486 734 490 739 q 474 730 481 730 l 229 730 q 218 734 223 730 q 213 746 213 739 l 213 792 z "},"\u0119":{"ha":677,"x_min":37,"x_max":644,"o":"m 347 605 q 500 563 432 605 q 607 449 569 521 q 643 293 644 378 q 624 249 642 264 q 581 233 606 233 l 195 233 q 257 148 214 181 q 354 115 300 115 q 479 161 412 115 q 492 165 486 165 q 505 157 499 165 l 529 124 q 555 87 545 102 q 559 74 559 81 q 553 60 559 66 q 485 14 522 33 l 488 13 q 396 -59 429 -18 q 363 -144 363 -101 q 388 -203 363 -182 q 457 -224 413 -224 q 543 -209 502 -224 l 551 -208 q 566 -219 564 -208 l 572 -264 q 569 -278 573 -272 q 557 -287 566 -284 q 505 -300 534 -296 q 451 -304 476 -304 q 328 -264 372 -304 q 283 -154 283 -224 q 298 -80 283 -115 q 341 -18 313 -45 q 188 27 257 -16 q 77 140 118 70 q 37 294 37 211 q 78 450 37 379 q 190 563 119 522 q 347 605 261 605 m 346 461 q 245 429 288 461 q 190 344 203 397 l 490 344 q 440 429 478 397 q 346 461 402 461 z "},"\u1ebd":{"ha":677,"x_min":37,"x_max":644,"o":"m 347 605 q 500 563 432 605 q 607 449 569 521 q 643 293 644 378 q 624 249 642 264 q 581 233 606 233 l 195 233 q 257 148 214 181 q 354 115 300 115 q 479 161 412 115 q 492 165 486 165 q 505 157 499 165 l 529 124 q 555 87 545 102 q 559 74 559 81 q 553 60 559 66 q 352 -18 462 -18 q 194 24 266 -18 q 79 137 121 66 q 37 294 37 209 q 78 450 37 379 q 190 563 119 522 q 347 605 261 605 m 346 461 q 245 429 288 461 q 190 344 203 397 l 490 344 q 440 429 478 397 q 346 461 402 461 m 177 749 q 170 764 170 755 q 179 785 170 775 q 227 829 203 817 q 283 842 250 842 q 314 835 296 842 q 359 812 331 829 q 391 797 380 801 q 410 793 401 793 q 436 799 425 793 q 465 825 448 806 q 481 836 473 836 q 497 828 489 836 l 521 804 q 526 793 526 799 q 522 782 526 787 q 469 731 494 746 q 410 716 443 716 q 379 722 396 716 q 335 745 363 728 q 304 760 316 756 q 283 764 293 764 q 255 757 267 764 q 225 728 242 749 q 214 722 220 722 q 194 732 205 722 l 177 749 z "},"\u0259":{"ha":677,"x_min":33,"x_max":641,"o":"m 326 606 q 484 564 412 606 q 598 450 556 522 q 641 294 641 378 q 600 137 641 208 q 488 24 559 66 q 330 -18 416 -18 q 177 24 245 -18 q 71 138 109 66 q 35 294 33 210 q 54 339 35 323 q 96 355 72 355 l 482 355 q 421 439 464 406 q 323 472 378 472 q 199 426 265 472 q 186 422 192 422 q 172 430 178 422 q 154 454 161 446 q 122 500 130 488 q 118 513 118 507 q 125 528 118 522 q 326 606 216 606 m 332 126 q 432 158 389 126 q 488 243 475 191 l 187 243 q 237 158 199 191 q 332 126 275 126 z "},"\u011f":{"ha":670,"x_min":61,"x_max":662,"o":"m 438 29 q 557 8 507 29 q 634 -54 607 -14 q 662 -149 662 -94 q 625 -267 662 -218 q 518 -342 587 -316 q 358 -368 450 -368 q 217 -357 289 -368 q 94 -326 144 -346 q 84 -316 87 -322 q 80 -304 80 -311 q 82 -294 80 -300 l 114 -215 q 122 -204 117 -208 q 134 -201 127 -201 q 142 -202 137 -201 q 243 -227 184 -218 q 358 -237 302 -237 q 484 -217 438 -237 q 530 -161 530 -197 q 508 -115 530 -129 q 438 -102 485 -102 l 262 -102 q 158 -82 203 -102 q 86 -25 112 -62 q 61 62 61 12 q 80 138 61 104 q 131 189 98 172 q 90 262 104 222 q 76 349 76 303 q 109 481 76 423 q 199 573 141 540 q 330 606 257 606 q 375 601 347 606 q 429 587 402 596 l 611 587 q 631 581 624 587 q 639 561 639 574 l 639 493 q 631 474 639 482 q 611 467 623 467 l 550 467 q 587 349 587 411 q 554 219 587 277 q 461 129 520 161 q 328 96 402 96 q 222 119 273 96 q 200 100 208 113 q 193 72 193 88 q 212 41 193 53 q 262 29 231 29 l 438 29 m 330 470 q 271 454 298 470 q 229 411 244 438 q 213 350 213 383 q 228 291 213 317 q 270 248 243 264 q 330 233 297 233 q 391 248 363 233 q 434 290 418 263 q 450 349 450 317 q 434 411 450 383 q 391 454 418 438 q 330 470 363 470 m 350 710 q 234 750 276 711 q 191 857 191 789 q 197 876 191 869 q 215 883 203 883 l 249 883 q 269 875 262 883 q 277 854 277 867 q 297 807 277 824 q 351 789 317 789 q 405 807 386 789 q 425 855 425 824 q 432 876 425 868 q 452 883 439 883 l 486 883 q 504 876 497 883 q 510 857 510 869 q 467 749 510 788 q 350 710 425 710 z "},"\u01e7":{"ha":670,"x_min":61,"x_max":662,"o":"m 438 29 q 557 8 507 29 q 634 -54 607 -14 q 662 -149 662 -94 q 625 -267 662 -218 q 518 -342 587 -316 q 358 -368 450 -368 q 217 -357 289 -368 q 94 -326 144 -346 q 84 -316 87 -322 q 80 -304 80 -311 q 82 -294 80 -300 l 114 -215 q 122 -204 117 -208 q 134 -201 127 -201 q 142 -202 137 -201 q 243 -227 184 -218 q 358 -237 302 -237 q 484 -217 438 -237 q 530 -161 530 -197 q 508 -115 530 -129 q 438 -102 485 -102 l 262 -102 q 158 -82 203 -102 q 86 -25 112 -62 q 61 62 61 12 q 80 138 61 104 q 131 189 98 172 q 90 262 104 222 q 76 349 76 303 q 109 481 76 423 q 199 573 141 540 q 330 606 257 606 q 375 601 347 606 q 429 587 402 596 l 611 587 q 631 581 624 587 q 639 561 639 574 l 639 493 q 631 474 639 482 q 611 467 623 467 l 550 467 q 587 349 587 411 q 554 219 587 277 q 461 129 520 161 q 328 96 402 96 q 222 119 273 96 q 200 100 208 113 q 193 72 193 88 q 212 41 193 53 q 262 29 231 29 l 438 29 m 330 470 q 271 454 298 470 q 229 411 244 438 q 213 350 213 383 q 228 291 213 317 q 270 248 243 264 q 330 233 297 233 q 391 248 363 233 q 434 290 418 263 q 450 349 450 317 q 434 411 450 383 q 391 454 418 438 q 330 470 363 470 m 180 831 q 173 837 178 832 q 168 848 168 842 q 174 863 168 854 l 193 890 q 207 898 197 898 q 227 890 218 898 l 350 790 l 473 890 q 494 898 483 898 q 508 891 503 898 l 527 864 q 531 851 531 858 q 522 833 531 840 l 366 699 q 349 692 358 692 q 334 699 342 692 l 180 831 z "},"\u011d":{"ha":670,"x_min":61,"x_max":662,"o":"m 438 29 q 557 8 507 29 q 634 -54 607 -14 q 662 -149 662 -94 q 625 -267 662 -218 q 518 -342 587 -316 q 358 -368 450 -368 q 217 -357 289 -368 q 94 -326 144 -346 q 84 -316 87 -322 q 80 -304 80 -311 q 82 -294 80 -300 l 114 -215 q 122 -204 117 -208 q 134 -201 127 -201 q 142 -202 137 -201 q 243 -227 184 -218 q 358 -237 302 -237 q 484 -217 438 -237 q 530 -161 530 -197 q 508 -115 530 -129 q 438 -102 485 -102 l 262 -102 q 158 -82 203 -102 q 86 -25 112 -62 q 61 62 61 12 q 80 138 61 104 q 131 189 98 172 q 90 262 104 222 q 76 349 76 303 q 109 481 76 423 q 199 573 141 540 q 330 606 257 606 q 375 601 347 606 q 429 587 402 596 l 611 587 q 631 581 624 587 q 639 561 639 574 l 639 493 q 631 474 639 482 q 611 467 623 467 l 550 467 q 587 349 587 411 q 554 219 587 277 q 461 129 520 161 q 328 96 402 96 q 222 119 273 96 q 200 100 208 113 q 193 72 193 88 q 212 41 193 53 q 262 29 231 29 l 438 29 m 330 470 q 271 454 298 470 q 229 411 244 438 q 213 350 213 383 q 228 291 213 317 q 270 248 243 264 q 330 233 297 233 q 391 248 363 233 q 434 290 418 263 q 450 349 450 317 q 434 411 450 383 q 391 454 418 438 q 330 470 363 470 m 335 891 q 350 899 344 899 q 366 891 359 899 l 522 758 q 532 739 532 749 q 528 726 532 732 l 509 699 q 494 692 503 692 q 474 699 485 692 l 351 800 l 228 699 q 208 692 217 692 q 193 700 199 692 l 175 728 q 169 742 169 736 q 174 753 169 749 q 180 760 179 758 l 335 891 z "},"\u0123":{"ha":670,"x_min":61,"x_max":662,"o":"m 438 29 q 557 8 507 29 q 634 -54 607 -14 q 662 -149 662 -94 q 625 -267 662 -218 q 518 -342 587 -316 q 358 -368 450 -368 q 217 -357 289 -368 q 94 -326 144 -346 q 84 -316 87 -322 q 80 -304 80 -311 q 82 -294 80 -300 l 114 -215 q 122 -204 117 -208 q 134 -201 127 -201 q 142 -202 137 -201 q 243 -227 184 -218 q 358 -237 302 -237 q 484 -217 438 -237 q 530 -161 530 -197 q 508 -115 530 -129 q 438 -102 485 -102 l 262 -102 q 158 -82 203 -102 q 86 -25 112 -62 q 61 62 61 12 q 80 138 61 104 q 131 189 98 172 q 90 262 104 222 q 76 349 76 303 q 109 481 76 423 q 199 573 141 540 q 330 606 257 606 q 375 601 347 606 q 429 587 402 596 l 611 587 q 631 581 624 587 q 639 561 639 574 l 639 493 q 631 474 639 482 q 611 467 623 467 l 550 467 q 587 349 587 411 q 554 219 587 277 q 461 129 520 161 q 328 96 402 96 q 222 119 273 96 q 200 100 208 113 q 193 72 193 88 q 212 41 193 53 q 262 29 231 29 l 438 29 m 330 470 q 271 454 298 470 q 229 411 244 438 q 213 350 213 383 q 228 291 213 317 q 270 248 243 264 q 330 233 297 233 q 391 248 363 233 q 434 290 418 263 q 450 349 450 317 q 434 411 450 383 q 391 454 418 438 q 330 470 363 470 m 416 752 q 396 705 416 724 q 349 686 377 686 q 294 710 315 686 q 272 771 272 735 q 290 855 272 817 q 342 926 307 892 q 357 933 349 933 q 372 927 365 933 l 390 911 q 395 899 395 906 q 389 883 395 890 q 362 851 370 864 q 353 830 353 839 q 357 822 353 825 q 368 816 361 818 q 403 793 390 810 q 416 752 416 776 z "},"\u0121":{"ha":670,"x_min":61,"x_max":662,"o":"m 438 29 q 557 8 507 29 q 634 -54 607 -14 q 662 -149 662 -94 q 625 -267 662 -218 q 518 -342 587 -316 q 358 -368 450 -368 q 217 -357 289 -368 q 94 -326 144 -346 q 84 -316 87 -322 q 80 -304 80 -311 q 82 -294 80 -300 l 114 -215 q 122 -204 117 -208 q 134 -201 127 -201 q 142 -202 137 -201 q 243 -227 184 -218 q 358 -237 302 -237 q 484 -217 438 -237 q 530 -161 530 -197 q 508 -115 530 -129 q 438 -102 485 -102 l 262 -102 q 158 -82 203 -102 q 86 -25 112 -62 q 61 62 61 12 q 80 138 61 104 q 131 189 98 172 q 90 262 104 222 q 76 349 76 303 q 109 481 76 423 q 199 573 141 540 q 330 606 257 606 q 375 601 347 606 q 429 587 402 596 l 611 587 q 631 581 624 587 q 639 561 639 574 l 639 493 q 631 474 639 482 q 611 467 623 467 l 550 467 q 587 349 587 411 q 554 219 587 277 q 461 129 520 161 q 328 96 402 96 q 222 119 273 96 q 200 100 208 113 q 193 72 193 88 q 212 41 193 53 q 262 29 231 29 l 438 29 m 330 470 q 271 454 298 470 q 229 411 244 438 q 213 350 213 383 q 228 291 213 317 q 270 248 243 264 q 330 233 297 233 q 391 248 363 233 q 434 290 418 263 q 450 349 450 317 q 434 411 450 383 q 391 454 418 438 q 330 470 363 470 m 349 728 q 302 747 321 728 q 282 795 282 767 q 302 842 282 823 q 349 861 321 861 q 396 842 376 861 q 416 795 416 823 q 396 747 416 767 q 349 728 377 728 z "},"\u0127":{"ha":712,"x_min":30,"x_max":641,"o":"m 404 606 q 530 573 477 606 q 612 480 584 541 q 641 338 641 420 l 641 19 q 636 5 641 10 q 621 -1 631 -1 l 513 -1 q 498 5 504 -1 q 493 19 493 10 l 493 340 q 476 403 493 374 q 429 448 458 431 q 365 465 399 465 q 297 447 328 465 q 248 399 266 430 q 229 330 229 368 l 229 18 q 210 -1 229 -1 l 100 -1 q 82 18 82 -1 l 82 824 l 49 824 q 30 843 30 824 l 30 869 q 49 888 30 888 l 82 888 l 82 974 q 100 991 82 991 l 210 991 q 229 974 229 991 l 229 888 l 324 888 q 343 869 343 888 l 343 843 q 324 824 343 824 l 229 824 l 229 526 q 308 585 262 564 q 404 606 353 606 z "},"\u0125":{"ha":712,"x_min":-27,"x_max":641,"o":"m 404 606 q 530 573 477 606 q 612 480 584 541 q 641 338 641 420 l 641 19 q 636 5 641 10 q 621 -1 631 -1 l 513 -1 q 498 5 504 -1 q 493 19 493 10 l 493 340 q 476 403 493 374 q 429 448 458 431 q 365 465 399 465 q 297 447 328 465 q 248 399 266 430 q 229 330 229 368 l 229 18 q 210 -1 229 -1 l 100 -1 q 82 18 82 -1 l 82 974 q 100 991 82 991 l 210 991 q 229 974 229 991 l 229 526 q 308 585 262 564 q 404 606 353 606 m 133 1226 q 148 1233 142 1233 q 163 1226 156 1233 l 314 1103 q 323 1087 323 1097 q 319 1075 323 1081 l 301 1050 q 286 1044 295 1044 q 267 1050 276 1044 l 148 1143 l 29 1050 q 11 1044 20 1044 q -4 1051 1 1044 l -22 1076 q -27 1089 -27 1084 q -24 1098 -27 1094 q -16 1105 -21 1101 l 133 1226 z "},"\xed":{"ha":311,"x_min":82,"x_max":347,"o":"m 210 588 q 224 583 219 588 q 229 570 229 578 l 229 18 q 224 4 229 9 q 210 -1 219 -1 l 100 -1 q 82 18 82 -1 l 82 570 q 100 588 82 588 l 210 588 m 146 703 q 124 694 134 694 q 109 703 115 694 l 93 724 q 85 742 85 733 q 96 760 85 752 l 277 895 q 300 905 288 905 q 317 896 310 905 l 340 866 q 347 849 347 859 q 335 829 347 836 l 146 703 z "},"\u012d":{"ha":311,"x_min":-3,"x_max":315,"o":"m 210 588 q 224 583 219 588 q 229 570 229 578 l 229 18 q 224 4 229 9 q 210 -1 219 -1 l 100 -1 q 82 18 82 -1 l 82 570 q 100 588 82 588 l 210 588 m 155 703 q 39 743 81 704 q -3 850 -3 782 q 3 869 -3 863 q 20 876 9 876 l 54 876 q 75 868 67 876 q 82 848 82 861 q 102 800 82 817 q 157 783 122 783 q 211 800 191 783 q 230 848 230 817 q 237 869 230 861 q 257 876 244 876 l 291 876 q 309 869 302 876 q 315 850 315 863 q 273 742 315 781 q 155 703 230 703 z "},"\xee":{"ha":311,"x_min":-26,"x_max":337,"o":"m 210 588 q 224 583 219 588 q 229 570 229 578 l 229 18 q 224 4 229 9 q 210 -1 219 -1 l 100 -1 q 82 18 82 -1 l 82 570 q 100 588 82 588 l 210 588 m 140 884 q 155 892 149 892 q 172 884 164 892 l 328 751 q 337 732 337 743 q 333 719 337 725 l 314 692 q 299 685 309 685 q 279 692 290 685 l 156 793 l 33 692 q 14 685 22 685 q -1 693 4 685 l -20 721 q -26 735 -26 729 q -21 747 -26 742 q -14 753 -16 751 l 140 884 z "},"\xef":{"ha":311,"x_min":-1,"x_max":310,"o":"m 210 588 q 224 583 219 588 q 229 570 229 578 l 229 18 q 224 4 229 9 q 210 -1 219 -1 l 100 -1 q 82 18 82 -1 l 82 570 q 100 588 82 588 l 210 588 m 66 721 q 19 741 39 721 q -1 788 -1 760 q 19 835 -1 816 q 66 854 39 854 q 113 835 94 854 q 133 788 133 816 q 114 741 133 760 q 66 721 94 721 m 244 721 q 197 741 216 721 q 177 788 177 760 q 197 835 177 816 q 244 854 216 854 q 291 835 271 854 q 310 788 310 816 q 291 741 310 760 q 244 721 271 721 z "},"\u1ecb":{"ha":311,"x_min":64,"x_max":247,"o":"m 156 766 q 111 778 132 766 q 77 811 90 790 q 64 856 64 831 q 77 901 64 880 q 111 935 90 922 q 156 947 132 947 q 201 935 180 947 q 235 901 222 922 q 247 856 247 880 q 235 811 247 831 q 201 778 222 790 q 156 766 180 766 m 210 588 q 224 583 219 588 q 229 570 229 578 l 229 18 q 224 4 229 9 q 210 -1 219 -1 l 100 -1 q 82 18 82 -1 l 82 570 q 100 588 82 588 l 210 588 m 156 -246 q 109 -227 128 -246 q 89 -179 89 -207 q 109 -133 89 -152 q 156 -113 128 -113 q 203 -133 184 -113 q 222 -179 222 -152 q 203 -227 222 -207 q 156 -246 184 -246 z "},"\xec":{"ha":311,"x_min":-5,"x_max":256,"o":"m 210 588 q 224 583 219 588 q 229 570 229 578 l 229 18 q 224 4 229 9 q 210 -1 219 -1 l 100 -1 q 82 18 82 -1 l 82 570 q 100 588 82 588 l 210 588 m 6 829 q -5 849 -5 836 q 1 866 -5 859 l 24 896 q 41 905 31 905 q 64 895 53 905 l 245 760 q 256 742 256 752 q 248 724 256 733 l 233 703 q 217 694 226 694 q 195 703 208 694 l 6 829 z "},"\u0133":{"ha":621,"x_min":64,"x_max":557,"o":"m 156 766 q 111 778 132 766 q 77 811 90 790 q 64 856 64 831 q 77 901 64 880 q 111 935 90 922 q 156 947 132 947 q 201 935 180 947 q 235 901 222 922 q 247 856 247 880 q 235 811 247 831 q 201 778 222 790 q 156 766 180 766 m 467 766 q 421 778 442 766 q 388 811 400 790 q 376 856 376 831 q 388 901 376 880 q 421 935 400 922 q 467 947 442 947 q 512 935 491 947 q 545 901 533 922 q 557 856 557 880 q 545 811 557 831 q 512 778 533 790 q 467 766 491 766 m 100 -1 q 82 18 82 -1 l 82 570 q 100 588 82 588 l 210 588 q 224 583 219 588 q 229 570 229 578 l 229 18 q 224 4 229 9 q 210 -1 219 -1 l 100 -1 m 521 588 q 535 583 530 588 q 540 570 540 578 l 540 -153 q 481 -328 540 -267 q 313 -389 422 -389 q 146 -328 205 -389 q 87 -155 87 -267 l 87 -119 q 93 -105 87 -111 q 106 -100 98 -100 l 216 -100 q 235 -119 235 -100 l 235 -153 q 313 -245 235 -245 q 393 -152 393 -245 l 393 570 q 411 588 393 588 l 521 588 z "},"\u012b":{"ha":311,"x_min":17,"x_max":294,"o":"m 210 588 q 224 583 219 588 q 229 570 229 578 l 229 18 q 224 4 229 9 q 210 -1 219 -1 l 100 -1 q 82 18 82 -1 l 82 570 q 100 588 82 588 l 210 588 m 17 787 q 22 800 17 795 q 34 804 26 804 l 279 804 q 290 800 286 804 q 294 788 294 795 l 294 741 q 290 730 294 734 q 278 725 285 725 l 33 725 q 22 729 27 725 q 17 741 17 734 l 17 787 z "},"\u012f":{"ha":311,"x_min":17,"x_max":309,"o":"m 156 766 q 111 778 132 766 q 77 811 90 790 q 64 856 64 831 q 77 901 64 880 q 111 935 90 922 q 156 947 132 947 q 201 935 180 947 q 235 901 222 922 q 247 856 247 880 q 235 811 247 831 q 201 778 222 790 q 156 766 180 766 m 308 -274 q 305 -288 309 -281 q 294 -296 301 -294 q 241 -309 269 -304 q 187 -313 212 -313 q 62 -272 106 -313 q 18 -159 17 -231 q 43 -70 18 -111 q 111 -1 68 -28 l 100 -1 q 82 18 82 -1 l 82 570 q 100 588 82 588 l 210 588 q 224 583 219 588 q 229 570 229 578 l 229 18 q 224 3 229 9 l 222 3 l 219 1 q 131 -71 163 -30 q 98 -154 98 -112 q 123 -212 98 -191 q 193 -233 149 -233 q 279 -218 238 -233 q 287 -217 284 -217 q 301 -229 299 -217 l 308 -274 z "},"\u0129":{"ha":311,"x_min":-26,"x_max":330,"o":"m 210 588 q 224 583 219 588 q 229 570 229 578 l 229 18 q 224 4 229 9 q 210 -1 219 -1 l 100 -1 q 82 18 82 -1 l 82 570 q 100 588 82 588 l 210 588 m -19 744 q -26 760 -26 751 q -17 781 -26 770 q 31 824 7 812 q 87 837 54 837 q 118 830 100 837 q 163 808 135 824 q 195 792 184 796 q 214 788 205 788 q 240 794 229 788 q 269 821 252 801 q 286 831 277 831 q 301 823 293 831 l 325 800 q 330 788 330 794 q 326 777 330 782 q 273 726 298 741 q 214 711 247 711 q 183 718 200 711 q 139 740 167 724 q 109 755 120 751 q 87 760 97 760 q 59 752 71 760 q 29 723 46 745 q 18 717 24 717 q -2 728 9 717 l -19 744 z "},"\u0135":{"ha":311,"x_min":-61,"x_max":337,"o":"m 210 588 q 224 583 219 588 q 229 570 229 578 l 229 -37 q 159 -240 229 -169 q -38 -312 90 -312 l -42 -312 q -56 -307 -51 -312 q -61 -292 -61 -302 l -61 -188 q -45 -169 -61 -169 l -39 -169 q 49 -134 17 -169 q 82 -35 81 -98 l 82 570 q 100 588 82 588 l 210 588 m 140 884 q 155 892 149 892 q 172 884 164 892 l 328 751 q 337 732 337 743 q 333 719 337 725 l 314 692 q 299 685 309 685 q 279 692 290 685 l 156 793 l 33 692 q 14 685 22 685 q -1 693 4 685 l -20 721 q -26 735 -26 729 q -21 747 -26 742 q -14 753 -16 751 l 140 884 z "},"\u0137":{"ha":664,"x_min":82,"x_max":644,"o":"m 640 29 q 644 16 644 22 q 629 1 644 4 l 499 1 q 484 3 490 0 q 473 16 478 6 l 290 269 l 229 200 l 229 18 q 210 -1 229 -1 l 100 -1 q 82 18 82 -1 l 82 974 q 100 991 82 991 l 210 991 q 229 974 229 991 l 229 334 l 441 576 q 460 587 448 587 q 473 586 464 587 l 587 586 q 602 573 602 584 q 596 559 602 566 l 406 345 l 640 29 m 243 -156 q 263 -109 243 -128 q 311 -90 282 -90 q 366 -114 345 -90 q 387 -174 387 -139 q 370 -258 387 -221 q 317 -330 353 -296 q 302 -337 310 -337 q 288 -330 294 -337 l 269 -315 q 264 -302 264 -310 q 271 -287 264 -294 q 306 -234 306 -251 q 302 -225 306 -229 q 291 -219 298 -221 q 256 -197 269 -214 q 243 -156 243 -180 z "},"\u0138":{"ha":671,"x_min":82,"x_max":652,"o":"m 647 29 q 652 16 652 22 q 637 1 652 4 l 507 1 q 492 3 498 0 q 480 16 486 6 l 297 269 l 229 191 l 229 18 q 210 -1 229 -1 l 100 -1 q 82 18 82 -1 l 82 570 q 100 588 82 588 l 210 588 q 224 583 219 588 q 229 570 229 578 l 229 326 l 449 576 q 469 587 456 587 q 481 586 473 587 l 595 586 q 610 573 610 584 q 604 559 610 566 l 413 345 l 647 29 z "},"\u013a":{"ha":311,"x_min":46,"x_max":322,"o":"m 210 991 q 229 974 229 991 l 229 18 q 210 -1 229 -1 l 100 -1 q 82 18 82 -1 l 82 974 q 100 991 82 991 l 210 991 m 100 1063 q 79 1059 87 1059 q 62 1070 67 1059 l 50 1094 q 46 1109 46 1102 q 59 1128 46 1122 l 261 1230 q 281 1236 273 1236 q 300 1224 294 1236 l 319 1191 q 322 1177 322 1184 q 318 1164 322 1171 q 307 1156 315 1158 l 100 1063 z "},"\u013e":{"ha":311,"x_min":82,"x_max":370,"o":"m 210 991 q 229 974 229 991 l 229 18 q 210 -1 229 -1 l 100 -1 q 82 18 82 -1 l 82 974 q 100 991 82 991 l 210 991 m 353 760 q 345 744 353 750 q 326 737 338 737 l 304 737 q 285 744 292 737 q 278 760 278 750 l 279 962 q 305 995 279 995 l 342 995 q 367 966 370 995 l 353 760 z "},"\u013c":{"ha":311,"x_min":79,"x_max":229,"o":"m 210 991 q 229 974 229 991 l 229 18 q 210 -1 229 -1 l 100 -1 q 82 18 82 -1 l 82 974 q 100 991 82 991 l 210 991 m 79 -156 q 99 -109 79 -128 q 146 -90 118 -90 q 202 -114 180 -90 q 223 -174 223 -139 q 206 -258 223 -221 q 153 -330 189 -296 q 138 -337 146 -337 q 123 -330 130 -337 l 105 -315 q 100 -302 100 -310 q 106 -287 100 -294 q 142 -234 142 -251 q 138 -225 142 -229 q 127 -219 134 -221 q 92 -197 105 -214 q 79 -156 79 -180 z "},"\u0140":{"ha":426,"x_min":82,"x_max":458,"o":"m 210 991 q 229 974 229 991 l 229 18 q 210 -1 229 -1 l 100 -1 q 82 18 82 -1 l 82 974 q 100 991 82 991 l 210 991 m 371 385 q 327 397 347 385 q 295 429 307 409 q 283 473 283 449 q 295 516 283 496 q 327 548 307 536 q 371 560 347 560 q 415 548 395 560 q 447 516 435 536 q 458 473 458 496 q 447 429 458 449 q 415 397 435 409 q 371 385 395 385 z "},"\u0142":{"ha":311,"x_min":-8,"x_max":319,"o":"m 318 494 q 319 487 319 492 q 304 471 319 475 l 229 450 l 229 18 q 210 -1 229 -1 l 100 -1 q 82 18 82 -1 l 82 411 l 23 395 q 16 394 18 394 q 0 409 4 394 l -7 434 q -8 441 -8 439 q 6 457 -8 453 l 82 477 l 82 974 q 100 991 82 991 l 210 991 q 229 974 229 991 l 229 517 l 288 532 q 295 534 294 534 q 311 519 307 534 l 318 494 z "},"\u0144":{"ha":711,"x_min":82,"x_max":640,"o":"m 404 606 q 530 574 476 606 q 612 481 583 541 q 640 340 640 420 l 640 20 q 635 6 640 11 q 621 1 630 1 l 512 1 q 497 6 503 1 q 492 20 492 11 l 492 340 q 475 404 492 375 q 428 449 458 433 q 364 465 399 465 q 296 448 328 465 q 247 400 265 431 q 229 331 229 369 l 229 19 q 210 -1 229 -1 l 101 -1 q 82 19 82 -1 l 82 569 q 87 583 82 578 q 102 588 92 588 l 188 588 q 207 576 204 588 l 218 515 q 299 582 251 557 q 404 606 348 606 m 331 703 q 309 694 318 694 q 293 703 300 694 l 277 724 q 270 742 270 733 q 280 760 270 752 l 461 895 q 484 905 473 905 q 501 896 494 905 l 525 866 q 531 849 531 859 q 519 829 531 836 l 331 703 z "},"\u0149":{"ha":711,"x_min":59,"x_max":640,"o":"m 404 606 q 530 574 476 606 q 612 481 583 541 q 640 340 640 420 l 640 20 q 635 6 640 11 q 621 1 630 1 l 512 1 q 497 6 503 1 q 492 20 492 11 l 492 340 q 475 404 492 375 q 428 449 458 433 q 364 465 399 465 q 296 448 328 465 q 247 400 265 431 q 229 331 229 369 l 229 19 q 210 -1 229 -1 l 101 -1 q 82 19 82 -1 l 82 569 q 87 583 82 578 q 102 588 92 588 l 188 588 q 207 576 204 588 l 218 515 q 299 582 251 557 q 404 606 348 606 m 59 863 q 77 907 59 889 q 122 926 96 926 q 175 902 155 926 q 195 845 195 879 q 179 766 195 801 q 128 698 162 730 q 114 691 120 691 q 101 697 107 691 l 83 712 q 78 724 78 718 q 84 739 78 732 q 110 769 102 757 q 118 789 118 781 q 114 797 118 793 q 104 803 111 801 q 71 824 83 808 q 59 863 59 840 z "},"\u0148":{"ha":711,"x_min":82,"x_max":640,"o":"m 404 606 q 530 574 476 606 q 612 481 583 541 q 640 340 640 420 l 640 20 q 635 6 640 11 q 621 1 630 1 l 512 1 q 497 6 503 1 q 492 20 492 11 l 492 340 q 475 404 492 375 q 428 449 458 433 q 364 465 399 465 q 296 448 328 465 q 247 400 265 431 q 229 331 229 369 l 229 19 q 210 -1 229 -1 l 101 -1 q 82 19 82 -1 l 82 569 q 87 583 82 578 q 102 588 92 588 l 188 588 q 207 576 204 588 l 218 515 q 299 582 251 557 q 404 606 348 606 m 170 823 q 163 829 168 825 q 158 840 158 834 q 164 855 158 846 l 182 883 q 197 890 187 890 q 217 883 208 890 l 340 783 l 463 883 q 484 890 473 890 q 498 884 493 890 l 517 857 q 521 844 521 850 q 511 825 521 833 l 355 692 q 339 684 348 684 q 324 692 332 684 l 170 823 z "},"\u0146":{"ha":711,"x_min":82,"x_max":640,"o":"m 404 606 q 530 574 476 606 q 612 481 583 541 q 640 340 640 420 l 640 20 q 635 6 640 11 q 621 1 630 1 l 512 1 q 497 6 503 1 q 492 20 492 11 l 492 340 q 475 404 492 375 q 428 449 458 433 q 364 465 399 465 q 296 448 328 465 q 247 400 265 431 q 229 331 229 369 l 229 19 q 210 -1 229 -1 l 101 -1 q 82 19 82 -1 l 82 569 q 87 583 82 578 q 102 588 92 588 l 188 588 q 207 576 204 588 l 218 515 q 299 582 251 557 q 404 606 348 606 m 292 -157 q 312 -110 292 -130 q 359 -91 331 -91 q 415 -116 393 -91 q 436 -176 436 -140 q 419 -260 436 -222 q 366 -332 401 -297 q 351 -338 359 -338 q 336 -332 343 -338 l 318 -316 q 313 -304 313 -311 q 319 -288 313 -296 q 355 -235 355 -252 q 351 -227 355 -231 q 340 -220 347 -222 q 305 -198 318 -215 q 292 -157 292 -181 z "},"\u014b":{"ha":711,"x_min":82,"x_max":640,"o":"m 404 606 q 530 574 476 606 q 612 481 583 541 q 640 340 640 420 l 640 -35 q 570 -238 640 -167 q 373 -310 500 -310 l 369 -310 q 355 -304 360 -310 q 350 -290 350 -299 l 350 -186 q 366 -166 350 -166 l 372 -166 q 460 -131 428 -166 q 493 -33 492 -96 l 493 14 q 492 20 492 16 l 492 340 q 475 404 492 375 q 428 449 458 433 q 364 465 399 465 q 296 448 328 465 q 247 400 265 431 q 229 331 229 369 l 229 19 q 210 -1 229 -1 l 101 -1 q 82 19 82 -1 l 82 569 q 87 583 82 578 q 102 588 92 588 l 188 588 q 207 576 204 588 l 218 515 q 299 582 251 557 q 404 606 348 606 z "},"\u0272":{"ha":711,"x_min":-60,"x_max":640,"o":"m 404 606 q 530 574 476 606 q 612 481 583 541 q 640 340 640 420 l 640 20 q 635 6 640 11 q 621 1 630 1 l 512 1 q 497 6 503 1 q 492 20 492 11 l 492 340 q 475 404 492 375 q 428 449 458 433 q 364 465 399 465 q 296 448 328 465 q 247 400 265 431 q 229 331 229 369 l 229 -34 q 159 -237 228 -165 q -37 -308 90 -308 l -41 -308 q -55 -302 -50 -308 q -60 -288 -60 -297 l -60 -184 q -56 -170 -60 -175 q -43 -165 -52 -165 l -38 -165 q 50 -130 18 -165 q 82 -33 81 -95 l 82 569 q 87 583 82 578 q 102 588 92 588 l 188 588 q 207 576 204 588 l 218 515 q 299 582 251 557 q 404 606 348 606 z "},"\xf1":{"ha":711,"x_min":82,"x_max":640,"o":"m 404 606 q 530 574 476 606 q 612 481 583 541 q 640 340 640 420 l 640 20 q 635 6 640 11 q 621 1 630 1 l 512 1 q 497 6 503 1 q 492 20 492 11 l 492 340 q 475 404 492 375 q 428 449 458 433 q 364 465 399 465 q 296 448 328 465 q 247 400 265 431 q 229 331 229 369 l 229 19 q 210 -1 229 -1 l 101 -1 q 82 19 82 -1 l 82 569 q 87 583 82 578 q 102 588 92 588 l 188 588 q 207 576 204 588 l 218 515 q 299 582 251 557 q 404 606 348 606 m 166 744 q 159 760 159 751 q 168 781 159 770 q 216 824 193 812 q 272 837 239 837 q 303 830 286 837 q 349 808 320 824 q 380 792 369 796 q 399 788 391 788 q 425 794 414 788 q 454 821 437 801 q 471 831 462 831 q 486 823 478 831 l 510 800 q 515 788 515 794 q 511 777 515 782 q 458 726 484 741 q 399 711 432 711 q 369 718 385 711 q 324 740 352 724 q 294 755 305 751 q 272 760 282 760 q 244 752 256 760 q 214 723 231 745 q 203 717 210 717 q 183 728 194 717 l 166 744 z "},"\xf3":{"ha":705,"x_min":37,"x_max":669,"o":"m 37 293 q 79 450 37 378 q 194 563 121 522 q 353 605 267 605 q 512 563 439 605 q 627 450 585 522 q 669 293 669 378 q 626 136 669 208 q 512 23 584 65 q 353 -18 439 -18 q 194 23 267 -18 q 79 136 121 64 q 37 293 37 208 m 184 293 q 207 209 184 248 q 268 148 229 170 q 353 125 307 125 q 438 148 399 125 q 499 209 477 170 q 522 293 522 247 q 499 378 522 339 q 438 440 477 417 q 353 463 399 463 q 268 440 307 463 q 207 378 229 417 q 184 293 184 339 m 344 709 q 321 700 331 700 q 306 709 313 700 l 290 730 q 283 748 283 739 q 293 766 283 758 l 474 901 q 497 911 486 911 q 514 902 507 911 l 538 872 q 544 855 544 865 q 532 836 544 842 l 344 709 z "},"\u014f":{"ha":705,"x_min":37,"x_max":669,"o":"m 37 293 q 79 450 37 378 q 194 563 121 522 q 353 605 267 605 q 512 563 439 605 q 627 450 585 522 q 669 293 669 378 q 626 136 669 208 q 512 23 584 65 q 353 -18 439 -18 q 194 23 267 -18 q 79 136 121 64 q 37 293 37 208 m 184 293 q 207 209 184 248 q 268 148 229 170 q 353 125 307 125 q 438 148 399 125 q 499 209 477 170 q 522 293 522 247 q 499 378 522 339 q 438 440 477 417 q 353 463 399 463 q 268 440 307 463 q 207 378 229 417 q 184 293 184 339 m 353 709 q 237 749 279 710 q 195 857 195 788 q 201 876 195 869 q 218 882 207 882 l 252 882 q 273 874 265 882 q 280 854 280 867 q 300 806 280 823 q 355 789 320 789 q 409 806 389 789 q 428 854 428 823 q 435 875 428 867 q 455 882 442 882 l 489 882 q 507 876 500 882 q 513 857 513 869 q 471 748 513 787 q 353 709 428 709 z "},"\xf4":{"ha":705,"x_min":37,"x_max":669,"o":"m 37 293 q 79 450 37 378 q 194 563 121 522 q 353 605 267 605 q 512 563 439 605 q 627 450 585 522 q 669 293 669 378 q 626 136 669 208 q 512 23 584 65 q 353 -18 439 -18 q 194 23 267 -18 q 79 136 121 64 q 37 293 37 208 m 184 293 q 207 209 184 248 q 268 148 229 170 q 353 125 307 125 q 438 148 399 125 q 499 209 477 170 q 522 293 522 247 q 499 378 522 339 q 438 440 477 417 q 353 463 399 463 q 268 440 307 463 q 207 378 229 417 q 184 293 184 339 m 338 890 q 353 898 347 898 q 370 890 362 898 l 526 757 q 535 738 535 749 q 531 725 535 731 l 512 699 q 497 691 507 691 q 477 699 488 691 l 354 799 l 231 699 q 212 691 220 691 q 197 699 202 691 l 178 727 q 172 741 172 735 q 177 753 172 748 q 184 759 182 758 l 338 890 z "},"\xf6":{"ha":705,"x_min":37,"x_max":669,"o":"m 37 293 q 79 450 37 378 q 194 563 121 522 q 353 605 267 605 q 512 563 439 605 q 627 450 585 522 q 669 293 669 378 q 626 136 669 208 q 512 23 584 65 q 353 -18 439 -18 q 194 23 267 -18 q 79 136 121 64 q 37 293 37 208 m 184 293 q 207 209 184 248 q 268 148 229 170 q 353 125 307 125 q 438 148 399 125 q 499 209 477 170 q 522 293 522 247 q 499 378 522 339 q 438 440 477 417 q 353 463 399 463 q 268 440 307 463 q 207 378 229 417 q 184 293 184 339 m 264 727 q 217 747 237 727 q 197 794 197 766 q 217 841 197 822 q 264 861 237 861 q 311 841 292 861 q 331 794 331 822 q 312 747 331 766 q 264 727 292 727 m 442 727 q 395 747 414 727 q 375 794 375 766 q 395 841 375 822 q 442 861 414 861 q 489 841 469 861 q 508 794 508 822 q 489 747 508 766 q 442 727 469 727 z "},"\u1ecd":{"ha":705,"x_min":37,"x_max":669,"o":"m 37 293 q 79 450 37 378 q 194 563 121 522 q 353 605 267 605 q 512 563 439 605 q 627 450 585 522 q 669 293 669 378 q 626 136 669 208 q 512 23 584 65 q 353 -18 439 -18 q 194 23 267 -18 q 79 136 121 64 q 37 293 37 208 m 184 293 q 207 209 184 248 q 268 148 229 170 q 353 125 307 125 q 438 148 399 125 q 499 209 477 170 q 522 293 522 247 q 499 378 522 339 q 438 440 477 417 q 353 463 399 463 q 268 440 307 463 q 207 378 229 417 q 184 293 184 339 m 353 -254 q 306 -234 326 -254 q 286 -186 286 -214 q 306 -140 286 -159 q 353 -121 326 -121 q 400 -140 381 -121 q 420 -186 420 -159 q 400 -234 420 -214 q 353 -254 381 -254 z "},"\xf2":{"ha":705,"x_min":37,"x_max":669,"o":"m 37 293 q 79 450 37 378 q 194 563 121 522 q 353 605 267 605 q 512 563 439 605 q 627 450 585 522 q 669 293 669 378 q 626 136 669 208 q 512 23 584 65 q 353 -18 439 -18 q 194 23 267 -18 q 79 136 121 64 q 37 293 37 208 m 184 293 q 207 209 184 248 q 268 148 229 170 q 353 125 307 125 q 438 148 399 125 q 499 209 477 170 q 522 293 522 247 q 499 378 522 339 q 438 440 477 417 q 353 463 399 463 q 268 440 307 463 q 207 378 229 417 q 184 293 184 339 m 203 836 q 192 855 192 842 q 198 872 192 865 l 222 902 q 239 911 229 911 q 262 901 250 911 l 443 766 q 453 748 453 758 q 446 730 453 739 l 430 709 q 414 700 423 700 q 392 709 405 700 l 203 836 z "},"\u0151":{"ha":705,"x_min":37,"x_max":669,"o":"m 37 293 q 79 450 37 378 q 194 563 121 522 q 353 605 267 605 q 512 563 439 605 q 627 450 585 522 q 669 293 669 378 q 626 136 669 208 q 512 23 584 65 q 353 -18 439 -18 q 194 23 267 -18 q 79 136 121 64 q 37 293 37 208 m 184 293 q 207 209 184 248 q 268 148 229 170 q 353 125 307 125 q 438 148 399 125 q 499 209 477 170 q 522 293 522 247 q 499 378 522 339 q 438 440 477 417 q 353 463 399 463 q 268 440 307 463 q 207 378 229 417 q 184 293 184 339 m 298 724 q 283 707 290 711 q 264 702 276 702 l 235 702 q 221 707 227 702 q 215 720 215 712 q 219 733 215 726 l 334 926 q 348 944 340 939 q 367 949 355 949 l 407 949 q 422 944 416 949 q 429 929 429 938 q 425 916 429 923 l 298 724 m 536 724 q 522 706 528 709 q 503 702 515 702 l 475 702 q 459 707 465 702 q 454 720 454 712 q 458 733 454 726 l 572 926 q 586 944 578 939 q 606 949 594 949 l 646 949 q 661 944 655 949 q 667 929 667 938 q 663 916 667 923 l 536 724 z "},"\u014d":{"ha":705,"x_min":37,"x_max":669,"o":"m 37 293 q 79 450 37 378 q 194 563 121 522 q 353 605 267 605 q 512 563 439 605 q 627 450 585 522 q 669 293 669 378 q 626 136 669 208 q 512 23 584 65 q 353 -18 439 -18 q 194 23 267 -18 q 79 136 121 64 q 37 293 37 208 m 184 293 q 207 209 184 248 q 268 148 229 170 q 353 125 307 125 q 438 148 399 125 q 499 209 477 170 q 522 293 522 247 q 499 378 522 339 q 438 440 477 417 q 353 463 399 463 q 268 440 307 463 q 207 378 229 417 q 184 293 184 339 m 215 793 q 220 806 215 801 q 232 810 224 810 l 477 810 q 488 806 484 810 q 492 794 492 802 l 492 747 q 488 736 492 741 q 476 731 483 731 l 231 731 q 220 735 225 731 q 215 747 215 740 l 215 793 z "},"\u01eb":{"ha":705,"x_min":37,"x_max":669,"o":"m 589 -257 q 586 -270 590 -264 q 574 -279 583 -276 q 468 -296 530 -296 q 344 -256 389 -296 q 299 -144 299 -216 q 312 -77 299 -109 q 350 -18 326 -44 q 192 24 264 -18 q 78 137 120 66 q 37 293 37 208 q 79 450 37 378 q 194 563 121 522 q 353 605 267 605 q 512 563 439 605 q 627 450 585 522 q 669 293 669 378 q 646 176 669 231 q 582 78 623 121 q 488 11 541 36 q 408 -58 437 -19 q 379 -136 379 -96 q 405 -195 379 -174 q 474 -216 430 -216 q 515 -213 492 -216 q 559 -201 538 -209 q 568 -200 563 -200 q 583 -212 581 -200 l 589 -257 m 184 293 q 207 209 184 248 q 268 148 229 170 q 353 125 307 125 q 438 148 399 125 q 499 209 477 170 q 522 293 522 247 q 499 378 522 339 q 438 440 477 417 q 353 463 399 463 q 268 440 307 463 q 207 378 229 417 q 184 293 184 339 z "},"\xf8":{"ha":705,"x_min":37,"x_max":669,"o":"m 613 471 q 654 387 640 433 q 669 293 669 342 q 626 136 669 208 q 512 23 584 65 q 353 -18 439 -18 q 233 4 290 -18 q 133 68 176 27 l 95 36 q 81 30 88 30 q 67 37 73 30 l 50 58 q 45 70 45 64 q 54 85 45 77 l 92 117 q 37 293 37 197 q 79 450 37 378 q 194 563 121 522 q 353 605 267 605 q 472 582 416 605 q 572 519 528 559 l 609 551 q 621 556 616 556 q 635 549 628 556 l 652 528 q 658 516 658 522 q 650 502 658 508 l 613 471 m 184 293 q 205 212 184 250 l 459 425 q 353 463 412 463 q 268 440 307 463 q 207 378 229 417 q 184 293 184 339 m 353 125 q 438 148 399 125 q 499 209 477 170 q 522 293 522 247 q 500 376 522 338 l 246 163 q 295 135 268 144 q 353 125 323 125 z "},"\u01ff":{"ha":705,"x_min":37,"x_max":669,"o":"m 613 471 q 654 387 640 433 q 669 293 669 342 q 626 136 669 208 q 512 23 584 65 q 353 -18 439 -18 q 233 4 290 -18 q 133 68 176 27 l 95 36 q 81 30 88 30 q 67 37 73 30 l 50 58 q 45 70 45 64 q 54 85 45 77 l 92 117 q 37 293 37 197 q 79 450 37 378 q 194 563 121 522 q 353 605 267 605 q 472 582 416 605 q 572 519 528 559 l 609 551 q 621 556 616 556 q 635 549 628 556 l 652 528 q 658 516 658 522 q 650 502 658 508 l 613 471 m 184 293 q 205 212 184 250 l 459 425 q 353 463 412 463 q 268 440 307 463 q 207 378 229 417 q 184 293 184 339 m 353 125 q 438 148 399 125 q 499 209 477 170 q 522 293 522 247 q 500 376 522 338 l 246 163 q 295 135 268 144 q 353 125 323 125 m 344 709 q 321 700 331 700 q 306 709 313 700 l 290 730 q 283 748 283 739 q 293 766 283 758 l 474 901 q 497 911 486 911 q 514 902 507 911 l 538 872 q 544 855 544 865 q 532 836 544 842 l 344 709 z "},"\xf5":{"ha":705,"x_min":37,"x_max":669,"o":"m 37 293 q 79 450 37 378 q 194 563 121 522 q 353 605 267 605 q 512 563 439 605 q 627 450 585 522 q 669 293 669 378 q 626 136 669 208 q 512 23 584 65 q 353 -18 439 -18 q 194 23 267 -18 q 79 136 121 64 q 37 293 37 208 m 184 293 q 207 209 184 248 q 268 148 229 170 q 353 125 307 125 q 438 148 399 125 q 499 209 477 170 q 522 293 522 247 q 499 378 522 339 q 438 440 477 417 q 353 463 399 463 q 268 440 307 463 q 207 378 229 417 q 184 293 184 339 m 179 750 q 172 766 172 757 q 181 787 172 777 q 229 830 205 818 q 285 843 252 843 q 316 837 298 843 q 361 814 333 830 q 393 798 382 802 q 412 794 404 794 q 438 801 427 794 q 467 827 450 807 q 484 838 475 838 q 499 829 491 838 l 523 806 q 528 794 528 800 q 524 783 528 788 q 471 732 496 747 q 412 718 445 718 q 381 724 398 718 q 337 746 365 730 q 307 762 318 758 q 285 766 295 766 q 257 758 269 766 q 227 729 244 751 q 216 723 222 723 q 196 734 207 723 l 179 750 z "},"\u0155":{"ha":560,"x_min":82,"x_max":555,"o":"m 548 551 q 555 538 555 547 q 551 526 555 532 l 500 448 q 485 439 495 439 q 475 442 479 439 l 471 446 q 427 469 452 461 q 378 476 401 476 q 303 457 337 476 q 249 404 269 437 q 229 332 229 371 l 229 19 q 210 -1 229 -1 l 101 -1 q 82 19 82 -1 l 82 569 q 87 583 82 578 q 102 588 92 588 l 188 588 q 207 576 204 588 l 219 509 q 299 580 250 554 q 400 606 347 606 q 483 592 444 606 q 548 551 522 578 m 291 708 q 269 699 278 699 q 253 708 260 699 l 237 729 q 230 747 230 739 q 240 765 230 758 l 421 901 q 444 910 433 910 q 461 901 454 910 l 485 871 q 491 854 491 865 q 479 835 491 842 l 291 708 z "},"\u0159":{"ha":560,"x_min":82,"x_max":555,"o":"m 548 551 q 555 538 555 547 q 551 526 555 532 l 500 448 q 485 439 495 439 q 475 442 479 439 l 471 446 q 427 469 452 461 q 378 476 401 476 q 303 457 337 476 q 249 404 269 437 q 229 332 229 371 l 229 19 q 210 -1 229 -1 l 101 -1 q 82 19 82 -1 l 82 569 q 87 583 82 578 q 102 588 92 588 l 188 588 q 207 576 204 588 l 219 509 q 299 580 250 554 q 400 606 347 606 q 483 592 444 606 q 548 551 522 578 m 130 829 q 123 836 128 831 q 118 846 118 840 q 124 861 118 852 l 142 889 q 157 897 147 897 q 177 889 168 897 l 300 789 l 423 889 q 444 897 433 897 q 458 890 453 897 l 477 863 q 481 850 481 857 q 471 831 481 839 l 315 698 q 299 690 308 690 q 284 698 292 690 l 130 829 z "},"\u0157":{"ha":560,"x_min":82,"x_max":555,"o":"m 548 551 q 555 538 555 547 q 551 526 555 532 l 500 448 q 485 439 495 439 q 475 442 479 439 l 471 446 q 427 469 452 461 q 378 476 401 476 q 303 457 337 476 q 249 404 269 437 q 229 332 229 371 l 229 19 q 210 -1 229 -1 l 101 -1 q 82 19 82 -1 l 82 569 q 87 583 82 578 q 102 588 92 588 l 188 588 q 207 576 204 588 l 219 509 q 299 580 250 554 q 400 606 347 606 q 483 592 444 606 q 548 551 522 578 m 88 -157 q 107 -110 88 -130 q 155 -91 127 -91 q 211 -116 189 -91 q 232 -176 232 -140 q 215 -260 232 -222 q 161 -332 197 -297 q 146 -338 155 -338 q 132 -332 139 -338 l 114 -316 q 109 -304 109 -311 q 115 -288 109 -296 q 151 -235 151 -252 q 146 -227 151 -231 q 136 -220 142 -222 q 101 -198 114 -215 q 88 -157 88 -181 z "},"\u015b":{"ha":592,"x_min":48,"x_max":545,"o":"m 296 471 q 242 458 261 471 q 222 424 222 446 q 231 400 222 410 q 262 381 239 390 q 331 360 286 372 q 449 318 402 342 q 520 254 495 293 q 545 158 545 216 q 480 26 545 72 q 304 -19 416 -19 q 172 2 236 -19 q 62 50 107 24 q 48 68 48 57 q 53 83 48 76 l 96 159 q 115 172 104 172 q 130 168 122 172 q 304 118 226 118 q 378 129 353 118 q 404 165 404 140 q 378 204 404 189 q 296 234 352 220 q 177 275 222 252 q 107 336 132 298 q 83 433 83 374 q 109 519 83 479 q 182 583 134 559 q 296 607 230 607 q 413 589 355 607 q 511 548 471 572 q 526 528 526 540 q 521 513 526 521 l 477 439 q 457 426 469 426 q 450 427 455 426 q 375 458 416 445 q 296 471 334 471 m 288 710 q 265 701 275 701 q 250 710 256 701 l 234 731 q 227 749 227 741 q 237 767 227 760 l 418 903 q 441 912 429 912 q 458 903 451 912 l 481 873 q 488 857 488 867 q 476 837 488 844 l 288 710 z "},"\u0161":{"ha":592,"x_min":48,"x_max":545,"o":"m 296 471 q 242 458 261 471 q 222 424 222 446 q 231 400 222 410 q 262 381 239 390 q 331 360 286 372 q 449 318 402 342 q 520 254 495 293 q 545 158 545 216 q 480 26 545 72 q 304 -19 416 -19 q 172 2 236 -19 q 62 50 107 24 q 48 68 48 57 q 53 83 48 76 l 96 159 q 115 172 104 172 q 130 168 122 172 q 304 118 226 118 q 378 129 353 118 q 404 165 404 140 q 378 204 404 189 q 296 234 352 220 q 177 275 222 252 q 107 336 132 298 q 83 433 83 374 q 109 519 83 479 q 182 583 134 559 q 296 607 230 607 q 413 589 355 607 q 511 548 471 572 q 526 528 526 540 q 521 513 526 521 l 477 439 q 457 426 469 426 q 450 427 455 426 q 375 458 416 445 q 296 471 334 471 m 126 831 q 120 838 125 833 q 115 848 115 842 q 121 863 115 854 l 139 891 q 153 899 144 899 q 174 891 164 899 l 296 791 l 420 891 q 440 899 429 899 q 454 892 450 899 l 473 865 q 477 852 477 859 q 468 833 477 841 l 312 700 q 296 692 304 692 q 281 700 288 692 l 126 831 z "},"\u015f":{"ha":592,"x_min":48,"x_max":545,"o":"m 545 158 q 489 33 545 78 q 336 -18 433 -12 l 326 -98 q 378 -118 359 -98 q 397 -172 397 -138 q 395 -189 397 -177 l 391 -226 q 351 -306 385 -277 q 262 -336 316 -336 l 195 -336 q 187 -332 190 -336 q 184 -323 184 -329 l 191 -269 q 204 -258 192 -258 l 271 -258 q 300 -249 289 -258 q 313 -224 311 -240 l 317 -189 q 317 -182 317 -187 q 308 -161 317 -169 q 281 -153 298 -153 l 254 -153 q 245 -150 248 -153 q 243 -141 242 -146 l 258 -16 q 150 9 201 -9 q 62 50 99 28 q 48 68 48 57 q 53 83 48 76 l 96 159 q 115 172 104 172 q 130 168 122 172 q 304 118 226 118 q 378 129 353 118 q 404 165 404 140 q 378 204 404 189 q 296 234 352 220 q 177 275 222 252 q 107 336 132 298 q 83 433 83 374 q 109 519 83 479 q 182 583 134 559 q 296 607 230 607 q 413 589 355 607 q 511 548 471 572 q 526 528 526 540 q 521 513 526 521 l 477 439 q 457 426 469 426 q 450 427 455 426 q 375 458 416 445 q 296 471 334 471 q 242 458 261 471 q 222 424 222 446 q 231 400 222 410 q 262 381 239 390 q 331 360 286 372 q 449 318 402 342 q 520 254 495 293 q 545 158 545 216 z "},"\u015d":{"ha":592,"x_min":48,"x_max":545,"o":"m 296 471 q 242 458 261 471 q 222 424 222 446 q 231 400 222 410 q 262 381 239 390 q 331 360 286 372 q 449 318 402 342 q 520 254 495 293 q 545 158 545 216 q 480 26 545 72 q 304 -19 416 -19 q 172 2 236 -19 q 62 50 107 24 q 48 68 48 57 q 53 83 48 76 l 96 159 q 115 172 104 172 q 130 168 122 172 q 304 118 226 118 q 378 129 353 118 q 404 165 404 140 q 378 204 404 189 q 296 234 352 220 q 177 275 222 252 q 107 336 132 298 q 83 433 83 374 q 109 519 83 479 q 182 583 134 559 q 296 607 230 607 q 413 589 355 607 q 511 548 471 572 q 526 528 526 540 q 521 513 526 521 l 477 439 q 457 426 469 426 q 450 427 455 426 q 375 458 416 445 q 296 471 334 471 m 281 892 q 296 899 290 899 q 313 892 305 899 l 469 758 q 478 739 478 750 q 474 726 478 732 l 455 700 q 440 692 450 692 q 420 700 431 692 l 297 800 l 174 700 q 155 692 163 692 q 140 701 145 692 l 121 728 q 115 743 115 736 q 120 754 115 749 q 127 760 125 759 l 281 892 z "},"\u0219":{"ha":592,"x_min":48,"x_max":545,"o":"m 296 471 q 242 458 261 471 q 222 424 222 446 q 231 400 222 410 q 262 381 239 390 q 331 360 286 372 q 449 318 402 342 q 520 254 495 293 q 545 158 545 216 q 480 26 545 72 q 304 -19 416 -19 q 172 2 236 -19 q 62 50 107 24 q 48 68 48 57 q 53 83 48 76 l 96 159 q 115 172 104 172 q 130 168 122 172 q 304 118 226 118 q 378 129 353 118 q 404 165 404 140 q 378 204 404 189 q 296 234 352 220 q 177 275 222 252 q 107 336 132 298 q 83 433 83 374 q 109 519 83 479 q 182 583 134 559 q 296 607 230 607 q 413 589 355 607 q 511 548 471 572 q 526 528 526 540 q 521 513 526 521 l 477 439 q 457 426 469 426 q 450 427 455 426 q 375 458 416 445 q 296 471 334 471 m 229 -171 q 248 -124 229 -143 q 296 -104 267 -104 q 351 -129 330 -104 q 372 -189 372 -154 q 355 -273 372 -236 q 302 -345 338 -311 q 287 -352 295 -352 q 273 -345 279 -352 l 254 -330 q 249 -317 249 -325 q 256 -302 249 -309 q 291 -249 291 -266 q 287 -240 291 -244 q 276 -234 283 -236 q 241 -212 254 -229 q 229 -171 229 -195 z "},"\u0167":{"ha":418,"x_min":15,"x_max":406,"o":"m 388 587 q 406 569 406 587 l 406 465 q 388 447 406 447 l 248 447 l 248 308 l 366 308 q 385 289 385 308 l 385 263 q 366 244 385 244 l 248 244 l 248 17 q 230 -1 248 -1 l 119 -1 q 105 3 110 -1 q 100 17 100 8 l 100 244 l 56 244 q 37 263 37 244 l 37 289 q 56 308 37 308 l 100 308 l 100 447 l 33 447 q 15 465 15 447 l 15 569 q 33 587 15 587 l 100 587 l 100 755 q 115 777 100 771 l 226 820 q 233 821 231 821 q 244 817 240 821 q 248 804 248 812 l 248 587 l 388 587 z "},"\u0165":{"ha":418,"x_min":15,"x_max":423,"o":"m 15 569 q 33 587 15 587 l 100 587 l 100 755 q 115 777 100 771 l 226 820 q 233 821 231 821 q 244 817 240 821 q 248 804 248 812 l 248 587 l 388 587 q 406 569 406 587 l 406 465 q 388 447 406 447 l 248 447 l 248 17 q 230 -1 248 -1 l 119 -1 q 105 3 110 -1 q 100 17 100 8 l 100 447 l 33 447 q 15 465 15 447 l 15 569 m 407 758 q 399 741 406 747 q 380 734 391 734 l 358 734 q 339 741 346 734 q 332 758 332 747 l 332 960 q 359 992 332 992 l 395 992 q 420 963 423 992 l 407 758 z "},"\u0163":{"ha":418,"x_min":15,"x_max":406,"o":"m 388 587 q 406 569 406 587 l 406 465 q 388 447 406 447 l 248 447 l 248 17 q 230 -1 248 -1 l 212 -1 l 201 -87 q 253 -106 235 -87 q 272 -160 272 -125 q 271 -177 272 -165 l 267 -214 q 226 -294 260 -264 q 138 -323 191 -323 l 71 -323 q 62 -320 65 -323 q 60 -311 59 -317 l 66 -257 q 79 -246 66 -246 l 146 -246 q 175 -237 164 -246 q 188 -212 186 -229 l 192 -177 q 193 -171 193 -175 q 183 -149 193 -157 q 156 -141 173 -141 l 130 -141 q 120 -138 123 -141 q 118 -129 117 -134 l 133 -1 l 119 -1 q 105 3 110 -1 q 100 17 100 8 l 100 447 l 33 447 q 15 465 15 447 l 15 569 q 33 587 15 587 l 100 587 l 100 755 q 115 777 100 771 l 226 820 q 233 821 231 821 q 244 817 240 821 q 248 804 248 812 l 248 587 l 388 587 z "},"\u021b":{"ha":418,"x_min":15,"x_max":406,"o":"m 15 569 q 33 587 15 587 l 100 587 l 100 755 q 115 777 100 771 l 226 820 q 233 821 231 821 q 244 817 240 821 q 248 804 248 812 l 248 587 l 388 587 q 406 569 406 587 l 406 465 q 388 447 406 447 l 248 447 l 248 17 q 230 -1 248 -1 l 119 -1 q 105 3 110 -1 q 100 17 100 8 l 100 447 l 33 447 q 15 465 15 447 l 15 569 m 104 -159 q 123 -112 104 -131 q 171 -92 142 -92 q 226 -117 205 -92 q 248 -177 248 -142 q 230 -261 248 -224 q 177 -333 213 -298 q 162 -340 170 -340 q 148 -333 155 -340 l 130 -317 q 124 -305 124 -313 q 131 -290 124 -297 q 166 -237 166 -254 q 162 -228 166 -232 q 151 -222 158 -224 q 117 -199 130 -216 q 104 -159 104 -182 z "},"\xfa":{"ha":711,"x_min":71,"x_max":629,"o":"m 610 587 q 629 568 629 587 l 629 18 q 624 4 629 9 q 610 -1 619 -1 l 523 -1 q 505 12 507 -1 l 493 72 q 412 5 460 29 q 308 -20 363 -20 q 182 13 235 -20 q 100 106 128 45 q 71 248 71 166 l 71 567 q 77 582 71 576 q 91 587 82 587 l 199 587 q 214 582 209 587 q 219 567 219 576 l 219 246 q 236 183 219 212 q 283 138 254 155 q 347 121 313 121 q 415 139 384 121 q 464 187 446 156 q 482 256 482 218 l 482 568 q 501 587 482 587 l 610 587 m 339 710 q 317 701 326 701 q 301 710 308 701 l 286 731 q 278 749 278 741 q 288 767 278 760 l 469 903 q 492 912 481 912 q 509 903 503 912 l 533 873 q 539 857 539 867 q 528 837 539 844 l 339 710 z "},"\u016d":{"ha":711,"x_min":71,"x_max":629,"o":"m 610 587 q 629 568 629 587 l 629 18 q 624 4 629 9 q 610 -1 619 -1 l 523 -1 q 505 12 507 -1 l 493 72 q 412 5 460 29 q 308 -20 363 -20 q 182 13 235 -20 q 100 106 128 45 q 71 248 71 166 l 71 567 q 77 582 71 576 q 91 587 82 587 l 199 587 q 214 582 209 587 q 219 567 219 576 l 219 246 q 236 183 219 212 q 283 138 254 155 q 347 121 313 121 q 415 139 384 121 q 464 187 446 156 q 482 256 482 218 l 482 568 q 501 587 482 587 l 610 587 m 348 711 q 232 750 274 711 q 189 858 189 789 q 195 877 189 870 q 213 884 201 884 l 247 884 q 267 876 260 884 q 275 855 275 868 q 295 807 275 825 q 349 790 315 790 q 403 807 384 790 q 422 856 422 825 q 430 876 422 869 q 450 884 437 884 l 484 884 q 502 877 495 884 q 508 858 508 870 q 465 750 508 789 q 348 711 422 711 z "},"\xfb":{"ha":711,"x_min":71,"x_max":629,"o":"m 610 587 q 629 568 629 587 l 629 18 q 624 4 629 9 q 610 -1 619 -1 l 523 -1 q 505 12 507 -1 l 493 72 q 412 5 460 29 q 308 -20 363 -20 q 182 13 235 -20 q 100 106 128 45 q 71 248 71 166 l 71 567 q 77 582 71 576 q 91 587 82 587 l 199 587 q 214 582 209 587 q 219 567 219 576 l 219 246 q 236 183 219 212 q 283 138 254 155 q 347 121 313 121 q 415 139 384 121 q 464 187 446 156 q 482 256 482 218 l 482 568 q 501 587 482 587 l 610 587 m 333 892 q 348 899 342 899 q 364 892 357 899 l 520 758 q 530 739 530 750 q 526 726 530 732 l 507 700 q 492 692 501 692 q 472 700 483 692 l 349 800 l 226 700 q 206 692 215 692 q 191 701 197 692 l 173 728 q 167 743 167 736 q 172 754 167 749 q 178 760 177 759 l 333 892 z "},"\xfc":{"ha":711,"x_min":71,"x_max":629,"o":"m 610 587 q 629 568 629 587 l 629 18 q 624 4 629 9 q 610 -1 619 -1 l 523 -1 q 505 12 507 -1 l 493 72 q 412 5 460 29 q 308 -20 363 -20 q 182 13 235 -20 q 100 106 128 45 q 71 248 71 166 l 71 567 q 77 582 71 576 q 91 587 82 587 l 199 587 q 214 582 209 587 q 219 567 219 576 l 219 246 q 236 183 219 212 q 283 138 254 155 q 347 121 313 121 q 415 139 384 121 q 464 187 446 156 q 482 256 482 218 l 482 568 q 501 587 482 587 l 610 587 m 259 728 q 212 748 231 728 q 192 795 192 768 q 212 843 192 823 q 259 862 231 862 q 306 843 286 862 q 326 795 326 823 q 306 748 326 768 q 259 728 287 728 m 437 728 q 389 748 409 728 q 370 795 370 768 q 389 843 370 823 q 437 862 409 862 q 483 843 464 862 q 503 795 503 823 q 483 748 503 768 q 437 728 464 728 z "},"\u1ee5":{"ha":711,"x_min":71,"x_max":629,"o":"m 610 587 q 629 568 629 587 l 629 18 q 624 4 629 9 q 610 -1 619 -1 l 523 -1 q 505 12 507 -1 l 493 72 q 412 5 460 29 q 308 -20 363 -20 q 182 13 235 -20 q 100 106 128 45 q 71 248 71 166 l 71 567 q 77 582 71 576 q 91 587 82 587 l 199 587 q 214 582 209 587 q 219 567 219 576 l 219 246 q 236 183 219 212 q 283 138 254 155 q 347 121 313 121 q 415 139 384 121 q 464 187 446 156 q 482 256 482 218 l 482 568 q 501 587 482 587 l 610 587 m 372 -246 q 324 -227 344 -246 q 304 -179 304 -207 q 324 -133 304 -152 q 372 -113 344 -113 q 419 -133 399 -113 q 438 -179 438 -152 q 419 -227 438 -207 q 372 -246 399 -246 z "},"\xf9":{"ha":711,"x_min":71,"x_max":629,"o":"m 610 587 q 629 568 629 587 l 629 18 q 624 4 629 9 q 610 -1 619 -1 l 523 -1 q 505 12 507 -1 l 493 72 q 412 5 460 29 q 308 -20 363 -20 q 182 13 235 -20 q 100 106 128 45 q 71 248 71 166 l 71 567 q 77 582 71 576 q 91 587 82 587 l 199 587 q 214 582 209 587 q 219 567 219 576 l 219 246 q 236 183 219 212 q 283 138 254 155 q 347 121 313 121 q 415 139 384 121 q 464 187 446 156 q 482 256 482 218 l 482 568 q 501 587 482 587 l 610 587 m 199 837 q 187 857 187 844 q 193 873 187 867 l 217 903 q 234 912 224 912 q 257 903 245 912 l 438 767 q 448 749 448 760 q 441 731 448 741 l 425 710 q 410 701 418 701 q 387 710 400 701 l 199 837 z "},"\u0171":{"ha":711,"x_min":71,"x_max":663,"o":"m 610 587 q 629 568 629 587 l 629 18 q 624 4 629 9 q 610 -1 619 -1 l 523 -1 q 505 12 507 -1 l 493 72 q 412 5 460 29 q 308 -20 363 -20 q 182 13 235 -20 q 100 106 128 45 q 71 248 71 166 l 71 567 q 77 582 71 576 q 91 587 82 587 l 199 587 q 214 582 209 587 q 219 567 219 576 l 219 246 q 236 183 219 212 q 283 138 254 155 q 347 121 313 121 q 415 139 384 121 q 464 187 446 156 q 482 256 482 218 l 482 568 q 501 587 482 587 l 610 587 m 293 726 q 278 708 286 713 q 259 703 271 703 l 231 703 q 216 708 222 703 q 210 721 210 713 q 214 734 210 728 l 329 927 q 343 945 336 940 q 362 951 350 951 l 402 951 q 418 945 412 951 q 424 930 424 939 q 420 917 424 924 l 293 726 m 532 725 q 517 707 524 711 q 498 703 511 703 l 470 703 q 455 708 460 703 q 449 721 449 713 q 453 734 449 728 l 568 927 q 582 945 574 940 q 601 951 589 951 l 641 951 q 656 945 650 951 q 663 930 663 939 q 659 917 663 924 l 532 725 z "},"\u016b":{"ha":711,"x_min":71,"x_max":629,"o":"m 610 587 q 629 568 629 587 l 629 18 q 624 4 629 9 q 610 -1 619 -1 l 523 -1 q 505 12 507 -1 l 493 72 q 412 5 460 29 q 308 -20 363 -20 q 182 13 235 -20 q 100 106 128 45 q 71 248 71 166 l 71 567 q 77 582 71 576 q 91 587 82 587 l 199 587 q 214 582 209 587 q 219 567 219 576 l 219 246 q 236 183 219 212 q 283 138 254 155 q 347 121 313 121 q 415 139 384 121 q 464 187 446 156 q 482 256 482 218 l 482 568 q 501 587 482 587 l 610 587 m 210 795 q 214 807 210 802 q 227 812 219 812 l 471 812 q 483 807 479 812 q 487 795 487 803 l 487 749 q 482 737 487 742 q 471 732 477 732 l 226 732 q 215 737 220 732 q 210 749 210 741 l 210 795 z "},"\u0173":{"ha":711,"x_min":71,"x_max":701,"o":"m 699 -275 q 697 -288 701 -282 q 685 -296 693 -294 q 633 -310 661 -305 q 578 -314 604 -314 q 454 -273 498 -314 q 410 -159 409 -231 q 437 -67 410 -110 q 510 3 464 -24 q 505 12 505 6 l 493 72 q 412 5 460 29 q 308 -20 363 -20 q 182 13 235 -20 q 100 106 128 45 q 71 248 71 166 l 71 567 q 77 582 71 576 q 91 587 82 587 l 199 587 q 214 582 209 587 q 219 567 219 576 l 219 246 q 236 183 219 212 q 283 138 254 155 q 347 121 313 121 q 415 139 384 121 q 464 187 446 156 q 482 256 482 218 l 482 568 q 501 587 482 587 l 610 587 q 629 568 629 587 l 629 18 q 624 4 629 9 q 610 -1 619 -1 l 608 -1 q 522 -73 553 -32 q 490 -155 490 -113 q 515 -213 490 -192 q 585 -234 541 -234 q 670 -219 629 -234 l 678 -218 q 693 -229 691 -218 l 699 -275 z "},"\u016f":{"ha":711,"x_min":71,"x_max":629,"o":"m 610 587 q 629 568 629 587 l 629 18 q 624 4 629 9 q 610 -1 619 -1 l 523 -1 q 505 12 507 -1 l 493 72 q 412 5 460 29 q 308 -20 363 -20 q 182 13 235 -20 q 100 106 128 45 q 71 248 71 166 l 71 567 q 77 582 71 576 q 91 587 82 587 l 199 587 q 214 582 209 587 q 219 567 219 576 l 219 246 q 236 183 219 212 q 283 138 254 155 q 347 121 313 121 q 415 139 384 121 q 464 187 446 156 q 482 256 482 218 l 482 568 q 501 587 482 587 l 610 587 m 349 964 q 428 944 392 964 q 484 888 463 923 q 505 810 505 852 q 484 732 505 767 q 428 676 463 696 q 349 655 392 655 q 271 676 306 655 q 215 732 235 696 q 194 810 194 767 q 215 888 194 852 q 271 944 235 923 q 349 964 306 964 m 349 895 q 289 870 313 895 q 264 810 264 845 q 289 750 264 774 q 349 726 313 726 q 409 750 385 726 q 434 810 434 774 q 409 870 434 846 q 349 895 385 895 z "},"\u0169":{"ha":711,"x_min":71,"x_max":629,"o":"m 610 587 q 629 568 629 587 l 629 18 q 624 4 629 9 q 610 -1 619 -1 l 523 -1 q 505 12 507 -1 l 493 72 q 412 5 460 29 q 308 -20 363 -20 q 182 13 235 -20 q 100 106 128 45 q 71 248 71 166 l 71 567 q 77 582 71 576 q 91 587 82 587 l 199 587 q 214 582 209 587 q 219 567 219 576 l 219 246 q 236 183 219 212 q 283 138 254 155 q 347 121 313 121 q 415 139 384 121 q 464 187 446 156 q 482 256 482 218 l 482 568 q 501 587 482 587 l 610 587 m 174 751 q 166 767 166 758 q 176 788 166 778 q 223 832 200 819 q 279 844 247 844 q 310 838 293 844 q 356 815 328 831 q 387 800 376 804 q 407 795 398 795 q 433 802 421 795 q 461 828 444 808 q 478 839 469 839 q 494 831 486 839 l 517 807 q 523 795 523 802 q 518 785 523 789 q 465 734 491 749 q 407 719 439 719 q 376 725 393 719 q 332 747 359 731 q 301 763 313 759 q 279 767 290 767 q 251 760 264 767 q 222 730 239 752 q 210 724 217 724 q 191 735 201 724 l 174 751 z "},"\u1e83":{"ha":970,"x_min":10,"x_max":960,"o":"m 946 588 q 956 584 952 588 q 960 574 960 580 q 958 565 960 570 l 720 16 q 710 4 717 8 q 694 -1 703 -1 l 622 -1 q 607 4 614 -1 q 596 16 600 8 l 484 265 l 379 16 q 369 4 376 9 q 353 -1 361 -1 l 273 -1 q 257 4 264 -1 q 246 16 249 9 l 12 565 q 10 574 10 570 q 15 584 10 581 q 26 588 19 588 l 144 588 q 160 583 153 588 q 170 571 167 578 l 313 167 l 460 571 q 469 583 463 578 q 485 588 476 588 l 595 588 q 606 584 602 588 q 610 574 610 581 q 608 565 610 570 l 548 420 l 650 171 l 802 572 q 823 588 808 588 l 946 588 m 477 702 q 454 693 464 693 q 439 702 446 693 l 423 723 q 416 741 416 732 q 426 759 416 751 l 607 895 q 630 904 618 904 q 647 895 640 904 l 671 865 q 677 848 677 859 q 665 829 677 836 l 477 702 z "},"\u0175":{"ha":970,"x_min":10,"x_max":960,"o":"m 946 588 q 956 584 952 588 q 960 574 960 580 q 958 565 960 570 l 720 16 q 710 4 717 8 q 694 -1 703 -1 l 622 -1 q 607 4 614 -1 q 596 16 600 8 l 484 265 l 379 16 q 369 4 376 9 q 353 -1 361 -1 l 273 -1 q 257 4 264 -1 q 246 16 249 9 l 12 565 q 10 574 10 570 q 15 584 10 581 q 26 588 19 588 l 144 588 q 160 583 153 588 q 170 571 167 578 l 313 167 l 460 571 q 469 583 463 578 q 485 588 476 588 l 595 588 q 606 584 602 588 q 610 574 610 581 q 608 565 610 570 l 548 420 l 650 171 l 802 572 q 823 588 808 588 l 946 588 m 471 884 q 486 891 479 891 q 502 884 494 891 l 658 750 q 667 731 667 742 q 663 718 667 724 l 644 692 q 629 684 639 684 q 610 692 621 684 l 486 792 l 363 692 q 344 684 353 684 q 329 692 334 684 l 311 720 q 304 734 304 728 q 310 746 304 741 q 316 752 315 751 l 471 884 z "},"\u1e85":{"ha":970,"x_min":10,"x_max":960,"o":"m 946 588 q 956 584 952 588 q 960 574 960 580 q 958 565 960 570 l 720 16 q 710 4 717 8 q 694 -1 703 -1 l 622 -1 q 607 4 614 -1 q 596 16 600 8 l 484 265 l 379 16 q 369 4 376 9 q 353 -1 361 -1 l 273 -1 q 257 4 264 -1 q 246 16 249 9 l 12 565 q 10 574 10 570 q 15 584 10 581 q 26 588 19 588 l 144 588 q 160 583 153 588 q 170 571 167 578 l 313 167 l 460 571 q 469 583 463 578 q 485 588 476 588 l 595 588 q 606 584 602 588 q 610 574 610 581 q 608 565 610 570 l 548 420 l 650 171 l 802 572 q 823 588 808 588 l 946 588 m 397 720 q 349 740 369 720 q 330 787 330 760 q 349 834 330 815 q 397 854 369 854 q 444 834 424 854 q 463 787 463 815 q 444 740 463 760 q 397 720 425 720 m 574 720 q 527 740 547 720 q 507 787 507 760 q 527 834 507 815 q 574 854 547 854 q 621 834 602 854 q 640 787 640 815 q 621 740 640 760 q 574 720 602 720 z "}}}
